STARTFONT 2.1
COMMENT
COMMENT Converted from OpenType font "Montserrat-Bold.otf" by "otf2bdf 3.0".
COMMENT
FONT -FreeType-Montserrat-Bold-R-Normal--21-200-75-75-P-124-ISO10646-1
SIZE 20 75 75
FONTBOUNDINGBOX 53 29 -18 -6
STARTPROPERTIES 19
FOUNDRY "FreeType"
FAMILY_NAME "Montserrat"
WEIGHT_NAME "Bold"
SLANT "R"
SETWIDTH_NAME "Normal"
ADD_STYLE_NAME ""
PIXEL_SIZE 21
POINT_SIZE 200
RESOLUTION_X 75
RESOLUTION_Y 75
SPACING "P"
AVERAGE_WIDTH 124
CHARSET_REGISTRY "ISO10646"
CHARSET_ENCODING "1"
FONT_ASCENT 20
FONT_DESCENT 5
COPYRIGHT "Copyright 2011 The Montserrat Project Authors (https://github.com/JulietaUla/Montserrat)"
_OTF_FONTFILE "Montserrat-Bold.otf"
_OTF_PSNAME "Montserrat-Bold"
ENDPROPERTIES
CHARS 969
STARTCHAR 0000
ENCODING 0
SWIDTH 0 0
DWIDTH 0 0
BBX 0 0 0 0
BITMAP
ENDCHAR
STARTCHAR 000D
ENCODING 13
SWIDTH 288 0
DWIDTH 6 0
BBX 0 0 0 0
BITMAP
ENDCHAR
STARTCHAR 0020
ENCODING 32
SWIDTH 288 0
DWIDTH 6 0
BBX 0 0 0 0
BITMAP
ENDCHAR
STARTCHAR 0021
ENCODING 33
SWIDTH 288 0
DWIDTH 6 0
BBX 4 15 1 0
BITMAP
F0
F0
F0
F0
F0
F0
70
60
60
60
00
60
F0
F0
60
ENDCHAR
STARTCHAR 0022
ENCODING 34
SWIDTH 432 0
DWIDTH 9 0
BBX 7 6 1 9
BITMAP
EE
EE
EE
EE
EE
EE
ENDCHAR
STARTCHAR 0023
ENCODING 35
SWIDTH 720 0
DWIDTH 15 0
BBX 15 15 0 0
BITMAP
0E30
0E30
0E30
0E30
7FFE
7FFE
0C70
0C60
0C60
1C60
FFFC
FFFC
18E0
18E0
18E0
ENDCHAR
STARTCHAR 0024
ENCODING 36
SWIDTH 624 0
DWIDTH 13 0
BBX 12 19 1 -2
BITMAP
0600
0600
1F80
7FE0
FFE0
F640
E600
F600
FF00
7FC0
0FE0
07F0
06F0
C6F0
FFE0
FFC0
3F80
0600
0600
ENDCHAR
STARTCHAR 0025
ENCODING 37
SWIDTH 864 0
DWIDTH 18 0
BBX 17 15 1 0
BITMAP
780C00
FC1800
CE3800
C63000
C66000
CEE000
FCC000
799E00
03BF00
033300
067180
0E7180
0C3300
183F00
381E00
ENDCHAR
STARTCHAR 0026
ENCODING 38
SWIDTH 720 0
DWIDTH 15 0
BBX 13 15 1 0
BITMAP
1F00
3FC0
39C0
71C0
39C0
3F80
1F00
3F10
77B8
E3F8
E1F0
E0F0
FFF8
7FF8
3F10
ENDCHAR
STARTCHAR 0027
ENCODING 39
SWIDTH 240 0
DWIDTH 5 0
BBX 3 6 1 9
BITMAP
E0
E0
E0
E0
E0
E0
ENDCHAR
STARTCHAR 0028
ENCODING 40
SWIDTH 336 0
DWIDTH 7 0
BBX 5 20 2 -4
BITMAP
38
70
70
F0
E0
E0
E0
E0
E0
E0
E0
E0
E0
E0
E0
E0
F0
70
70
38
ENDCHAR
STARTCHAR 0029
ENCODING 41
SWIDTH 336 0
DWIDTH 7 0
BBX 6 20 0 -4
BITMAP
F0
70
78
38
38
38
3C
1C
1C
1C
1C
1C
1C
3C
38
38
38
78
70
F0
ENDCHAR
STARTCHAR 002A
ENCODING 42
SWIDTH 432 0
DWIDTH 9 0
BBX 9 9 0 7
BITMAP
0800
4900
6B00
7F00
3E00
3E00
FF80
4900
0800
ENDCHAR
STARTCHAR 002B
ENCODING 43
SWIDTH 576 0
DWIDTH 12 0
BBX 10 10 1 2
BITMAP
0E00
0E00
0E00
FFC0
FFC0
FFC0
0E00
0E00
0E00
0E00
ENDCHAR
STARTCHAR 002C
ENCODING 44
SWIDTH 240 0
DWIDTH 5 0
BBX 4 7 1 -3
BITMAP
E0
F0
F0
E0
60
E0
C0
ENDCHAR
STARTCHAR 002D
ENCODING 45
SWIDTH 384 0
DWIDTH 8 0
BBX 6 3 1 4
BITMAP
FC
FC
FC
ENDCHAR
STARTCHAR 002E
ENCODING 46
SWIDTH 240 0
DWIDTH 5 0
BBX 4 4 1 0
BITMAP
E0
F0
F0
E0
ENDCHAR
STARTCHAR 002F
ENCODING 47
SWIDTH 384 0
DWIDTH 8 0
BBX 10 20 -1 -2
BITMAP
01C0
01C0
0380
0380
0380
0700
0700
0700
0E00
0E00
0E00
1C00
1C00
1800
3800
3800
3000
7000
7000
E000
ENDCHAR
STARTCHAR 0030
ENCODING 48
SWIDTH 672 0
DWIDTH 14 0
BBX 12 15 1 0
BITMAP
0F80
3FC0
7FE0
70F0
F0F0
E070
E070
E070
E070
E070
F0F0
70F0
7FE0
3FC0
0F80
ENDCHAR
STARTCHAR 0031
ENCODING 49
SWIDTH 384 0
DWIDTH 8 0
BBX 6 15 0 0
BITMAP
FC
FC
FC
1C
1C
1C
1C
1C
1C
1C
1C
1C
1C
1C
1C
ENDCHAR
STARTCHAR 0032
ENCODING 50
SWIDTH 576 0
DWIDTH 12 0
BBX 12 15 0 0
BITMAP
1F80
7FC0
FFE0
61E0
00E0
00E0
01E0
03C0
0780
0F00
1E00
3C00
7FF0
7FF0
7FF0
ENDCHAR
STARTCHAR 0033
ENCODING 51
SWIDTH 576 0
DWIDTH 12 0
BBX 12 15 0 0
BITMAP
7FE0
7FE0
7FE0
03C0
0780
0F00
0F80
0FE0
03E0
00F0
00F0
40E0
FFE0
FFC0
3F80
ENDCHAR
STARTCHAR 0034
ENCODING 52
SWIDTH 672 0
DWIDTH 14 0
BBX 13 15 1 0
BITMAP
03C0
0780
0700
0F00
1E00
1C00
38E0
78E0
F0E0
FFF8
FFF8
FFF8
01E0
01E0
01E0
ENDCHAR
STARTCHAR 0035
ENCODING 53
SWIDTH 576 0
DWIDTH 12 0
BBX 12 15 0 0
BITMAP
3FE0
3FE0
3FE0
3800
3800
3F00
7FC0
7FE0
00F0
00F0
00F0
60F0
7FE0
FFC0
3F80
ENDCHAR
STARTCHAR 0036
ENCODING 54
SWIDTH 624 0
DWIDTH 13 0
BBX 12 15 1 0
BITMAP
0FC0
3FE0
7FE0
7800
F000
E200
EFC0
FFE0
F0F0
F0F0
F070
70F0
7FE0
3FC0
0F80
ENDCHAR
STARTCHAR 0037
ENCODING 55
SWIDTH 624 0
DWIDTH 13 0
BBX 11 15 1 0
BITMAP
FFE0
FFE0
FFE0
E1E0
E1C0
03C0
0380
0780
0780
0F00
0F00
0E00
1E00
1C00
3C00
ENDCHAR
STARTCHAR 0038
ENCODING 56
SWIDTH 672 0
DWIDTH 14 0
BBX 12 15 1 0
BITMAP
1F80
7FC0
7FE0
F0E0
F0E0
70E0
7FE0
7FC0
F9E0
E0F0
E070
E0F0
FBF0
7FE0
1F80
ENDCHAR
STARTCHAR 0039
ENCODING 57
SWIDTH 624 0
DWIDTH 13 0
BBX 12 15 0 0
BITMAP
1F80
3FC0
7FE0
70F0
F070
F070
78F0
7FF0
3FF0
0470
00F0
00F0
3FE0
7FC0
3F00
ENDCHAR
STARTCHAR 003A
ENCODING 58
SWIDTH 240 0
DWIDTH 5 0
BBX 4 11 1 0
BITMAP
E0
F0
F0
E0
00
00
00
E0
F0
F0
E0
ENDCHAR
STARTCHAR 003B
ENCODING 59
SWIDTH 240 0
DWIDTH 5 0
BBX 4 15 1 -4
BITMAP
E0
F0
F0
E0
00
00
00
00
F0
F0
F0
60
E0
C0
C0
ENDCHAR
STARTCHAR 003C
ENCODING 60
SWIDTH 576 0
DWIDTH 12 0
BBX 10 10 1 2
BITMAP
00C0
03C0
1FC0
FE00
F000
F800
7F00
0FC0
03C0
0040
ENDCHAR
STARTCHAR 003D
ENCODING 61
SWIDTH 576 0
DWIDTH 12 0
BBX 10 8 1 3
BITMAP
FFC0
FFC0
FFC0
0000
0000
FFC0
FFC0
FFC0
ENDCHAR
STARTCHAR 003E
ENCODING 62
SWIDTH 576 0
DWIDTH 12 0
BBX 10 10 1 2
BITMAP
C000
F800
7E00
1FC0
03C0
03C0
1FC0
FE00
F000
C000
ENDCHAR
STARTCHAR 003F
ENCODING 63
SWIDTH 576 0
DWIDTH 12 0
BBX 11 15 0 0
BITMAP
1F80
7FC0
FFE0
61E0
00E0
01E0
03C0
0780
0700
0700
0000
0600
0F00
0F00
0600
ENDCHAR
STARTCHAR 0040
ENCODING 64
SWIDTH 1056 0
DWIDTH 22 0
BBX 20 19 1 -4
BITMAP
03F800
0FFF00
1E0780
3801C0
7000C0
63FE60
E7FE60
C71E70
CE0E30
CE0E30
CE0E30
CF0E60
E79E60
63F7E0
71E380
380000
1E0400
0FFC00
03F800
ENDCHAR
STARTCHAR 0041
ENCODING 65
SWIDTH 768 0
DWIDTH 16 0
BBX 16 15 0 0
BITMAP
03C0
03C0
07E0
07E0
0EF0
0E70
1E70
1C38
1C38
3FFC
3FFC
7FFE
700E
F00F
E00F
ENDCHAR
STARTCHAR 0042
ENCODING 66
SWIDTH 768 0
DWIDTH 16 0
BBX 13 15 2 0
BITMAP
FFC0
FFE0
FFF0
E070
E070
E0F0
FFE0
FFE0
E0F0
E078
E038
E078
FFF8
FFF0
FFE0
ENDCHAR
STARTCHAR 0043
ENCODING 67
SWIDTH 720 0
DWIDTH 15 0
BBX 14 15 1 0
BITMAP
07E0
1FF0
3FF8
7838
F010
F000
E000
E000
E000
F000
F010
7838
3FFC
1FF8
07E0
ENDCHAR
STARTCHAR 0044
ENCODING 68
SWIDTH 816 0
DWIDTH 17 0
BBX 14 15 2 0
BITMAP
FFC0
FFF0
FFF8
E078
E03C
E01C
E01C
E01C
E01C
E01C
E03C
E078
FFF8
FFF0
FFC0
ENDCHAR
STARTCHAR 0045
ENCODING 69
SWIDTH 672 0
DWIDTH 14 0
BBX 11 15 2 0
BITMAP
FFE0
FFE0
FFE0
E000
E000
E000
FFC0
FFC0
FFC0
E000
E000
E000
FFE0
FFE0
FFE0
ENDCHAR
STARTCHAR 0046
ENCODING 70
SWIDTH 624 0
DWIDTH 13 0
BBX 11 15 2 0
BITMAP
FFE0
FFE0
FFE0
E000
E000
E000
E000
FFC0
FFC0
FFC0
E000
E000
E000
E000
E000
ENDCHAR
STARTCHAR 0047
ENCODING 71
SWIDTH 768 0
DWIDTH 16 0
BBX 14 15 1 0
BITMAP
07E0
1FF8
3FFC
7838
F000
F000
E000
E01C
E01C
F01C
F01C
781C
3FFC
1FF8
07E0
ENDCHAR
STARTCHAR 0048
ENCODING 72
SWIDTH 816 0
DWIDTH 17 0
BBX 13 15 2 0
BITMAP
E038
E038
E038
E038
E038
E038
FFF8
FFF8
FFF8
E038
E038
E038
E038
E038
E038
ENDCHAR
STARTCHAR 0049
ENCODING 73
SWIDTH 336 0
DWIDTH 7 0
BBX 3 15 2 0
BITMAP
E0
E0
E0
E0
E0
E0
E0
E0
E0
E0
E0
E0
E0
E0
E0
ENDCHAR
STARTCHAR 004A
ENCODING 74
SWIDTH 528 0
DWIDTH 11 0
BBX 10 15 0 0
BITMAP
7FC0
7FC0
7FC0
03C0
03C0
03C0
03C0
03C0
03C0
03C0
03C0
4380
FF80
FF00
3E00
ENDCHAR
STARTCHAR 004B
ENCODING 75
SWIDTH 720 0
DWIDTH 15 0
BBX 13 15 2 0
BITMAP
E078
E0F0
E1E0
E3C0
E780
EF00
EE00
FF00
FF80
FF80
F3C0
E1E0
E0F0
E070
E078
ENDCHAR
STARTCHAR 004C
ENCODING 76
SWIDTH 624 0
DWIDTH 13 0
BBX 10 15 2 0
BITMAP
E000
E000
E000
E000
E000
E000
E000
E000
E000
E000
E000
E000
FFC0
FFC0
FFC0
ENDCHAR
STARTCHAR 004D
ENCODING 77
SWIDTH 960 0
DWIDTH 20 0
BBX 16 15 2 0
BITMAP
E007
E00F
F00F
F81F
F81F
FC3F
FC3F
EE77
EEF7
E7E7
E7C7
E3C7
E187
E007
E007
ENDCHAR
STARTCHAR 004E
ENCODING 78
SWIDTH 816 0
DWIDTH 17 0
BBX 13 15 2 0
BITMAP
E038
F038
F838
F838
FC38
FE38
EF38
EF38
E7B8
E3F8
E1F8
E0F8
E0F8
E078
E038
ENDCHAR
STARTCHAR 004F
ENCODING 79
SWIDTH 864 0
DWIDTH 18 0
BBX 16 15 1 0
BITMAP
07E0
1FF8
3FFC
783E
F01E
F00F
E00F
E00F
E00F
F00F
F01E
783E
3FFC
1FF8
07E0
ENDCHAR
STARTCHAR 0050
ENCODING 80
SWIDTH 720 0
DWIDTH 15 0
BBX 12 15 2 0
BITMAP
FF80
FFE0
FFF0
E0F0
E070
E070
E070
E0F0
FFE0
FFC0
FF00
E000
E000
E000
E000
ENDCHAR
STARTCHAR 0051
ENCODING 81
SWIDTH 864 0
DWIDTH 18 0
BBX 16 18 1 -3
BITMAP
07E0
1FF8
3FFC
783E
F01E
F00E
E00F
E00F
E00F
F00F
F00E
781E
7FFC
3FF8
0FF0
01E2
00FF
007F
ENDCHAR
STARTCHAR 0052
ENCODING 82
SWIDTH 720 0
DWIDTH 15 0
BBX 12 15 2 0
BITMAP
FF80
FFE0
FFF0
E0F0
E070
E070
E070
E0F0
FFE0
FFC0
FFC0
E1C0
E1E0
E0F0
E070
ENDCHAR
STARTCHAR 0053
ENCODING 83
SWIDTH 624 0
DWIDTH 13 0
BBX 12 15 1 0
BITMAP
1F80
7FE0
FFE0
F040
E000
F000
FE00
7FC0
1FE0
01F0
00F0
C0F0
FFE0
FFC0
3F80
ENDCHAR
STARTCHAR 0054
ENCODING 84
SWIDTH 624 0
DWIDTH 13 0
BBX 13 15 0 0
BITMAP
FFF8
FFF8
FFF8
0700
0700
0700
0700
0700
0700
0700
0700
0700
0700
0700
0700
ENDCHAR
STARTCHAR 0055
ENCODING 85
SWIDTH 768 0
DWIDTH 16 0
BBX 13 15 2 0
BITMAP
E078
E078
E078
E078
E078
E078
E078
E078
E078
E078
E078
F0F0
7FF0
3FE0
1F80
ENDCHAR
STARTCHAR 0056
ENCODING 86
SWIDTH 768 0
DWIDTH 16 0
BBX 16 15 0 0
BITMAP
F00F
F00E
701E
781C
381C
3C38
1C38
1E78
1E70
0EF0
0FE0
07E0
07C0
07C0
03C0
ENDCHAR
STARTCHAR 0057
ENCODING 87
SWIDTH 1152 0
DWIDTH 24 0
BBX 23 15 1 0
BITMAP
E0381E
E0781C
F07C1C
707C3C
70FC38
78FE38
38EE78
39CE70
3DCE70
3DC770
1F87E0
1F87E0
1F83E0
0F03C0
0F03C0
ENDCHAR
STARTCHAR 0058
ENCODING 88
SWIDTH 720 0
DWIDTH 15 0
BBX 14 15 0 0
BITMAP
783C
7838
3C78
1EF0
1EE0
0FE0
07C0
07C0
07C0
0FE0
1EF0
1C70
3C78
783C
F01C
ENDCHAR
STARTCHAR 0059
ENCODING 89
SWIDTH 672 0
DWIDTH 14 0
BBX 14 15 0 0
BITMAP
F01C
703C
7838
3870
3CF0
1CE0
1FE0
0FC0
0780
0780
0780
0780
0780
0780
0780
ENDCHAR
STARTCHAR 005A
ENCODING 90
SWIDTH 672 0
DWIDTH 14 0
BBX 13 15 1 0
BITMAP
FFF0
FFF0
FFF0
01E0
03C0
03C0
0780
0F00
1E00
3C00
3C00
7800
FFF8
FFF8
FFF8
ENDCHAR
STARTCHAR 005B
ENCODING 91
SWIDTH 384 0
DWIDTH 8 0
BBX 5 20 2 -4
BITMAP
F8
F8
F8
E0
E0
E0
E0
E0
E0
E0
E0
E0
E0
E0
E0
E0
E0
F8
F8
F8
ENDCHAR
STARTCHAR 005C
ENCODING 92
SWIDTH 384 0
DWIDTH 8 0
BBX 10 20 -1 -2
BITMAP
E000
E000
7000
7000
3000
3800
3800
1800
1C00
1C00
0E00
0E00
0E00
0700
0700
0700
0380
0380
0380
01C0
ENDCHAR
STARTCHAR 005D
ENCODING 93
SWIDTH 384 0
DWIDTH 8 0
BBX 6 20 0 -4
BITMAP
FC
FC
FC
1C
1C
1C
1C
1C
1C
1C
1C
1C
1C
1C
1C
1C
1C
FC
FC
FC
ENDCHAR
STARTCHAR 005E
ENCODING 94
SWIDTH 624 0
DWIDTH 13 0
BBX 10 9 1 3
BITMAP
0E00
1E00
1E00
1B00
3B00
3380
7180
61C0
E0C0
ENDCHAR
STARTCHAR 005F
ENCODING 95
SWIDTH 480 0
DWIDTH 10 0
BBX 10 2 0 -2
BITMAP
FFC0
FFC0
ENDCHAR
STARTCHAR 0060
ENCODING 96
SWIDTH 624 0
DWIDTH 13 0
BBX 6 3 2 13
BITMAP
F0
38
1C
ENDCHAR
STARTCHAR 0061
ENCODING 97
SWIDTH 624 0
DWIDTH 13 0
BBX 10 11 1 0
BITMAP
3F00
FF80
7FC0
01C0
3FC0
FFC0
E1C0
E1C0
F3C0
FFC0
3DC0
ENDCHAR
STARTCHAR 0062
ENCODING 98
SWIDTH 672 0
DWIDTH 14 0
BBX 13 16 1 0
BITMAP
F000
F000
F000
F000
F000
F7C0
FFE0
FFF0
F070
F078
F078
F078
F070
FFF0
FFE0
F7C0
ENDCHAR
STARTCHAR 0063
ENCODING 99
SWIDTH 576 0
DWIDTH 12 0
BBX 11 11 1 0
BITMAP
1F80
3FC0
7FE0
F0C0
E000
E000
E000
F0C0
7FE0
3FC0
1F80
ENDCHAR
STARTCHAR 0064
ENCODING 100
SWIDTH 672 0
DWIDTH 14 0
BBX 12 16 1 0
BITMAP
0070
0070
0070
0070
0070
1F70
7FF0
7FF0
F0F0
E070
E070
E070
F0F0
7FF0
7FF0
1F70
ENDCHAR
STARTCHAR 0065
ENCODING 101
SWIDTH 624 0
DWIDTH 13 0
BBX 11 11 1 0
BITMAP
1F00
7FC0
7BE0
E0E0
FFE0
FFE0
E000
F000
7FC0
3FC0
1F80
ENDCHAR
STARTCHAR 0066
ENCODING 102
SWIDTH 384 0
DWIDTH 8 0
BBX 9 16 0 0
BITMAP
0F80
1F00
3F00
3800
3800
FF00
FF00
3F00
3800
3800
3800
3800
3800
3800
3800
3800
ENDCHAR
STARTCHAR 0067
ENCODING 103
SWIDTH 720 0
DWIDTH 15 0
BBX 12 15 1 -4
BITMAP
1F70
7FF0
FFF0
F0F0
E070
E070
E070
F0F0
7FF0
3FF0
0E70
40F0
7FE0
FFE0
3F80
ENDCHAR
STARTCHAR 0068
ENCODING 104
SWIDTH 672 0
DWIDTH 14 0
BBX 12 16 1 0
BITMAP
F000
F000
F000
F000
F000
F7C0
FFE0
FFF0
F8F0
F070
F070
F070
F070
F070
F070
F070
ENDCHAR
STARTCHAR 0069
ENCODING 105
SWIDTH 288 0
DWIDTH 6 0
BBX 4 16 1 0
BITMAP
70
F0
F0
60
00
F0
F0
F0
F0
F0
F0
F0
F0
F0
F0
F0
ENDCHAR
STARTCHAR 006A
ENCODING 106
SWIDTH 288 0
DWIDTH 6 0
BBX 7 20 -2 -4
BITMAP
0E
1E
1E
0C
00
0E
0E
0E
0E
0E
0E
0E
0E
0E
0E
0E
0E
7E
FC
F8
ENDCHAR
STARTCHAR 006B
ENCODING 107
SWIDTH 672 0
DWIDTH 14 0
BBX 12 16 1 0
BITMAP
F000
F000
F000
F000
F000
F0F0
F1E0
F3C0
F780
FF00
FF00
FF80
F3C0
F1E0
F0F0
F0F0
ENDCHAR
STARTCHAR 006C
ENCODING 108
SWIDTH 288 0
DWIDTH 6 0
BBX 4 16 1 0
BITMAP
F0
F0
F0
F0
F0
F0
F0
F0
F0
F0
F0
F0
F0
F0
F0
F0
ENDCHAR
STARTCHAR 006D
ENCODING 109
SWIDTH 1056 0
DWIDTH 22 0
BBX 19 11 1 0
BITMAP
F78780
FFFFC0
FFFFE0
F0F0E0
F0F0E0
F0F0E0
F0F0E0
F0F0E0
F0F0E0
F0F0E0
F0F0E0
ENDCHAR
STARTCHAR 006E
ENCODING 110
SWIDTH 672 0
DWIDTH 14 0
BBX 12 11 1 0
BITMAP
F7C0
FFE0
FFF0
F0F0
F070
F070
F070
F070
F070
F070
F070
ENDCHAR
STARTCHAR 006F
ENCODING 111
SWIDTH 672 0
DWIDTH 14 0
BBX 12 11 1 0
BITMAP
1F00
3FC0
7FE0
F0F0
E070
E070
E070
F0F0
7FE0
7FC0
1F00
ENDCHAR
STARTCHAR 0070
ENCODING 112
SWIDTH 672 0
DWIDTH 14 0
BBX 13 15 1 -4
BITMAP
F7C0
FFE0
FFF0
F070
F078
F078
F078
F070
FFF0
FFE0
F7C0
F000
F000
F000
F000
ENDCHAR
STARTCHAR 0071
ENCODING 113
SWIDTH 672 0
DWIDTH 14 0
BBX 12 15 1 -4
BITMAP
1F70
7FF0
FFF0
F0F0
E070
E070
E070
F0F0
FFF0
7FF0
1F70
0070
0070
0070
0070
ENDCHAR
STARTCHAR 0072
ENCODING 114
SWIDTH 432 0
DWIDTH 9 0
BBX 7 11 1 0
BITMAP
F6
FE
FE
F8
F0
F0
F0
F0
F0
F0
F0
ENDCHAR
STARTCHAR 0073
ENCODING 115
SWIDTH 528 0
DWIDTH 11 0
BBX 10 11 1 0
BITMAP
3F00
FF80
F700
E000
F000
FF00
3F80
03C0
F780
FF80
7E00
ENDCHAR
STARTCHAR 0074
ENCODING 116
SWIDTH 432 0
DWIDTH 9 0
BBX 8 14 0 0
BITMAP
38
38
38
FF
FF
3F
38
38
38
38
38
3F
1F
0F
ENDCHAR
STARTCHAR 0075
ENCODING 117
SWIDTH 672 0
DWIDTH 14 0
BBX 12 11 1 0
BITMAP
F070
F070
F070
F070
F070
F070
F0F0
70F0
7FF0
7FF0
1E70
ENDCHAR
STARTCHAR 0076
ENCODING 118
SWIDTH 576 0
DWIDTH 12 0
BBX 12 11 0 0
BITMAP
E070
F070
70F0
78E0
38E0
39C0
1DC0
1F80
1F80
0F80
0F00
ENDCHAR
STARTCHAR 0077
ENCODING 119
SWIDTH 960 0
DWIDTH 20 0
BBX 19 11 0 0
BITMAP
E0E0E0
70F0E0
70F0E0
71F1C0
39F9C0
3BB980
3B9F80
1F9F80
1F1F00
1F0F00
0E0F00
ENDCHAR
STARTCHAR 0078
ENCODING 120
SWIDTH 576 0
DWIDTH 12 0
BBX 12 11 0 0
BITMAP
70F0
78E0
3DC0
1F80
0F80
0F00
0F80
1FC0
3DC0
78E0
F0F0
ENDCHAR
STARTCHAR 0079
ENCODING 121
SWIDTH 576 0
DWIDTH 12 0
BBX 12 15 0 -4
BITMAP
E070
F070
70F0
78E0
38E0
3DC0
1DC0
1F80
0F80
0F00
0F00
0F00
7E00
FC00
7800
ENDCHAR
STARTCHAR 007A
ENCODING 122
SWIDTH 528 0
DWIDTH 11 0
BBX 10 11 1 0
BITMAP
FFC0
FFC0
0780
0700
0E00
1C00
3C00
7800
F000
FFC0
FFC0
ENDCHAR
STARTCHAR 007B
ENCODING 123
SWIDTH 384 0
DWIDTH 8 0
BBX 7 20 1 -4
BITMAP
1E
3E
3E
38
38
38
38
38
F8
F0
F8
38
38
38
38
38
38
3E
3E
1E
ENDCHAR
STARTCHAR 007C
ENCODING 124
SWIDTH 288 0
DWIDTH 6 0
BBX 3 20 2 -4
BITMAP
E0
E0
E0
E0
E0
E0
E0
E0
E0
E0
E0
E0
E0
E0
E0
E0
E0
E0
E0
E0
ENDCHAR
STARTCHAR 007D
ENCODING 125
SWIDTH 384 0
DWIDTH 8 0
BBX 7 20 0 -4
BITMAP
F0
F8
F8
38
38
38
38
38
3E
1E
1E
3C
38
38
38
38
38
F8
F8
F0
ENDCHAR
STARTCHAR 007E
ENCODING 126
SWIDTH 576 0
DWIDTH 12 0
BBX 10 4 1 5
BITMAP
78C0
FEC0
CFC0
C380
ENDCHAR
STARTCHAR 00A0
ENCODING 160
SWIDTH 288 0
DWIDTH 6 0
BBX 0 0 0 0
BITMAP
ENDCHAR
STARTCHAR 00A1
ENCODING 161
SWIDTH 288 0
DWIDTH 6 0
BBX 4 15 1 -4
BITMAP
60
F0
F0
60
00
60
60
60
F0
F0
F0
F0
F0
F0
F0
ENDCHAR
STARTCHAR 00A2
ENCODING 162
SWIDTH 576 0
DWIDTH 12 0
BBX 11 16 1 -2
BITMAP
0600
0600
0600
3F80
7FC0
FFE0
E680
E600
E600
E600
F680
7FE0
7FC0
1F80
0600
0600
ENDCHAR
STARTCHAR 00A3
ENCODING 163
SWIDTH 672 0
DWIDTH 14 0
BBX 12 15 1 0
BITMAP
07F0
0FF0
1FF0
3C10
3800
3800
3800
FFC0
FFC0
3800
3800
3800
FFF0
FFF0
FFF0
ENDCHAR
STARTCHAR 00A4
ENCODING 164
SWIDTH 720 0
DWIDTH 15 0
BBX 13 13 1 0
BITMAP
4010
E738
FFF0
7FE0
70E0
6070
6070
7070
78E0
7FE0
FFF0
E638
4010
ENDCHAR
STARTCHAR 00A5
ENCODING 165
SWIDTH 720 0
DWIDTH 15 0
BBX 15 15 0 0
BITMAP
F00E
701E
781C
3C38
1C78
1E70
0FE0
07E0
3FF8
3FF8
0380
3FF8
3FF8
0380
0380
ENDCHAR
STARTCHAR 00A6
ENCODING 166
SWIDTH 288 0
DWIDTH 6 0
BBX 3 20 2 -4
BITMAP
E0
E0
E0
E0
E0
E0
E0
00
00
00
00
00
00
E0
E0
E0
E0
E0
E0
E0
ENDCHAR
STARTCHAR 00A7
ENCODING 167
SWIDTH 528 0
DWIDTH 11 0
BBX 9 17 1 -2
BITMAP
3F00
7F80
F380
E000
F000
7E00
FF80
E780
C380
E380
FF80
3F00
0780
0380
E780
FF00
7E00
ENDCHAR
STARTCHAR 00A8
ENCODING 168
SWIDTH 624 0
DWIDTH 13 0
BBX 7 3 3 13
BITMAP
CC
EE
CC
ENDCHAR
STARTCHAR 00A9
ENCODING 169
SWIDTH 768 0
DWIDTH 16 0
BBX 15 15 1 0
BITMAP
07C0
1CE0
3030
6018
47CC
CFE4
9C44
9806
9804
9C44
CFE4
47CC
6018
1C70
0FC0
ENDCHAR
STARTCHAR 00AA
ENCODING 170
SWIDTH 432 0
DWIDTH 9 0
BBX 7 7 1 9
BITMAP
F8
FC
0C
FE
CE
CE
FE
ENDCHAR
STARTCHAR 00AB
ENCODING 171
SWIDTH 576 0
DWIDTH 12 0
BBX 10 8 1 2
BITMAP
39C0
3B80
7380
E700
E700
7700
7380
39C0
ENDCHAR
STARTCHAR 00AC
ENCODING 172
SWIDTH 576 0
DWIDTH 12 0
BBX 10 7 1 2
BITMAP
FFC0
FFC0
FFC0
00C0
00C0
00C0
00C0
ENDCHAR
STARTCHAR 00AD
ENCODING 173
SWIDTH 384 0
DWIDTH 8 0
BBX 6 3 1 4
BITMAP
FC
FC
FC
ENDCHAR
STARTCHAR 00AE
ENCODING 174
SWIDTH 768 0
DWIDTH 16 0
BBX 15 15 1 0
BITMAP
07C0
1CE0
3030
6008
4FCC
CFE4
8C64
8C66
8FC4
8FC4
CCCC
4C6C
6018
1C70
0FC0
ENDCHAR
STARTCHAR 00AF
ENCODING 175
SWIDTH 624 0
DWIDTH 13 0
BBX 8 2 2 13
BITMAP
FF
FF
ENDCHAR
STARTCHAR 00B0
ENCODING 176
SWIDTH 432 0
DWIDTH 9 0
BBX 7 7 1 8
BITMAP
78
FC
C6
86
C6
FC
78
ENDCHAR
STARTCHAR 00B1
ENCODING 177
SWIDTH 576 0
DWIDTH 12 0
BBX 10 13 1 0
BITMAP
0E00
0E00
0E00
FFC0
FFC0
0E00
0E00
0E00
0E00
0000
FFC0
FFC0
FFC0
ENDCHAR
STARTCHAR 00B2
ENCODING 178
SWIDTH 432 0
DWIDTH 9 0
BBX 7 9 1 7
BITMAP
78
FC
0E
0E
1C
38
70
FE
FE
ENDCHAR
STARTCHAR 00B3
ENCODING 179
SWIDTH 432 0
DWIDTH 9 0
BBX 7 9 1 7
BITMAP
FE
FE
1C
38
3C
0E
06
FE
FC
ENDCHAR
STARTCHAR 00B4
ENCODING 180
SWIDTH 624 0
DWIDTH 13 0
BBX 5 3 5 13
BITMAP
38
70
E0
ENDCHAR
STARTCHAR 00B5
ENCODING 181
SWIDTH 672 0
DWIDTH 14 0
BBX 12 15 1 -4
BITMAP
F070
F070
F070
F070
F070
F070
F0F0
F0F0
FFF0
FFF0
FF70
F000
F000
F000
F000
ENDCHAR
STARTCHAR 00B6
ENCODING 182
SWIDTH 672 0
DWIDTH 14 0
BBX 13 18 0 -2
BITMAP
1FF8
7FF8
7E38
FE38
FE38
7E38
7E38
3E38
0638
0638
0638
0638
0638
0638
0638
0638
0638
0638
ENDCHAR
STARTCHAR 00B7
ENCODING 183
SWIDTH 288 0
DWIDTH 6 0
BBX 4 4 1 4
BITMAP
70
F0
F0
70
ENDCHAR
STARTCHAR 00B8
ENCODING 184
SWIDTH 624 0
DWIDTH 13 0
BBX 5 5 4 -5
BITMAP
60
70
18
F0
40
ENDCHAR
STARTCHAR 00B9
ENCODING 185
SWIDTH 432 0
DWIDTH 9 0
BBX 6 9 2 7
BITMAP
F0
F0
30
30
30
30
30
FC
FC
ENDCHAR
STARTCHAR 00BA
ENCODING 186
SWIDTH 432 0
DWIDTH 9 0
BBX 8 7 0 9
BITMAP
3E
7F
63
E3
63
7F
3E
ENDCHAR
STARTCHAR 00BB
ENCODING 187
SWIDTH 576 0
DWIDTH 12 0
BBX 10 8 1 2
BITMAP
E600
6700
7380
39C0
39C0
7380
7700
E700
ENDCHAR
STARTCHAR 00BC
ENCODING 188
SWIDTH 1056 0
DWIDTH 22 0
BBX 19 15 2 0
BITMAP
F00E00
F00C00
301800
303800
303000
306000
30E180
FCC380
FD8700
038600
030CC0
061FE0
0E1FE0
0C00C0
1800C0
ENDCHAR
STARTCHAR 00BD
ENCODING 189
SWIDTH 1056 0
DWIDTH 22 0
BBX 19 15 2 0
BITMAP
F00E00
F00C00
301800
303800
303000
306000
30E780
FCDFC0
FD88E0
0380C0
0301C0
060380
0E0700
0C0FE0
180FE0
ENDCHAR
STARTCHAR 00BE
ENCODING 190
SWIDTH 1056 0
DWIDTH 22 0
BBX 20 15 1 0
BITMAP
FE0700
FE0600
1C0C00
381C00
3E1800
063000
8670C0
FE6180
FCC380
01C300
018660
030FF0
070FF0
060060
0C0060
ENDCHAR
STARTCHAR 00BF
ENCODING 191
SWIDTH 576 0
DWIDTH 12 0
BBX 11 15 1 -4
BITMAP
0E00
1E00
1E00
0C00
0000
0E00
1C00
3C00
7800
F000
E000
F0C0
FFE0
7FC0
1E00
ENDCHAR
STARTCHAR 00C0
ENCODING 192
SWIDTH 768 0
DWIDTH 16 0
BBX 16 19 0 0
BITMAP
0F00
0700
0180
0000
03C0
03C0
07E0
07E0
0EF0
0E70
1E70
1C38
1C38
3FFC
3FFC
7FFE
700E
F00F
E00F
ENDCHAR
STARTCHAR 00C1
ENCODING 193
SWIDTH 768 0
DWIDTH 16 0
BBX 16 19 0 0
BITMAP
00F0
01C0
0180
0000
03C0
03C0
07E0
07E0
0EF0
0E70
1E70
1C38
1C38
3FFC
3FFC
7FFE
700E
F00F
E00F
ENDCHAR
STARTCHAR 00C2
ENCODING 194
SWIDTH 768 0
DWIDTH 16 0
BBX 16 19 0 0
BITMAP
03C0
07E0
0E70
0000
03C0
03C0
07E0
07E0
0EF0
0E70
1E70
1C38
1C38
3FFC
3FFC
7FFE
700E
F00F
E00F
ENDCHAR
STARTCHAR 00C3
ENCODING 195
SWIDTH 768 0
DWIDTH 16 0
BBX 16 19 0 0
BITMAP
0730
0FF0
0CE0
0000
03C0
03C0
07E0
07E0
0EF0
0E70
1E70
1C38
1C38
3FFC
3FFC
7FFE
700E
F00F
E00F
ENDCHAR
STARTCHAR 00C4
ENCODING 196
SWIDTH 768 0
DWIDTH 16 0
BBX 16 19 0 0
BITMAP
0660
0E70
0660
0000
03C0
03C0
07E0
07E0
0EF0
0E70
1E70
1C38
1C38
3FFC
3FFC
7FFE
700E
F00F
E00F
ENDCHAR
STARTCHAR 00C5
ENCODING 197
SWIDTH 768 0
DWIDTH 16 0
BBX 16 21 0 0
BITMAP
03C0
0240
0660
0240
03C0
0000
03C0
03C0
07E0
07E0
0EF0
0E70
1E70
1C38
1C38
3FFC
3FFC
7FFE
700E
F00F
E00F
ENDCHAR
STARTCHAR 00C6
ENCODING 198
SWIDTH 1104 0
DWIDTH 23 0
BBX 22 15 0 0
BITMAP
00FFF8
01FFF8
01FFF8
03BC00
03BC00
073C00
0F3FF0
0E3FF0
1E3FF0
1FFC00
3FFC00
3FFC00
783FFC
703FFC
F03FFC
ENDCHAR
STARTCHAR 00C7
ENCODING 199
SWIDTH 720 0
DWIDTH 15 0
BBX 14 20 1 -5
BITMAP
07E0
1FF0
3FF8
7838
F010
F000
E000
E000
E000
F000
F010
7838
3FFC
1FF8
0FE0
0300
0380
00C0
0780
0200
ENDCHAR
STARTCHAR 00C8
ENCODING 200
SWIDTH 672 0
DWIDTH 14 0
BBX 11 19 2 0
BITMAP
7800
1C00
0E00
0000
FFE0
FFE0
FFE0
E000
E000
E000
FFC0
FFC0
FFC0
E000
E000
E000
FFE0
FFE0
FFE0
ENDCHAR
STARTCHAR 00C9
ENCODING 201
SWIDTH 672 0
DWIDTH 14 0
BBX 11 19 2 0
BITMAP
0380
0700
0E00
0000
FFE0
FFE0
FFE0
E000
E000
E000
FFC0
FFC0
FFC0
E000
E000
E000
FFE0
FFE0
FFE0
ENDCHAR
STARTCHAR 00CA
ENCODING 202
SWIDTH 672 0
DWIDTH 14 0
BBX 11 19 2 0
BITMAP
1E00
3F00
3380
0000
FFE0
FFE0
FFE0
E000
E000
E000
FFC0
FFC0
FFC0
E000
E000
E000
FFE0
FFE0
FFE0
ENDCHAR
STARTCHAR 00CB
ENCODING 203
SWIDTH 672 0
DWIDTH 14 0
BBX 11 19 2 0
BITMAP
3300
3B80
3300
0000
FFE0
FFE0
FFE0
E000
E000
E000
FFC0
FFC0
FFC0
E000
E000
E000
FFE0
FFE0
FFE0
ENDCHAR
STARTCHAR 00CC
ENCODING 204
SWIDTH 336 0
DWIDTH 7 0
BBX 5 19 0 0
BITMAP
E0
70
38
00
38
38
38
38
38
38
38
38
38
38
38
38
38
38
38
ENDCHAR
STARTCHAR 00CD
ENCODING 205
SWIDTH 336 0
DWIDTH 7 0
BBX 5 19 2 0
BITMAP
38
70
E0
00
E0
E0
E0
E0
E0
E0
E0
E0
E0
E0
E0
E0
E0
E0
E0
ENDCHAR
STARTCHAR 00CE
ENCODING 206
SWIDTH 336 0
DWIDTH 7 0
BBX 7 19 0 0
BITMAP
38
7C
C6
00
38
38
38
38
38
38
38
38
38
38
38
38
38
38
38
ENDCHAR
STARTCHAR 00CF
ENCODING 207
SWIDTH 336 0
DWIDTH 7 0
BBX 7 19 0 0
BITMAP
CE
EE
C6
00
38
38
38
38
38
38
38
38
38
38
38
38
38
38
38
ENDCHAR
STARTCHAR 00D0
ENCODING 208
SWIDTH 816 0
DWIDTH 17 0
BBX 17 15 0 0
BITMAP
3FF000
3FFC00
3FFE00
381F00
380F00
380700
FF8780
FF8780
380780
380700
380F00
381F00
3FFE00
3FFC00
3FF000
ENDCHAR
STARTCHAR 00D1
ENCODING 209
SWIDTH 816 0
DWIDTH 17 0
BBX 13 19 2 0
BITMAP
1C40
1FC0
3180
0000
E038
F038
F838
F838
FC38
FE38
EF38
EF38
E7B8
E3F8
E1F8
E0F8
E0F8
E078
E038
ENDCHAR
STARTCHAR 00D2
ENCODING 210
SWIDTH 864 0
DWIDTH 18 0
BBX 16 19 1 0
BITMAP
0E00
0700
0180
0000
07E0
1FF8
3FFC
783E
F01E
F00F
E00F
E00F
E00F
F00F
F01E
783E
3FFC
1FF8
07E0
ENDCHAR
STARTCHAR 00D3
ENCODING 211
SWIDTH 864 0
DWIDTH 18 0
BBX 16 19 1 0
BITMAP
00F0
01C0
0380
0000
07E0
1FF8
3FFC
783E
F01E
F00F
E00F
E00F
E00F
F00F
F01E
783E
3FFC
1FF8
07E0
ENDCHAR
STARTCHAR 00D4
ENCODING 212
SWIDTH 864 0
DWIDTH 18 0
BBX 16 19 1 0
BITMAP
03C0
07E0
0E70
0000
07E0
1FF8
3FFC
783E
F01E
F00F
E00F
E00F
E00F
F00F
F01E
783E
3FFC
1FF8
07E0
ENDCHAR
STARTCHAR 00D5
ENCODING 213
SWIDTH 864 0
DWIDTH 18 0
BBX 16 19 1 0
BITMAP
0730
0FE0
0CE0
0000
07E0
1FF8
3FFC
783E
F01E
F00F
E00F
E00F
E00F
F00F
F01E
783E
3FFC
1FF8
07E0
ENDCHAR
STARTCHAR 00D6
ENCODING 214
SWIDTH 864 0
DWIDTH 18 0
BBX 16 19 1 0
BITMAP
0660
0EE0
0660
0000
07E0
1FF8
3FFC
783E
F01E
F00F
E00F
E00F
E00F
F00F
F01E
783E
3FFC
1FF8
07E0
ENDCHAR
STARTCHAR 00D7
ENCODING 215
SWIDTH 576 0
DWIDTH 12 0
BBX 8 9 2 3
BITMAP
40
E3
F7
7E
3C
3E
7F
E7
42
ENDCHAR
STARTCHAR 00D8
ENCODING 216
SWIDTH 864 0
DWIDTH 18 0
BBX 16 17 1 -1
BITMAP
000E
07EC
1FF8
3FFC
783E
F07E
F0CF
E1CF
E18F
E30F
F60F
F61E
7C3E
3FFC
3FF8
37E0
6000
ENDCHAR
STARTCHAR 00D9
ENCODING 217
SWIDTH 768 0
DWIDTH 16 0
BBX 13 19 2 0
BITMAP
3C00
0E00
0700
0000
E078
E078
E078
E078
E078
E078
E078
E078
E078
E078
E078
F0F0
7FF0
3FE0
1F80
ENDCHAR
STARTCHAR 00DA
ENCODING 218
SWIDTH 768 0
DWIDTH 16 0
BBX 13 19 2 0
BITMAP
01C0
0380
0600
0000
E078
E078
E078
E078
E078
E078
E078
E078
E078
E078
E078
F0F0
7FF0
3FE0
1F80
ENDCHAR
STARTCHAR 00DB
ENCODING 219
SWIDTH 768 0
DWIDTH 16 0
BBX 13 19 2 0
BITMAP
0F00
1F80
39C0
0000
E078
E078
E078
E078
E078
E078
E078
E078
E078
E078
E078
F0F0
7FF0
3FE0
1F80
ENDCHAR
STARTCHAR 00DC
ENCODING 220
SWIDTH 768 0
DWIDTH 16 0
BBX 13 19 2 0
BITMAP
1980
1DC0
1980
0000
E078
E078
E078
E078
E078
E078
E078
E078
E078
E078
E078
F0F0
7FF0
3FE0
1F80
ENDCHAR
STARTCHAR 00DD
ENCODING 221
SWIDTH 672 0
DWIDTH 14 0
BBX 14 19 0 0
BITMAP
01E0
01C0
0300
0000
F01C
703C
7838
3870
3CF0
1CE0
1FE0
0FC0
0780
0780
0780
0780
0780
0780
0780
ENDCHAR
STARTCHAR 00DE
ENCODING 222
SWIDTH 720 0
DWIDTH 15 0
BBX 12 15 2 0
BITMAP
E000
FF00
FFC0
FFE0
E1F0
E070
E070
E070
E070
E0F0
FFE0
FFC0
FF00
E000
E000
ENDCHAR
STARTCHAR 00DF
ENCODING 223
SWIDTH 672 0
DWIDTH 14 0
BBX 13 16 1 0
BITMAP
0F80
3FC0
7FE0
70E0
70E0
F0E0
F1E0
F3C0
F3E0
F3F0
F078
F078
F078
F7F0
F7F0
F7C0
ENDCHAR
STARTCHAR 00E0
ENCODING 224
SWIDTH 624 0
DWIDTH 13 0
BBX 10 16 1 0
BITMAP
3800
1C00
0E00
0000
0000
3F00
FF80
7FC0
01C0
3FC0
FFC0
E1C0
E1C0
F3C0
FFC0
3DC0
ENDCHAR
STARTCHAR 00E1
ENCODING 225
SWIDTH 624 0
DWIDTH 13 0
BBX 10 16 1 0
BITMAP
0380
0700
0E00
0000
0000
3F00
FF80
7FC0
01C0
3FC0
FFC0
E1C0
E1C0
F3C0
FFC0
3DC0
ENDCHAR
STARTCHAR 00E2
ENCODING 226
SWIDTH 624 0
DWIDTH 13 0
BBX 10 16 1 0
BITMAP
1E00
1F00
3180
0000
0000
3F00
FF80
7FC0
01C0
3FC0
FFC0
E1C0
E1C0
F3C0
FFC0
3DC0
ENDCHAR
STARTCHAR 00E3
ENCODING 227
SWIDTH 624 0
DWIDTH 13 0
BBX 10 16 1 0
BITMAP
3880
3F80
6700
0000
0000
3F00
FF80
7FC0
01C0
3FC0
FFC0
E1C0
E1C0
F3C0
FFC0
3DC0
ENDCHAR
STARTCHAR 00E4
ENCODING 228
SWIDTH 624 0
DWIDTH 13 0
BBX 10 16 1 0
BITMAP
3380
3B80
3300
0000
0000
3F00
FF80
7FC0
01C0
3FC0
FFC0
E1C0
E1C0
F3C0
FFC0
3DC0
ENDCHAR
STARTCHAR 00E5
ENCODING 229
SWIDTH 624 0
DWIDTH 13 0
BBX 10 17 1 0
BITMAP
0E00
1B00
1100
1B00
0E00
0000
3F00
FF80
7FC0
01C0
3FC0
FFC0
E1C0
E1C0
F3C0
FFC0
3DC0
ENDCHAR
STARTCHAR 00E6
ENCODING 230
SWIDTH 1008 0
DWIDTH 21 0
BBX 19 11 1 0
BITMAP
3F1F00
FFFF80
7FFBC0
01E0E0
3FFFE0
FFFFE0
E1E000
E1E080
E3FFC0
FF7FC0
3E1F00
ENDCHAR
STARTCHAR 00E7
ENCODING 231
SWIDTH 576 0
DWIDTH 12 0
BBX 11 16 1 -5
BITMAP
1F80
3FC0
7FE0
F0C0
E000
E000
E000
F0C0
FFE0
7FC0
1F80
0C00
0E00
0300
1E00
0800
ENDCHAR
STARTCHAR 00E8
ENCODING 232
SWIDTH 624 0
DWIDTH 13 0
BBX 11 16 1 0
BITMAP
3800
1C00
0E00
0000
0000
1F00
7FC0
7BE0
E0E0
FFE0
FFE0
E000
F000
7FC0
3FC0
1F80
ENDCHAR
STARTCHAR 00E9
ENCODING 233
SWIDTH 624 0
DWIDTH 13 0
BBX 11 16 1 0
BITMAP
0380
0700
0E00
0000
0000
1F00
7FC0
7BE0
E0E0
FFE0
FFE0
E000
F000
7FC0
3FC0
1F80
ENDCHAR
STARTCHAR 00EA
ENCODING 234
SWIDTH 624 0
DWIDTH 13 0
BBX 11 16 1 0
BITMAP
0E00
1B00
3180
0000
0000
1F00
7FC0
7BE0
E0E0
FFE0
FFE0
E000
F000
7FC0
3FC0
1F80
ENDCHAR
STARTCHAR 00EB
ENCODING 235
SWIDTH 624 0
DWIDTH 13 0
BBX 11 16 1 0
BITMAP
3980
3B80
3180
0000
0000
1F00
7FC0
7BE0
E0E0
FFE0
FFE0
E000
F000
7FC0
3FC0
1F80
ENDCHAR
STARTCHAR 00EC
ENCODING 236
SWIDTH 288 0
DWIDTH 6 0
BBX 6 16 -1 0
BITMAP
F0
38
1C
00
00
3C
3C
3C
3C
3C
3C
3C
3C
3C
3C
3C
ENDCHAR
STARTCHAR 00ED
ENCODING 237
SWIDTH 288 0
DWIDTH 6 0
BBX 6 16 1 0
BITMAP
1C
38
60
00
00
F0
F0
F0
F0
F0
F0
F0
F0
F0
F0
F0
ENDCHAR
STARTCHAR 00EE
ENCODING 238
SWIDTH 288 0
DWIDTH 6 0
BBX 6 16 0 0
BITMAP
78
7C
CC
00
00
78
78
78
78
78
78
78
78
78
78
78
ENDCHAR
STARTCHAR 00EF
ENCODING 239
SWIDTH 288 0
DWIDTH 6 0
BBX 6 16 0 0
BITMAP
CC
FC
CC
00
00
78
78
78
78
78
78
78
78
78
78
78
ENDCHAR
STARTCHAR 00F0
ENCODING 240
SWIDTH 672 0
DWIDTH 14 0
BBX 12 15 1 0
BITMAP
7F20
7FE0
0FE0
3EE0
30F0
00F0
3F70
7FF0
F1F0
E0F0
E0F0
E0E0
FFE0
7FC0
1F00
ENDCHAR
STARTCHAR 00F1
ENCODING 241
SWIDTH 672 0
DWIDTH 14 0
BBX 12 16 1 0
BITMAP
1CC0
1FC0
3380
0000
0000
F7C0
FFE0
FFF0
F0F0
F070
F070
F070
F070
F070
F070
F070
ENDCHAR
STARTCHAR 00F2
ENCODING 242
SWIDTH 672 0
DWIDTH 14 0
BBX 12 16 1 0
BITMAP
3800
1C00
0600
0000
0000
1F00
3FC0
7FE0
F0F0
E070
E070
E070
F0F0
7FE0
7FC0
1F00
ENDCHAR
STARTCHAR 00F3
ENCODING 243
SWIDTH 672 0
DWIDTH 14 0
BBX 12 16 1 0
BITMAP
03C0
0700
0E00
0000
0000
1F00
3FC0
7FE0
F0F0
E070
E070
E070
F0F0
7FE0
7FC0
1F00
ENDCHAR
STARTCHAR 00F4
ENCODING 244
SWIDTH 672 0
DWIDTH 14 0
BBX 12 16 1 0
BITMAP
0F00
1F80
39C0
0000
0000
1F00
3FC0
7FE0
F0F0
E070
E070
E070
F0F0
7FE0
7FC0
1F00
ENDCHAR
STARTCHAR 00F5
ENCODING 245
SWIDTH 672 0
DWIDTH 14 0
BBX 12 16 1 0
BITMAP
1CC0
3F80
3380
0000
0000
1F00
3FC0
7FE0
F0F0
E070
E070
E070
F0F0
7FE0
7FC0
1F00
ENDCHAR
STARTCHAR 00F6
ENCODING 246
SWIDTH 672 0
DWIDTH 14 0
BBX 12 16 1 0
BITMAP
1980
3B80
1980
0000
0000
1F00
3FC0
7FE0
F0F0
E070
E070
E070
F0F0
7FE0
7FC0
1F00
ENDCHAR
STARTCHAR 00F7
ENCODING 247
SWIDTH 576 0
DWIDTH 12 0
BBX 10 12 1 1
BITMAP
0E00
0E00
0C00
0000
FFC0
FFC0
FFC0
0000
0000
0E00
0E00
0C00
ENDCHAR
STARTCHAR 00F8
ENCODING 248
SWIDTH 672 0
DWIDTH 14 0
BBX 12 14 1 -1
BITMAP
0060
0040
1FC0
3FC0
7FE0
F3F0
E270
E670
EC70
F8F0
7FE0
3FC0
3F00
6000
ENDCHAR
STARTCHAR 00F9
ENCODING 249
SWIDTH 672 0
DWIDTH 14 0
BBX 12 16 1 0
BITMAP
3C00
0E00
0700
0000
0000
F070
F070
F070
F070
F070
F070
F0F0
70F0
7FF0
7FF0
1E70
ENDCHAR
STARTCHAR 00FA
ENCODING 250
SWIDTH 672 0
DWIDTH 14 0
BBX 12 16 1 0
BITMAP
01C0
0380
0600
0000
0000
F070
F070
F070
F070
F070
F070
F0F0
70F0
7FF0
7FF0
1E70
ENDCHAR
STARTCHAR 00FB
ENCODING 251
SWIDTH 672 0
DWIDTH 14 0
BBX 12 16 1 0
BITMAP
0F00
1F80
39C0
0000
0000
F070
F070
F070
F070
F070
F070
F0F0
70F0
7FF0
7FF0
1E70
ENDCHAR
STARTCHAR 00FC
ENCODING 252
SWIDTH 672 0
DWIDTH 14 0
BBX 12 16 1 0
BITMAP
1980
19C0
1980
0000
0000
F070
F070
F070
F070
F070
F070
F0F0
70F0
7FF0
7FF0
1E70
ENDCHAR
STARTCHAR 00FD
ENCODING 253
SWIDTH 576 0
DWIDTH 12 0
BBX 12 20 0 -4
BITMAP
03C0
0780
0600
0000
0000
E070
F070
70F0
78E0
38E0
3DC0
1DC0
1F80
0F80
0F00
0F00
0F00
7E00
FC00
7800
ENDCHAR
STARTCHAR 00FE
ENCODING 254
SWIDTH 672 0
DWIDTH 14 0
BBX 13 20 1 -4
BITMAP
F000
F000
F000
F000
F000
F7C0
FFE0
FFF0
F070
F078
F078
F078
F070
FFF0
FFE0
F7C0
F000
F000
F000
F000
ENDCHAR
STARTCHAR 00FF
ENCODING 255
SWIDTH 576 0
DWIDTH 12 0
BBX 12 20 0 -4
BITMAP
1980
39C0
1980
0000
0000
E070
F070
70F0
78E0
38E0
3DC0
1DC0
1F80
0F80
0F00
0F00
0F00
7E00
FC00
7800
ENDCHAR
STARTCHAR 0100
ENCODING 256
SWIDTH 768 0
DWIDTH 16 0
BBX 16 19 0 0
BITMAP
0FF0
0FF0
0000
0000
03C0
03C0
07E0
07E0
0EF0
0E70
1E70
1C38
1C38
3FFC
3FFC
7FFE
700E
F00F
E00F
ENDCHAR
STARTCHAR 0101
ENCODING 257
SWIDTH 624 0
DWIDTH 13 0
BBX 10 15 1 0
BITMAP
7F80
7F80
0000
0000
3F00
FF80
7FC0
01C0
3FC0
FFC0
E1C0
E1C0
F3C0
FFC0
3DC0
ENDCHAR
STARTCHAR 0102
ENCODING 258
SWIDTH 768 0
DWIDTH 16 0
BBX 16 19 0 0
BITMAP
0C30
07E0
03C0
0000
03C0
03C0
07E0
07E0
0EF0
0E70
1E70
1C38
1C38
3FFC
3FFC
7FFE
700E
F00F
E00F
ENDCHAR
STARTCHAR 0103
ENCODING 259
SWIDTH 624 0
DWIDTH 13 0
BBX 10 16 1 0
BITMAP
3180
3F80
1F00
0000
0000
3F00
FF80
7FC0
01C0
3FC0
FFC0
E1C0
E1C0
F3C0
FFC0
3DC0
ENDCHAR
STARTCHAR 0104
ENCODING 260
SWIDTH 768 0
DWIDTH 16 0
BBX 16 20 0 -5
BITMAP
03C0
03C0
07E0
07E0
0EF0
0E70
1E70
1C38
1C38
3FFC
3FFC
7FFE
700E
F00F
E00F
0006
000C
000C
000F
0006
ENDCHAR
STARTCHAR 0105
ENCODING 261
SWIDTH 624 0
DWIDTH 13 0
BBX 11 16 1 -5
BITMAP
3F00
FF80
7FC0
01C0
3FC0
FFC0
E1C0
E1C0
F3C0
FFC0
3DC0
0180
0300
0300
03E0
0080
ENDCHAR
STARTCHAR 0106
ENCODING 262
SWIDTH 720 0
DWIDTH 15 0
BBX 14 19 1 0
BITMAP
00E0
01C0
0380
0000
07E0
1FF0
3FF8
7838
F010
F000
E000
E000
E000
F000
F010
7838
3FFC
1FF8
07E0
ENDCHAR
STARTCHAR 0107
ENCODING 263
SWIDTH 576 0
DWIDTH 12 0
BBX 11 16 1 0
BITMAP
0380
0700
0E00
0000
0000
1F80
3FC0
7FE0
F0C0
E000
E000
E000
F0C0
7FE0
3FC0
1F80
ENDCHAR
STARTCHAR 0108
ENCODING 264
SWIDTH 720 0
DWIDTH 15 0
BBX 14 19 1 0
BITMAP
0380
07C0
0C60
0000
07E0
1FF0
3FF8
7838
F010
F000
E000
E000
E000
F000
F010
7838
3FFC
1FF8
07E0
ENDCHAR
STARTCHAR 0109
ENCODING 265
SWIDTH 576 0
DWIDTH 12 0
BBX 11 16 1 0
BITMAP
0E00
1B00
3180
0000
0000
1F80
3FC0
7FE0
F0C0
E000
E000
E000
F0C0
7FE0
3FC0
1F80
ENDCHAR
STARTCHAR 010A
ENCODING 266
SWIDTH 720 0
DWIDTH 15 0
BBX 14 20 1 0
BITMAP
0100
0380
0380
0380
0000
07E0
1FF0
3FF8
7838
F010
F000
E000
E000
E000
F000
F010
7838
3FFC
1FF8
07E0
ENDCHAR
STARTCHAR 010B
ENCODING 267
SWIDTH 576 0
DWIDTH 12 0
BBX 11 16 1 0
BITMAP
0E00
0E00
0E00
0400
0000
1F80
3FC0
7FE0
F0C0
E000
E000
E000
F0C0
7FE0
3FC0
1F80
ENDCHAR
STARTCHAR 010C
ENCODING 268
SWIDTH 720 0
DWIDTH 15 0
BBX 14 19 1 0
BITMAP
0C60
07C0
03C0
0000
07E0
1FF0
3FF8
7838
F010
F000
E000
E000
E000
F000
F010
7838
3FFC
1FF8
07E0
ENDCHAR
STARTCHAR 010D
ENCODING 269
SWIDTH 576 0
DWIDTH 12 0
BBX 11 16 1 0
BITMAP
3180
1B00
0E00
0000
0000
1F80
3FC0
7FE0
F0C0
E000
E000
E000
F0C0
7FE0
3FC0
1F80
ENDCHAR
STARTCHAR 010E
ENCODING 270
SWIDTH 816 0
DWIDTH 17 0
BBX 14 19 2 0
BITMAP
3180
1F80
0F00
0000
FFC0
FFF0
FFF8
E078
E03C
E01C
E01C
E01C
E01C
E01C
E03C
E078
FFF8
FFF0
FFC0
ENDCHAR
STARTCHAR 010F
ENCODING 271
SWIDTH 672 0
DWIDTH 14 0
BBX 16 17 1 0
BITMAP
0003
0073
0073
0073
0070
0070
1F70
7FF0
7FF0
F0F0
E070
E070
E070
F0F0
7FF0
7FF0
1F70
ENDCHAR
STARTCHAR 0110
ENCODING 272
SWIDTH 816 0
DWIDTH 17 0
BBX 17 15 0 0
BITMAP
3FF000
3FFC00
3FFE00
381F00
380F00
380700
FF8780
FF8780
380780
380700
380F00
381F00
3FFE00
3FFC00
3FF000
ENDCHAR
STARTCHAR 0111
ENCODING 273
SWIDTH 672 0
DWIDTH 14 0
BBX 13 16 1 0
BITMAP
0070
07F8
07F8
0070
0070
1F70
7FF0
7FF0
F0F0
E070
E070
E070
F0F0
7FF0
7FF0
1F70
ENDCHAR
STARTCHAR 0112
ENCODING 274
SWIDTH 672 0
DWIDTH 14 0
BBX 11 19 2 0
BITMAP
7F80
7F80
0000
0000
FFE0
FFE0
FFE0
E000
E000
E000
FFC0
FFC0
FFC0
E000
E000
E000
FFE0
FFE0
FFE0
ENDCHAR
STARTCHAR 0113
ENCODING 275
SWIDTH 624 0
DWIDTH 13 0
BBX 11 15 1 0
BITMAP
3F80
3F80
0000
0000
1F00
7FC0
7BE0
E0E0
FFE0
FFE0
E000
F000
7FC0
3FC0
1F80
ENDCHAR
STARTCHAR 0114
ENCODING 276
SWIDTH 672 0
DWIDTH 14 0
BBX 11 19 2 0
BITMAP
7180
3F80
1E00
0000
FFE0
FFE0
FFE0
E000
E000
E000
FFC0
FFC0
FFC0
E000
E000
E000
FFE0
FFE0
FFE0
ENDCHAR
STARTCHAR 0115
ENCODING 277
SWIDTH 624 0
DWIDTH 13 0
BBX 11 16 1 0
BITMAP
3180
3F80
1F00
0000
0000
1F00
7FC0
7BE0
E0E0
FFE0
FFE0
E000
F000
7FC0
3FC0
1F80
ENDCHAR
STARTCHAR 0116
ENCODING 278
SWIDTH 672 0
DWIDTH 14 0
BBX 11 20 2 0
BITMAP
0C00
0E00
0E00
0400
0000
FFE0
FFE0
FFE0
E000
E000
E000
FFC0
FFC0
FFC0
E000
E000
E000
FFE0
FFE0
FFE0
ENDCHAR
STARTCHAR 0117
ENCODING 279
SWIDTH 624 0
DWIDTH 13 0
BBX 11 16 1 0
BITMAP
0E00
0E00
0E00
0400
0000
1F00
7FC0
7BE0
E0E0
FFE0
FFE0
E000
F000
7FC0
3FC0
1F80
ENDCHAR
STARTCHAR 0118
ENCODING 280
SWIDTH 672 0
DWIDTH 14 0
BBX 11 20 2 -5
BITMAP
FFE0
FFE0
FFE0
E000
E000
E000
FFC0
FFC0
FFC0
E000
E000
E000
FFE0
FFE0
FFE0
01C0
0180
0180
01E0
00C0
ENDCHAR
STARTCHAR 0119
ENCODING 281
SWIDTH 624 0
DWIDTH 13 0
BBX 11 16 1 -5
BITMAP
1F00
7FC0
7BE0
E0E0
FFE0
FFE0
E000
F000
7FC0
3FC0
1F80
0300
0300
0700
03C0
0180
ENDCHAR
STARTCHAR 011A
ENCODING 282
SWIDTH 672 0
DWIDTH 14 0
BBX 11 19 2 0
BITMAP
3380
3F00
1E00
0000
FFE0
FFE0
FFE0
E000
E000
E000
FFC0
FFC0
FFC0
E000
E000
E000
FFE0
FFE0
FFE0
ENDCHAR
STARTCHAR 011B
ENCODING 283
SWIDTH 624 0
DWIDTH 13 0
BBX 11 16 1 0
BITMAP
3180
1F00
0E00
0000
0000
1F00
7FC0
7BE0
E0E0
FFE0
FFE0
E000
F000
7FC0
3FC0
1F80
ENDCHAR
STARTCHAR 011C
ENCODING 284
SWIDTH 768 0
DWIDTH 16 0
BBX 14 19 1 0
BITMAP
03C0
07C0
0C60
0000
07E0
1FF8
3FFC
7838
F000
F000
E000
E01C
E01C
F01C
F01C
781C
3FFC
1FF8
07E0
ENDCHAR
STARTCHAR 011D
ENCODING 285
SWIDTH 720 0
DWIDTH 15 0
BBX 12 20 1 -4
BITMAP
0F00
1F80
39C0
0000
0000
1F70
7FF0
FFF0
F0F0
E070
E070
E070
F0F0
7FF0
3FF0
0E70
40F0
7FE0
FFE0
3F80
ENDCHAR
STARTCHAR 011E
ENCODING 286
SWIDTH 768 0
DWIDTH 16 0
BBX 14 19 1 0
BITMAP
0C60
0FE0
03C0
0000
07E0
1FF8
3FFC
7838
F000
F000
E000
E01C
E01C
F01C
F01C
781C
3FFC
1FF8
07E0
ENDCHAR
STARTCHAR 011F
ENCODING 287
SWIDTH 720 0
DWIDTH 15 0
BBX 12 20 1 -4
BITMAP
30C0
1FC0
0F80
0000
0000
1F70
7FF0
FFF0
F0F0
E070
E070
E070
F0F0
7FF0
3FF0
0E70
40F0
7FE0
FFE0
3F80
ENDCHAR
STARTCHAR 0120
ENCODING 288
SWIDTH 768 0
DWIDTH 16 0
BBX 14 19 1 1
BITMAP
0380
0380
0380
0000
07E0
1FF8
3FFC
7838
F000
F000
E000
E01C
E01C
F01C
F01C
781C
3FFC
1FF8
07E0
ENDCHAR
STARTCHAR 0121
ENCODING 289
SWIDTH 720 0
DWIDTH 15 0
BBX 12 20 1 -4
BITMAP
0600
0F00
0F00
0000
0000
1F70
7FF0
FFF0
F0F0
E070
E070
E070
F0F0
7FF0
3FF0
0E70
40F0
7FE0
FFE0
3F80
ENDCHAR
STARTCHAR 0122
ENCODING 290
SWIDTH 768 0
DWIDTH 16 0
BBX 14 20 1 -5
BITMAP
07E0
1FF8
3FFC
7838
F000
F000
E000
E01C
E01C
F01C
F01C
781C
3FFC
1FF8
07E0
0000
0380
0380
0180
0300
ENDCHAR
STARTCHAR 0123
ENCODING 291
SWIDTH 720 0
DWIDTH 15 0
BBX 12 20 1 -4
BITMAP
0600
0600
0F00
0600
0000
1F70
7FF0
FFF0
F0F0
E070
E070
E070
F0F0
7FF0
3FF0
0E70
40F0
7FE0
FFE0
3F80
ENDCHAR
STARTCHAR 0124
ENCODING 292
SWIDTH 816 0
DWIDTH 17 0
BBX 13 19 2 0
BITMAP
0700
0F80
18C0
0000
E038
E038
E038
E038
E038
E038
FFF8
FFF8
FFF8
E038
E038
E038
E038
E038
E038
ENDCHAR
STARTCHAR 0125
ENCODING 293
SWIDTH 672 0
DWIDTH 14 0
BBX 14 20 -1 0
BITMAP
3C00
7E00
E700
0000
3C00
3C00
3C00
3C00
3C00
3DF0
3FF8
3FFC
3E3C
3C1C
3C1C
3C1C
3C1C
3C1C
3C1C
3C1C
ENDCHAR
STARTCHAR 0126
ENCODING 294
SWIDTH 816 0
DWIDTH 17 0
BBX 17 15 0 0
BITMAP
380E00
380E00
FFFF80
FFFF80
380E00
380E00
3FFE00
3FFE00
3FFE00
380E00
380E00
380E00
380E00
380E00
380E00
ENDCHAR
STARTCHAR 0127
ENCODING 295
SWIDTH 672 0
DWIDTH 14 0
BBX 13 16 0 0
BITMAP
7800
FF80
FF80
7800
7800
7BE0
7FF0
7FF8
7C78
7838
7838
7838
7838
7838
7838
7838
ENDCHAR
STARTCHAR 0128
ENCODING 296
SWIDTH 336 0
DWIDTH 7 0
BBX 8 19 -1 0
BITMAP
71
7F
C6
00
1C
1C
1C
1C
1C
1C
1C
1C
1C
1C
1C
1C
1C
1C
1C
ENDCHAR
STARTCHAR 0129
ENCODING 297
SWIDTH 288 0
DWIDTH 6 0
BBX 7 16 0 0
BITMAP
E6
FC
9C
00
00
78
78
78
78
78
78
78
78
78
78
78
ENDCHAR
STARTCHAR 012A
ENCODING 298
SWIDTH 336 0
DWIDTH 7 0
BBX 7 19 0 0
BITMAP
FE
FE
00
00
38
38
38
38
38
38
38
38
38
38
38
38
38
38
38
ENDCHAR
STARTCHAR 012B
ENCODING 299
SWIDTH 288 0
DWIDTH 6 0
BBX 6 15 0 0
BITMAP
FC
FC
00
00
78
78
78
78
78
78
78
78
78
78
78
ENDCHAR
STARTCHAR 012C
ENCODING 300
SWIDTH 336 0
DWIDTH 7 0
BBX 7 19 0 0
BITMAP
C6
FE
7C
00
38
38
38
38
38
38
38
38
38
38
38
38
38
38
38
ENDCHAR
STARTCHAR 012D
ENCODING 301
SWIDTH 288 0
DWIDTH 6 0
BBX 6 16 0 0
BITMAP
CC
FC
78
00
00
78
78
78
78
78
78
78
78
78
78
78
ENDCHAR
STARTCHAR 012E
ENCODING 302
SWIDTH 336 0
DWIDTH 7 0
BBX 4 20 2 -5
BITMAP
E0
E0
E0
E0
E0
E0
E0
E0
E0
E0
E0
E0
E0
E0
E0
E0
C0
C0
F0
60
ENDCHAR
STARTCHAR 012F
ENCODING 303
SWIDTH 288 0
DWIDTH 6 0
BBX 4 21 1 -5
BITMAP
70
F0
F0
60
00
F0
F0
F0
F0
F0
F0
F0
F0
F0
F0
F0
60
C0
C0
70
20
ENDCHAR
STARTCHAR 0130
ENCODING 304
SWIDTH 336 0
DWIDTH 7 0
BBX 3 20 2 0
BITMAP
E0
E0
E0
40
00
E0
E0
E0
E0
E0
E0
E0
E0
E0
E0
E0
E0
E0
E0
E0
ENDCHAR
STARTCHAR 0131
ENCODING 305
SWIDTH 288 0
DWIDTH 6 0
BBX 4 11 1 0
BITMAP
F0
F0
F0
F0
F0
F0
F0
F0
F0
F0
F0
ENDCHAR
STARTCHAR 0132
ENCODING 306
SWIDTH 720 0
DWIDTH 15 0
BBX 12 15 1 0
BITMAP
7070
7070
7070
7070
7070
7070
7070
7070
0070
0070
0070
60F0
7FE0
FFC0
1F80
ENDCHAR
STARTCHAR 0133
ENCODING 307
SWIDTH 624 0
DWIDTH 13 0
BBX 11 20 1 -4
BITMAP
71C0
F1E0
F1C0
6080
0000
F1C0
F1C0
F1C0
F1C0
F1C0
F1C0
F1C0
F1C0
F1C0
F1C0
F1C0
01C0
0FC0
0F80
0F00
ENDCHAR
STARTCHAR 0134
ENCODING 308
SWIDTH 528 0
DWIDTH 11 0
BBX 10 19 0 0
BITMAP
0E00
1B00
3180
0000
7FC0
7FC0
7FC0
03C0
03C0
03C0
03C0
03C0
03C0
03C0
03C0
4380
FF80
FF00
3E00
ENDCHAR
STARTCHAR 0135
ENCODING 309
SWIDTH 288 0
DWIDTH 6 0
BBX 9 20 -2 -4
BITMAP
1E00
1F00
3380
0000
0000
0E00
0E00
0E00
0E00
0E00
0E00
0E00
0E00
0E00
0E00
0E00
0E00
7E00
FC00
F800
ENDCHAR
STARTCHAR 0136
ENCODING 310
SWIDTH 720 0
DWIDTH 15 0
BBX 13 21 2 -6
BITMAP
E078
E0F0
E1E0
E3C0
E780
EF00
EE00
FF00
FF80
FF80
F3C0
E1E0
E0F0
E070
E078
0000
0000
0600
0E00
0600
0400
ENDCHAR
STARTCHAR 0137
ENCODING 311
SWIDTH 672 0
DWIDTH 14 0
BBX 12 22 1 -6
BITMAP
F000
F000
F000
F000
F000
F0F0
F1E0
F3C0
F780
FF00
FF00
FF80
F3C0
F1E0
F0F0
F0F0
0000
0000
0E00
0E00
0600
0400
ENDCHAR
STARTCHAR 0138
ENCODING 312
SWIDTH 624 0
DWIDTH 13 0
BBX 12 11 1 0
BITMAP
F0F0
F1E0
F3C0
F780
FF00
FF00
FF80
F3C0
F1E0
F0F0
F0F0
ENDCHAR
STARTCHAR 0139
ENCODING 313
SWIDTH 624 0
DWIDTH 13 0
BBX 10 19 2 0
BITMAP
3800
7000
E000
0000
E000
E000
E000
E000
E000
E000
E000
E000
E000
E000
E000
E000
FFC0
FFC0
FFC0
ENDCHAR
STARTCHAR 013A
ENCODING 314
SWIDTH 288 0
DWIDTH 6 0
BBX 6 20 1 0
BITMAP
1C
38
60
00
F0
F0
F0
F0
F0
F0
F0
F0
F0
F0
F0
F0
F0
F0
F0
F0
ENDCHAR
STARTCHAR 013B
ENCODING 315
SWIDTH 624 0
DWIDTH 13 0
BBX 10 21 2 -6
BITMAP
E000
E000
E000
E000
E000
E000
E000
E000
E000
E000
E000
E000
FFC0
FFC0
FFC0
0000
0000
0E00
0E00
0400
0C00
ENDCHAR
STARTCHAR 013C
ENCODING 316
SWIDTH 288 0
DWIDTH 6 0
BBX 4 22 1 -6
BITMAP
F0
F0
F0
F0
F0
F0
F0
F0
F0
F0
F0
F0
F0
F0
F0
F0
00
00
60
70
60
60
ENDCHAR
STARTCHAR 013D
ENCODING 317
SWIDTH 624 0
DWIDTH 13 0
BBX 10 16 2 0
BITMAP
0180
E180
E180
E180
E000
E000
E000
E000
E000
E000
E000
E000
E000
FFC0
FFC0
FFC0
ENDCHAR
STARTCHAR 013E
ENCODING 318
SWIDTH 288 0
DWIDTH 6 0
BBX 8 17 1 0
BITMAP
07
F7
F7
F7
F0
F0
F0
F0
F0
F0
F0
F0
F0
F0
F0
F0
F0
ENDCHAR
STARTCHAR 013F
ENCODING 319
SWIDTH 624 0
DWIDTH 13 0
BBX 10 15 2 0
BITMAP
E000
E000
E000
E000
E100
E380
E380
E380
E000
E000
E000
E000
FFC0
FFC0
FFC0
ENDCHAR
STARTCHAR 0140
ENCODING 320
SWIDTH 432 0
DWIDTH 9 0
BBX 8 16 1 0
BITMAP
F0
F0
F0
F0
F0
F0
F0
F7
F7
F7
F0
F0
F0
F0
F0
F0
ENDCHAR
STARTCHAR 0141
ENCODING 321
SWIDTH 624 0
DWIDTH 13 0
BBX 13 15 0 0
BITMAP
3800
3800
3800
3900
3F80
3E00
3C00
7800
F800
F800
3800
3800
3FF8
3FF8
3FF8
ENDCHAR
STARTCHAR 0142
ENCODING 322
SWIDTH 336 0
DWIDTH 7 0
BBX 7 16 0 0
BITMAP
38
38
38
38
38
3E
3E
3C
78
F8
F8
38
38
38
38
38
ENDCHAR
STARTCHAR 0143
ENCODING 323
SWIDTH 816 0
DWIDTH 17 0
BBX 13 19 2 0
BITMAP
01C0
0380
0700
0000
E038
F038
F838
F838
FC38
FE38
EF38
EF38
E7B8
E3F8
E1F8
E0F8
E0F8
E078
E038
ENDCHAR
STARTCHAR 0144
ENCODING 324
SWIDTH 672 0
DWIDTH 14 0
BBX 12 16 1 0
BITMAP
01C0
0380
0700
0000
0000
F7C0
FFE0
FFF0
F0F0
F070
F070
F070
F070
F070
F070
F070
ENDCHAR
STARTCHAR 0145
ENCODING 325
SWIDTH 816 0
DWIDTH 17 0
BBX 13 21 2 -6
BITMAP
E038
F038
F838
F838
FC38
FE38
EF38
EF38
E7B8
E3F8
E1F8
E0F8
E0F8
E078
E038
0000
0000
0700
0700
0300
0600
ENDCHAR
STARTCHAR 0146
ENCODING 326
SWIDTH 672 0
DWIDTH 14 0
BBX 12 17 1 -6
BITMAP
F7C0
FFE0
FFF0
F0F0
F070
F070
F070
F070
F070
F070
F070
0000
0000
0600
0700
0200
0600
ENDCHAR
STARTCHAR 0147
ENCODING 327
SWIDTH 816 0
DWIDTH 17 0
BBX 13 19 2 0
BITMAP
18C0
0F80
0700
0000
E038
F038
F838
F838
FC38
FE38
EF38
EF38
E7B8
E3F8
E1F8
E0F8
E0F8
E078
E038
ENDCHAR
STARTCHAR 0148
ENCODING 328
SWIDTH 672 0
DWIDTH 14 0
BBX 12 16 1 0
BITMAP
19C0
1F80
0F00
0000
0000
F7C0
FFE0
FFF0
F0F0
F070
F070
F070
F070
F070
F070
F070
ENDCHAR
STARTCHAR 0149
ENCODING 329
SWIDTH 816 0
DWIDTH 17 0
BBX 15 15 1 0
BITMAP
C000
C000
C000
C000
DCF0
DFFC
1FFC
1E1E
1E1E
1C1E
1C1E
1C1E
1C1E
1C1E
1C1E
ENDCHAR
STARTCHAR 014A
ENCODING 330
SWIDTH 816 0
DWIDTH 17 0
BBX 13 19 2 -4
BITMAP
E038
F038
F838
F838
FC38
FE38
EF38
EF38
E7B8
E3F8
E1F8
E0F8
E0F8
E078
E038
0078
07F8
0FF0
07E0
ENDCHAR
STARTCHAR 014B
ENCODING 331
SWIDTH 672 0
DWIDTH 14 0
BBX 12 15 1 -4
BITMAP
F7C0
FFE0
FFF0
F0F0
F070
F070
F070
F070
F070
F070
F070
0070
03F0
07E0
07C0
ENDCHAR
STARTCHAR 014C
ENCODING 332
SWIDTH 864 0
DWIDTH 18 0
BBX 16 18 1 0
BITMAP
0FF0
0FF0
0000
07E0
1FF8
3FFC
783E
F01E
F00F
E00F
E00F
E00F
F00F
F01E
783E
3FFC
1FF8
07E0
ENDCHAR
STARTCHAR 014D
ENCODING 333
SWIDTH 672 0
DWIDTH 14 0
BBX 12 15 1 0
BITMAP
3FC0
3FC0
0000
0000
1F00
3FC0
7FE0
F0F0
E070
E070
E070
F0F0
7FE0
7FC0
1F00
ENDCHAR
STARTCHAR 014E
ENCODING 334
SWIDTH 864 0
DWIDTH 18 0
BBX 16 19 1 0
BITMAP
0C70
0FE0
03C0
0000
07E0
1FF8
3FFC
783E
F01E
F00F
E00F
E00F
E00F
F00F
F01E
783E
3FFC
1FF8
07E0
ENDCHAR
STARTCHAR 014F
ENCODING 335
SWIDTH 672 0
DWIDTH 14 0
BBX 12 16 1 0
BITMAP
31C0
3F80
1F00
0000
0000
1F00
3FC0
7FE0
F0F0
E070
E070
E070
F0F0
7FE0
7FC0
1F00
ENDCHAR
STARTCHAR 0150
ENCODING 336
SWIDTH 864 0
DWIDTH 18 0
BBX 16 19 1 0
BITMAP
03B8
0770
0660
0000
07E0
1FF8
3FFC
783E
F01E
F00F
E00F
E00F
E00F
F00F
F01E
783E
3FFC
1FF8
07E0
ENDCHAR
STARTCHAR 0151
ENCODING 337
SWIDTH 672 0
DWIDTH 14 0
BBX 12 16 1 0
BITMAP
0EE0
1DC0
1980
0000
0000
1F00
3FC0
7FE0
F0F0
E070
E070
E070
F0F0
7FE0
7FC0
1F00
ENDCHAR
STARTCHAR 0152
ENCODING 338
SWIDTH 1152 0
DWIDTH 24 0
BBX 22 15 1 0
BITMAP
07FFF8
1FFFF8
3FFFF8
783C00
F03C00
F03C00
E03FF8
E03FF8
E03FF8
F03C00
F03C00
783C00
3FFFFC
1FFFFC
07FFFC
ENDCHAR
STARTCHAR 0153
ENCODING 339
SWIDTH 1056 0
DWIDTH 22 0
BBX 20 11 1 0
BITMAP
1F0F80
7FDFE0
7FFDF0
F0F070
E07FF0
E07FF0
E0F000
F0F800
7FFFE0
3FDFE0
1F0FC0
ENDCHAR
STARTCHAR 0154
ENCODING 340
SWIDTH 720 0
DWIDTH 15 0
BBX 12 19 2 0
BITMAP
03C0
0700
0E00
0000
FF80
FFE0
FFF0
E0F0
E070
E070
E070
E0F0
FFE0
FFC0
FFC0
E1C0
E1E0
E0F0
E070
ENDCHAR
STARTCHAR 0155
ENCODING 341
SWIDTH 432 0
DWIDTH 9 0
BBX 8 16 1 0
BITMAP
0F
1C
18
00
00
F6
FE
FE
F8
F0
F0
F0
F0
F0
F0
F0
ENDCHAR
STARTCHAR 0156
ENCODING 342
SWIDTH 720 0
DWIDTH 15 0
BBX 12 21 2 -6
BITMAP
FF80
FFE0
FFF0
E0F0
E070
E070
E070
E0F0
FFE0
FFC0
FFC0
E1C0
E1E0
E0F0
E070
0000
0000
0600
0E00
0600
0400
ENDCHAR
STARTCHAR 0157
ENCODING 343
SWIDTH 432 0
DWIDTH 9 0
BBX 7 17 1 -6
BITMAP
F6
FE
FE
F8
F0
F0
F0
F0
F0
F0
F0
00
00
60
70
60
60
ENDCHAR
STARTCHAR 0158
ENCODING 344
SWIDTH 720 0
DWIDTH 15 0
BBX 12 19 2 0
BITMAP
39C0
1F80
0F00
0000
FF80
FFE0
FFF0
E0F0
E070
E070
E070
E0F0
FFE0
FFC0
FFC0
E1C0
E1E0
E0F0
E070
ENDCHAR
STARTCHAR 0159
ENCODING 345
SWIDTH 432 0
DWIDTH 9 0
BBX 8 16 1 0
BITMAP
E7
7E
3C
00
00
F6
FE
FE
F8
F0
F0
F0
F0
F0
F0
F0
ENDCHAR
STARTCHAR 015A
ENCODING 346
SWIDTH 624 0
DWIDTH 13 0
BBX 12 19 1 0
BITMAP
03C0
0700
0E00
0000
1F80
7FE0
FFE0
F040
E000
F000
FE00
7FC0
1FE0
01F0
00F0
C0F0
FFE0
FFC0
3F80
ENDCHAR
STARTCHAR 015B
ENCODING 347
SWIDTH 528 0
DWIDTH 11 0
BBX 10 16 1 0
BITMAP
0700
0E00
1C00
0000
0000
3F00
FF80
F700
E000
F000
FF00
3F80
03C0
F780
FF80
7E00
ENDCHAR
STARTCHAR 015C
ENCODING 348
SWIDTH 624 0
DWIDTH 13 0
BBX 12 19 1 0
BITMAP
0F00
1F80
3980
0000
1F80
7FE0
FFE0
F040
E000
F000
FE00
7FC0
1FE0
01F0
00F0
C0F0
FFE0
FFC0
3F80
ENDCHAR
STARTCHAR 015D
ENCODING 349
SWIDTH 528 0
DWIDTH 11 0
BBX 10 16 1 0
BITMAP
1C00
3600
6300
0000
0000
3F00
FF80
F700
E000
F000
FF00
3F80
03C0
F780
FF80
7E00
ENDCHAR
STARTCHAR 015E
ENCODING 350
SWIDTH 624 0
DWIDTH 13 0
BBX 12 20 1 -5
BITMAP
1F80
7FE0
FFE0
F040
E000
F000
FE00
7FC0
1FE0
01F0
00F0
C0F0
FFE0
FFC0
3F80
0400
0F00
0300
1F00
0400
ENDCHAR
STARTCHAR 015F
ENCODING 351
SWIDTH 528 0
DWIDTH 11 0
BBX 10 16 1 -5
BITMAP
3F00
FF80
F700
E000
F000
FF00
3F80
03C0
E380
FF80
7E00
1800
1C00
0600
3C00
1000
ENDCHAR
STARTCHAR 0160
ENCODING 352
SWIDTH 624 0
DWIDTH 13 0
BBX 12 19 1 0
BITMAP
39C0
1F80
0F00
0000
1F80
7FE0
FFE0
F040
E000
F000
FE00
7FC0
1FE0
01F0
00F0
C0F0
FFE0
FFC0
3F80
ENDCHAR
STARTCHAR 0161
ENCODING 353
SWIDTH 528 0
DWIDTH 11 0
BBX 10 16 1 0
BITMAP
6300
3E00
1C00
0000
0000
3F00
FF80
F700
E000
F000
FF00
3F80
03C0
F780
FF80
7E00
ENDCHAR
STARTCHAR 0162
ENCODING 354
SWIDTH 624 0
DWIDTH 13 0
BBX 13 20 0 -5
BITMAP
FFF8
FFF8
FFF8
0700
0700
0700
0700
0700
0700
0700
0700
0700
0700
0700
0700
0600
0700
0180
0F00
0400
ENDCHAR
STARTCHAR 0163
ENCODING 355
SWIDTH 432 0
DWIDTH 9 0
BBX 8 19 0 -5
BITMAP
38
38
38
FF
FF
3F
38
38
38
38
38
3F
1F
0F
0C
0E
03
1F
08
ENDCHAR
STARTCHAR 0164
ENCODING 356
SWIDTH 624 0
DWIDTH 13 0
BBX 13 19 0 0
BITMAP
18C0
0F80
0700
0000
FFF8
FFF8
FFF8
0700
0700
0700
0700
0700
0700
0700
0700
0700
0700
0700
0700
ENDCHAR
STARTCHAR 0165
ENCODING 357
SWIDTH 432 0
DWIDTH 9 0
BBX 9 16 0 0
BITMAP
0180
0180
3980
3980
3800
FF00
FF00
3F00
3800
3800
3800
3800
3800
3F00
1F00
0F00
ENDCHAR
STARTCHAR 0166
ENCODING 358
SWIDTH 624 0
DWIDTH 13 0
BBX 13 15 0 0
BITMAP
FFF8
FFF8
FFF8
0700
0700
0700
0700
3FE0
3FE0
0700
0700
0700
0700
0700
0700
ENDCHAR
STARTCHAR 0167
ENCODING 359
SWIDTH 432 0
DWIDTH 9 0
BBX 9 14 0 0
BITMAP
3800
3800
3800
FF00
FF00
3F00
3800
7F00
7F00
3800
3800
3F00
1F80
0F00
ENDCHAR
STARTCHAR 0168
ENCODING 360
SWIDTH 768 0
DWIDTH 16 0
BBX 13 19 2 0
BITMAP
1CC0
1FC0
3380
0000
E078
E078
E078
E078
E078
E078
E078
E078
E078
E078
E078
F0F0
7FF0
3FE0
1F80
ENDCHAR
STARTCHAR 0169
ENCODING 361
SWIDTH 672 0
DWIDTH 14 0
BBX 12 16 1 0
BITMAP
1CC0
3FC0
3380
0000
0000
F070
F070
F070
F070
F070
F070
F0F0
70F0
7FF0
7FF0
1E70
ENDCHAR
STARTCHAR 016A
ENCODING 362
SWIDTH 768 0
DWIDTH 16 0
BBX 13 19 2 0
BITMAP
3FC0
3FC0
0000
0000
E078
E078
E078
E078
E078
E078
E078
E078
E078
E078
E078
F0F0
7FF0
3FE0
1F80
ENDCHAR
STARTCHAR 016B
ENCODING 363
SWIDTH 672 0
DWIDTH 14 0
BBX 12 15 1 0
BITMAP
3FC0
3FC0
0000
0000
F070
F070
F070
F070
F070
F070
F0F0
70F0
7FF0
7FF0
1E70
ENDCHAR
STARTCHAR 016C
ENCODING 364
SWIDTH 768 0
DWIDTH 16 0
BBX 13 19 2 0
BITMAP
38C0
1FC0
0F00
0000
E078
E078
E078
E078
E078
E078
E078
E078
E078
E078
E078
F0F0
7FF0
3FE0
1F80
ENDCHAR
STARTCHAR 016D
ENCODING 365
SWIDTH 672 0
DWIDTH 14 0
BBX 12 16 1 0
BITMAP
30C0
1FC0
0F80
0000
0000
F070
F070
F070
F070
F070
F070
F0F0
70F0
7FF0
7FF0
1E70
ENDCHAR
STARTCHAR 016E
ENCODING 366
SWIDTH 768 0
DWIDTH 16 0
BBX 13 21 2 0
BITMAP
0F00
0980
0980
0980
0700
0000
E078
E078
E078
E078
E078
E078
E078
E078
E078
E078
E078
F0F0
7FF0
3FE0
1F80
ENDCHAR
STARTCHAR 016F
ENCODING 367
SWIDTH 672 0
DWIDTH 14 0
BBX 12 17 1 0
BITMAP
0F00
0980
0980
0900
0700
0000
F070
F070
F070
F070
F070
F070
F0F0
70F0
7FF0
7FF0
1E70
ENDCHAR
STARTCHAR 0170
ENCODING 368
SWIDTH 768 0
DWIDTH 16 0
BBX 13 19 2 0
BITMAP
0EE0
0CE0
1DC0
0000
E078
E078
E078
E078
E078
E078
E078
E078
E078
E078
E078
F0F0
7FF0
3FE0
1F80
ENDCHAR
STARTCHAR 0171
ENCODING 369
SWIDTH 672 0
DWIDTH 14 0
BBX 12 16 1 0
BITMAP
0EE0
0CC0
1DC0
0000
0000
F070
F070
F070
F070
F070
F070
F0F0
70F0
7FF0
7FF0
1E70
ENDCHAR
STARTCHAR 0172
ENCODING 370
SWIDTH 768 0
DWIDTH 16 0
BBX 13 20 2 -5
BITMAP
E078
E078
E078
E078
E078
E078
E078
E078
E078
E078
E078
F0F0
7FF0
3FE0
1F80
0600
0C00
0C00
0F80
0200
ENDCHAR
STARTCHAR 0173
ENCODING 371
SWIDTH 672 0
DWIDTH 14 0
BBX 12 16 1 -5
BITMAP
F070
F070
F070
F070
F070
F070
F0F0
70F0
7FF0
7FF0
1E70
00E0
0180
0180
00F0
0060
ENDCHAR
STARTCHAR 0174
ENCODING 372
SWIDTH 1152 0
DWIDTH 24 0
BBX 23 19 1 0
BITMAP
007800
00FC00
01CE00
000000
E0381E
E0781C
F07C1C
707C3C
70FC38
78FE38
38EE78
39CE70
3DCE70
3DC770
1F87E0
1F87E0
1F83E0
0F03C0
0F03C0
ENDCHAR
STARTCHAR 0175
ENCODING 373
SWIDTH 960 0
DWIDTH 20 0
BBX 19 16 0 0
BITMAP
00F000
01F800
031800
000000
000000
E0E0E0
70F0E0
70F0E0
71F1C0
39F9C0
3BB980
3B9F80
1F9F80
1F1F00
1F0F00
0E0F00
ENDCHAR
STARTCHAR 0176
ENCODING 374
SWIDTH 672 0
DWIDTH 14 0
BBX 14 19 0 0
BITMAP
0780
0FC0
1CE0
0000
F01C
703C
7838
3870
3CF0
1CE0
1FE0
0FC0
0780
0780
0780
0780
0780
0780
0780
ENDCHAR
STARTCHAR 0177
ENCODING 375
SWIDTH 576 0
DWIDTH 12 0
BBX 12 20 0 -4
BITMAP
0F00
1F80
39C0
0000
0000
E070
F070
70F0
78E0
38E0
3DC0
1DC0
1F80
0F80
0F00
0F00
0F00
7E00
FC00
7800
ENDCHAR
STARTCHAR 0178
ENCODING 376
SWIDTH 672 0
DWIDTH 14 0
BBX 14 19 0 0
BITMAP
0CC0
1CE0
0CC0
0000
F01C
703C
7838
3870
3CF0
1CE0
1FE0
0FC0
0780
0780
0780
0780
0780
0780
0780
ENDCHAR
STARTCHAR 0179
ENCODING 377
SWIDTH 672 0
DWIDTH 14 0
BBX 13 19 1 0
BITMAP
01C0
0380
0600
0000
FFF0
FFF0
FFF0
01E0
03C0
03C0
0780
0F00
1E00
3C00
3C00
7800
FFF8
FFF8
FFF8
ENDCHAR
STARTCHAR 017A
ENCODING 378
SWIDTH 528 0
DWIDTH 11 0
BBX 10 16 1 0
BITMAP
0780
0E00
1C00
0000
0000
FFC0
FFC0
0780
0700
0E00
1C00
3C00
7800
F000
FFC0
FFC0
ENDCHAR
STARTCHAR 017B
ENCODING 379
SWIDTH 672 0
DWIDTH 14 0
BBX 13 20 1 0
BITMAP
0600
0F00
0700
0000
0000
FFF0
FFF0
FFF0
01E0
03C0
03C0
0780
0F00
1E00
3C00
3C00
7800
FFF8
FFF8
FFF8
ENDCHAR
STARTCHAR 017C
ENCODING 380
SWIDTH 528 0
DWIDTH 11 0
BBX 10 16 1 0
BITMAP
1C00
1C00
1C00
0800
0000
FFC0
FFC0
0780
0700
0E00
1C00
3C00
7800
F000
FFC0
FFC0
ENDCHAR
STARTCHAR 017D
ENCODING 381
SWIDTH 672 0
DWIDTH 14 0
BBX 13 19 1 0
BITMAP
39C0
1F80
0F00
0000
FFF0
FFF0
FFF0
01E0
03C0
03C0
0780
0F00
1E00
3C00
3C00
7800
FFF8
FFF8
FFF8
ENDCHAR
STARTCHAR 017E
ENCODING 382
SWIDTH 528 0
DWIDTH 11 0
BBX 10 16 1 0
BITMAP
6300
3F00
1E00
0000
0000
FFC0
FFC0
0780
0700
0E00
1C00
3C00
7800
F000
FFC0
FFC0
ENDCHAR
STARTCHAR 017F
ENCODING 383
SWIDTH 336 0
DWIDTH 7 0
BBX 9 16 0 0
BITMAP
0F80
1F80
3F00
3800
3800
F800
F800
3800
3800
3800
3800
3800
3800
3800
3800
3800
ENDCHAR
STARTCHAR 018F
ENCODING 399
SWIDTH 816 0
DWIDTH 17 0
BBX 15 15 1 0
BITMAP
0FC0
3FF0
7FF8
383C
001E
001E
000E
FFFE
FFFE
E00E
F01E
783C
3FF8
1FF0
07C0
ENDCHAR
STARTCHAR 0192
ENCODING 402
SWIDTH 480 0
DWIDTH 10 0
BBX 12 20 -2 -4
BITMAP
00F0
01F0
03F0
0380
0780
0FE0
1FE0
07E0
0700
0700
0700
0700
0F00
0F00
0E00
0E00
0E00
7E00
FC00
F800
ENDCHAR
STARTCHAR 01A0
ENCODING 416
SWIDTH 864 0
DWIDTH 18 0
BBX 16 18 1 0
BITMAP
0002
0007
0007
07FE
1FFC
3FFC
783E
F01E
F00F
E00F
E00F
E00F
F00F
F01E
783E
3FFC
1FF8
07E0
ENDCHAR
STARTCHAR 01A1
ENCODING 417
SWIDTH 672 0
DWIDTH 14 0
BBX 12 14 1 0
BITMAP
0060
0030
0030
1FE0
3FC0
7FE0
F0F0
E070
E070
E070
F0F0
7FE0
7FC0
1F00
ENDCHAR
STARTCHAR 01AF
ENCODING 431
SWIDTH 816 0
DWIDTH 17 0
BBX 15 18 2 0
BITMAP
0006
0006
0006
E07E
E07C
E078
E078
E078
E078
E078
E078
E078
E078
E078
F0F0
7FF0
3FE0
1F80
ENDCHAR
STARTCHAR 01B0
ENCODING 432
SWIDTH 720 0
DWIDTH 15 0
BBX 14 14 1 0
BITMAP
0018
000C
001C
F078
F070
F070
F070
F070
F070
F0F0
70F0
7FF0
7FF0
1E70
ENDCHAR
STARTCHAR 01B7
ENCODING 439
SWIDTH 624 0
DWIDTH 13 0
BBX 12 15 1 0
BITMAP
FFE0
FFE0
FFC0
03C0
0780
0F00
0F80
0FC0
03E0
00E0
00F0
C0E0
FFE0
FFC0
3F00
ENDCHAR
STARTCHAR 01C4
ENCODING 452
SWIDTH 1440 0
DWIDTH 30 0
BBX 28 19 2 0
BITMAP
00003180
00001F00
00001E00
00000000
FFC1FFE0
FFF1FFE0
FFF9FFE0
E07803C0
E03C03C0
E01C0780
E01C0F00
E01C1E00
E01C3C00
E01C3C00
E03C7800
E078F000
FFF9FFF0
FFF1FFF0
FFC1FFF0
ENDCHAR
STARTCHAR 01C5
ENCODING 453
SWIDTH 1392 0
DWIDTH 29 0
BBX 26 16 2 0
BITMAP
00007380
FF803F00
FFE01E00
FFF80000
E0780000
E03CFFC0
E03CFFC0
E01C0380
E01C0700
E01C0F00
E01C1E00
E03C3C00
E0787800
FFF8F000
FFF0FFC0
FFC0FFC0
ENDCHAR
STARTCHAR 01C6
ENCODING 454
SWIDTH 1248 0
DWIDTH 26 0
BBX 24 16 1 0
BITMAP
0071CE
0070FC
007078
007000
007000
1F73FF
7FF3FF
7FF00E
F0F01C
E0703C
E07078
E070F0
F0F1E0
7FF3C0
7FF3FF
1F73FF
ENDCHAR
STARTCHAR 01C7
ENCODING 455
SWIDTH 1152 0
DWIDTH 24 0
BBX 20 15 2 0
BITMAP
E00FF0
E00FF0
E00FF0
E00070
E00070
E00070
E00070
E00070
E00070
E00070
E00070
E018F0
FFDFF0
FFFFE0
FFCFC0
ENDCHAR
STARTCHAR 01C8
ENCODING 456
SWIDTH 912 0
DWIDTH 19 0
BBX 16 21 2 -4
BITMAP
000E
000F
E00F
E006
E000
E000
E00E
E00E
E00E
E00E
E00E
E00E
E00E
E00E
FFCE
FFCE
FFCE
000E
007E
007E
007C
ENDCHAR
STARTCHAR 01C9
ENCODING 457
SWIDTH 624 0
DWIDTH 13 0
BBX 11 21 1 -4
BITMAP
0080
F1C0
F1E0
F1C0
F000
F000
F1C0
F1C0
F1C0
F1C0
F1C0
F1C0
F1C0
F1C0
F1C0
F1C0
F1C0
01C0
0FC0
0F80
0F00
ENDCHAR
STARTCHAR 01CA
ENCODING 458
SWIDTH 1344 0
DWIDTH 28 0
BBX 24 15 2 0
BITMAP
E038FF
F038FF
F838FF
F83807
FC3807
FE3807
EF3807
EFB807
E7B807
E3F807
E1F807
E0F887
E0F9FF
E079FE
E0387C
ENDCHAR
STARTCHAR 01CB
ENCODING 459
SWIDTH 1104 0
DWIDTH 23 0
BBX 20 21 2 -4
BITMAP
000070
0000F0
E038F0
F03860
F03800
F83800
FC38F0
FE38F0
FF38F0
EF38F0
E7B8F0
E3F8F0
E1F8F0
E1F8F0
E0F8F0
E078F0
E038F0
0000F0
0003E0
0007E0
0007C0
ENDCHAR
STARTCHAR 01CC
ENCODING 460
SWIDTH 1008 0
DWIDTH 21 0
BBX 19 20 1 -4
BITMAP
0001C0
0001E0
0001E0
000080
000000
F7C1C0
FFE1C0
FFF1C0
F0F1C0
F071C0
F071C0
F071C0
F071C0
F071C0
F071C0
F071C0
0001C0
000FC0
000FC0
000F00
ENDCHAR
STARTCHAR 01CD
ENCODING 461
SWIDTH 768 0
DWIDTH 16 0
BBX 16 19 0 0
BITMAP
0E70
07E0
03C0
0000
03C0
03C0
07E0
07E0
0EF0
0E70
1E70
1C38
1C38
3FFC
3FFC
7FFE
700E
F00F
E00F
ENDCHAR
STARTCHAR 01CE
ENCODING 462
SWIDTH 624 0
DWIDTH 13 0
BBX 10 16 1 0
BITMAP
3180
1F00
1E00
0000
0000
3F00
FF80
7FC0
01C0
3FC0
FFC0
E1C0
E1C0
F3C0
FFC0
3DC0
ENDCHAR
STARTCHAR 01D3
ENCODING 467
SWIDTH 768 0
DWIDTH 16 0
BBX 13 19 2 0
BITMAP
39C0
1F80
0F00
0000
E078
E078
E078
E078
E078
E078
E078
E078
E078
E078
E078
F0F0
7FF0
3FE0
1F80
ENDCHAR
STARTCHAR 01D4
ENCODING 468
SWIDTH 672 0
DWIDTH 14 0
BBX 12 16 1 0
BITMAP
39C0
1F80
0F00
0000
0000
F070
F070
F070
F070
F070
F070
F0F0
70F0
7FF0
7FF0
1E70
ENDCHAR
STARTCHAR 01E4
ENCODING 484
SWIDTH 816 0
DWIDTH 17 0
BBX 15 15 1 0
BITMAP
07E0
1FF8
3FFC
7838
F000
F000
E000
E000
E01C
F1FE
F1FE
781C
3FFC
1FF8
07E0
ENDCHAR
STARTCHAR 01E5
ENCODING 485
SWIDTH 720 0
DWIDTH 15 0
BBX 13 15 1 -4
BITMAP
1F70
7FF0
F9F0
E0F0
E070
E070
F0F0
7FF0
3F70
0070
07F8
47F8
7FE0
FFC0
3F80
ENDCHAR
STARTCHAR 01E6
ENCODING 486
SWIDTH 768 0
DWIDTH 16 0
BBX 14 19 1 0
BITMAP
0C60
07C0
03C0
0000
07E0
1FF8
3FFC
7838
F000
F000
E000
E01C
E01C
F01C
F01C
781C
3FFC
1FF8
07E0
ENDCHAR
STARTCHAR 01E7
ENCODING 487
SWIDTH 720 0
DWIDTH 15 0
BBX 12 20 1 -4
BITMAP
39C0
1F80
0F00
0000
0000
1F70
7FF0
FFF0
F0F0
E070
E070
E070
F0F0
7FF0
3FF0
0E70
40F0
7FE0
FFE0
3F80
ENDCHAR
STARTCHAR 01E8
ENCODING 488
SWIDTH 720 0
DWIDTH 15 0
BBX 13 19 2 0
BITMAP
39C0
1F80
0F00
0000
E078
E0F0
E1E0
E3C0
E780
EF00
EE00
FF00
FF80
FF80
F3C0
E1E0
E0F0
E070
E078
ENDCHAR
STARTCHAR 01E9
ENCODING 489
SWIDTH 672 0
DWIDTH 14 0
BBX 14 20 -1 0
BITMAP
E700
7E00
3C00
0000
3C00
3C00
3C00
3C00
3C00
3C3C
3C78
3CF0
3DE0
3FC0
3FC0
3FE0
3CF0
3C78
3C3C
3C3C
ENDCHAR
STARTCHAR 01EA
ENCODING 490
SWIDTH 864 0
DWIDTH 18 0
BBX 16 20 1 -5
BITMAP
07E0
1FF8
3FFC
783E
F01E
F00E
E00F
E00F
E00F
F00F
F01E
783E
3FFC
1FF8
07E0
0300
0700
0600
03C0
0180
ENDCHAR
STARTCHAR 01EB
ENCODING 491
SWIDTH 672 0
DWIDTH 14 0
BBX 12 16 1 -5
BITMAP
1F00
3FC0
7FE0
F0F0
E0F0
E070
E070
F0F0
7BE0
7FC0
1F80
0E00
0C00
0C00
0F00
0600
ENDCHAR
STARTCHAR 01EE
ENCODING 494
SWIDTH 624 0
DWIDTH 13 0
BBX 12 19 1 0
BITMAP
3180
1B00
0E00
0000
FFE0
FFE0
FFC0
03C0
0780
0F00
0F80
0FC0
03E0
00E0
00F0
C0E0
FFE0
FFC0
3F00
ENDCHAR
STARTCHAR 01EF
ENCODING 495
SWIDTH 576 0
DWIDTH 12 0
BBX 11 20 0 -4
BITMAP
7380
3F00
1E00
0000
0000
FFC0
FFC0
FFC0
0380
0700
0E00
1F80
1FC0
03E0
00E0
00E0
C1E0
FFC0
FFC0
3F00
ENDCHAR
STARTCHAR 01FA
ENCODING 506
SWIDTH 768 0
DWIDTH 16 0
BBX 16 23 0 0
BITMAP
0020
0070
03E0
0240
0660
0240
03C0
0000
03C0
03C0
07E0
07E0
0EF0
0E70
1E70
1C38
1C38
3FFC
3FFC
7FFE
700E
F00F
E00F
ENDCHAR
STARTCHAR 01FB
ENCODING 507
SWIDTH 624 0
DWIDTH 13 0
BBX 10 18 1 1
BITMAP
01C0
0F80
1B00
1100
1B00
0E00
0000
3F00
FF80
7FC0
01C0
3FC0
FFC0
E1C0
E1C0
F3C0
FFC0
3DC0
ENDCHAR
STARTCHAR 01FC
ENCODING 508
SWIDTH 1104 0
DWIDTH 23 0
BBX 22 19 0 0
BITMAP
000F00
001C00
003800
000000
00FFF8
01FFF8
01FFF8
03BC00
03BC00
073C00
0F3FF0
0E3FF0
1E3FF0
1FFC00
3FFC00
3FFC00
783FFC
703FFC
F03FFC
ENDCHAR
STARTCHAR 01FD
ENCODING 509
SWIDTH 1008 0
DWIDTH 21 0
BBX 19 16 1 0
BITMAP
007800
00E000
01C000
000000
000000
3F1F00
FFFF80
7FFBC0
01E0E0
3FFFE0
FFFFE0
E1E000
E1E080
E3FFC0
FF7FC0
3E1F00
ENDCHAR
STARTCHAR 01FE
ENCODING 510
SWIDTH 864 0
DWIDTH 18 0
BBX 16 20 1 -1
BITMAP
00F0
01C0
0380
000E
07EC
1FF8
3FFC
783E
F07E
F0CF
E1CF
E18F
E30F
F60F
F61E
7C3E
3FFC
3FF8
37E0
6000
ENDCHAR
STARTCHAR 01FF
ENCODING 511
SWIDTH 672 0
DWIDTH 14 0
BBX 12 17 1 -1
BITMAP
03C0
0700
0E00
0060
0040
1FC0
3FC0
7FE0
F3F0
E270
E670
EC70
F8F0
7FE0
3FC0
3F00
6000
ENDCHAR
STARTCHAR 0200
ENCODING 512
SWIDTH 768 0
DWIDTH 16 0
BBX 16 19 0 0
BITMAP
1DC0
0CE0
0E60
0000
03C0
03C0
07E0
07E0
0EF0
0E70
1E70
1C38
1C38
3FFC
3FFC
7FFE
700E
F00F
E00F
ENDCHAR
STARTCHAR 0201
ENCODING 513
SWIDTH 624 0
DWIDTH 13 0
BBX 10 16 1 0
BITMAP
EE00
7700
3300
0000
0000
3F00
FF80
7FC0
01C0
3FC0
FFC0
E1C0
E1C0
F3C0
FFC0
3DC0
ENDCHAR
STARTCHAR 0202
ENCODING 514
SWIDTH 768 0
DWIDTH 16 0
BBX 16 20 0 0
BITMAP
0180
07E0
0E70
0C30
0000
03C0
03C0
07E0
07E0
0EF0
0E70
1E70
1C38
1C38
3FFC
3FFC
7FFE
700E
F00F
E00F
ENDCHAR
STARTCHAR 0203
ENCODING 515
SWIDTH 624 0
DWIDTH 13 0
BBX 10 16 1 0
BITMAP
1E00
3F80
3180
0000
0000
3F00
FF80
7FC0
01C0
3FC0
FFC0
E1C0
E1C0
F3C0
FFC0
3DC0
ENDCHAR
STARTCHAR 0204
ENCODING 516
SWIDTH 672 0
DWIDTH 14 0
BBX 11 19 2 0
BITMAP
EE00
7700
3300
0000
FFE0
FFE0
FFE0
E000
E000
E000
FFC0
FFC0
FFC0
E000
E000
E000
FFE0
FFE0
FFE0
ENDCHAR
STARTCHAR 0205
ENCODING 517
SWIDTH 624 0
DWIDTH 13 0
BBX 11 16 1 0
BITMAP
E700
7700
3380
0000
0000
1F00
7FC0
7BE0
E0E0
FFE0
FFE0
E000
F000
7FC0
3FC0
1F80
ENDCHAR
STARTCHAR 0206
ENCODING 518
SWIDTH 672 0
DWIDTH 14 0
BBX 11 20 2 0
BITMAP
0E00
3F00
3180
6180
0000
FFE0
FFE0
FFE0
E000
E000
E000
FFC0
FFC0
FFC0
E000
E000
E000
FFE0
FFE0
FFE0
ENDCHAR
STARTCHAR 0207
ENCODING 519
SWIDTH 624 0
DWIDTH 13 0
BBX 11 16 1 0
BITMAP
1F00
3F80
3180
0000
0000
1F00
7FC0
7BE0
E0E0
FFE0
FFE0
E000
F000
7FC0
3FC0
1F80
ENDCHAR
STARTCHAR 0208
ENCODING 520
SWIDTH 336 0
DWIDTH 7 0
BBX 8 19 -2 0
BITMAP
E6
77
33
00
0E
0E
0E
0E
0E
0E
0E
0E
0E
0E
0E
0E
0E
0E
0E
ENDCHAR
STARTCHAR 0209
ENCODING 521
SWIDTH 288 0
DWIDTH 6 0
BBX 8 16 -2 0
BITMAP
EE
67
73
00
00
1E
1E
1E
1E
1E
1E
1E
1E
1E
1E
1E
ENDCHAR
STARTCHAR 020A
ENCODING 522
SWIDTH 336 0
DWIDTH 7 0
BBX 7 20 0 0
BITMAP
38
FC
C6
C6
00
38
38
38
38
38
38
38
38
38
38
38
38
38
38
38
ENDCHAR
STARTCHAR 020B
ENCODING 523
SWIDTH 288 0
DWIDTH 6 0
BBX 6 16 0 0
BITMAP
78
FC
CC
00
00
78
78
78
78
78
78
78
78
78
78
78
ENDCHAR
STARTCHAR 020C
ENCODING 524
SWIDTH 864 0
DWIDTH 18 0
BBX 16 19 1 0
BITMAP
1DC0
1CC0
0EE0
0000
07E0
1FF8
3FFC
783E
F01E
F00F
E00F
E00F
E00F
F00F
F01E
783E
3FFC
1FF8
07E0
ENDCHAR
STARTCHAR 020D
ENCODING 525
SWIDTH 672 0
DWIDTH 14 0
BBX 12 16 1 0
BITMAP
7700
7300
3B80
0000
0000
1F00
3FC0
7FE0
F0F0
E070
E070
E070
F0F0
7FE0
7FC0
1F00
ENDCHAR
STARTCHAR 020E
ENCODING 526
SWIDTH 864 0
DWIDTH 18 0
BBX 16 19 1 0
BITMAP
03C0
0FE0
0C70
0000
07E0
1FF8
3FFC
783E
F01E
F00F
E00F
E00F
E00F
F00F
F01E
783E
3FFC
1FF8
07E0
ENDCHAR
STARTCHAR 020F
ENCODING 527
SWIDTH 672 0
DWIDTH 14 0
BBX 12 16 1 0
BITMAP
0F00
1F80
3180
0000
0000
1F00
3FC0
7FE0
F0F0
E070
E070
E070
F0F0
7FE0
7FC0
1F00
ENDCHAR
STARTCHAR 0210
ENCODING 528
SWIDTH 720 0
DWIDTH 15 0
BBX 12 19 2 0
BITMAP
7700
7300
3B80
0000
FF80
FFE0
FFF0
E0F0
E070
E070
E070
E0F0
FFE0
FFC0
FFC0
E1C0
E1E0
E0F0
E070
ENDCHAR
STARTCHAR 0211
ENCODING 529
SWIDTH 432 0
DWIDTH 9 0
BBX 8 16 0 0
BITMAP
EE
67
73
00
00
7B
7F
7F
7C
78
78
78
78
78
78
78
ENDCHAR
STARTCHAR 0212
ENCODING 530
SWIDTH 720 0
DWIDTH 15 0
BBX 12 20 2 0
BITMAP
0E00
1F80
3980
30C0
0000
FF80
FFE0
FFF0
E0F0
E070
E070
E070
E0F0
FFE0
FFC0
FFC0
E1C0
E1E0
E0F0
E070
ENDCHAR
STARTCHAR 0213
ENCODING 531
SWIDTH 432 0
DWIDTH 9 0
BBX 8 16 1 0
BITMAP
3C
7E
C3
00
00
F6
FE
FE
F8
F0
F0
F0
F0
F0
F0
F0
ENDCHAR
STARTCHAR 0214
ENCODING 532
SWIDTH 768 0
DWIDTH 16 0
BBX 13 19 2 0
BITMAP
7700
3B80
1980
0000
E078
E078
E078
E078
E078
E078
E078
E078
E078
E078
E078
F0F0
7FF0
3FE0
1F80
ENDCHAR
STARTCHAR 0215
ENCODING 533
SWIDTH 672 0
DWIDTH 14 0
BBX 12 16 1 0
BITMAP
7700
3380
3980
0000
0000
F070
F070
F070
F070
F070
F070
F0F0
70F0
7FF0
7FF0
1E70
ENDCHAR
STARTCHAR 0216
ENCODING 534
SWIDTH 768 0
DWIDTH 16 0
BBX 13 20 2 0
BITMAP
0700
1F80
18C0
30C0
0000
E078
E078
E078
E078
E078
E078
E078
E078
E078
E078
E078
F0F0
7FF0
3FE0
1F80
ENDCHAR
STARTCHAR 0217
ENCODING 535
SWIDTH 672 0
DWIDTH 14 0
BBX 12 16 1 0
BITMAP
0F00
1F80
38C0
0000
0000
F070
F070
F070
F070
F070
F070
F0F0
70F0
7FF0
7FF0
1E70
ENDCHAR
STARTCHAR 0218
ENCODING 536
SWIDTH 624 0
DWIDTH 13 0
BBX 12 20 1 -5
BITMAP
1F80
7FE0
FFE0
F040
E000
F000
FE00
7FC0
1FE0
01F0
00F0
C0F0
FFE0
FFC0
3F80
0000
0600
0E00
0600
0400
ENDCHAR
STARTCHAR 0219
ENCODING 537
SWIDTH 528 0
DWIDTH 11 0
BBX 10 16 1 -5
BITMAP
3F00
FF80
F700
E000
F000
FF00
3F80
03C0
F780
FF80
7E00
0000
1C00
1C00
0C00
1800
ENDCHAR
STARTCHAR 021A
ENCODING 538
SWIDTH 624 0
DWIDTH 13 0
BBX 13 21 0 -6
BITMAP
FFF8
FFF8
FFF8
0700
0700
0700
0700
0700
0700
0700
0700
0700
0700
0700
0700
0000
0000
0700
0700
0300
0600
ENDCHAR
STARTCHAR 021B
ENCODING 539
SWIDTH 432 0
DWIDTH 9 0
BBX 8 19 0 -5
BITMAP
38
38
38
FF
FF
3F
38
38
38
38
38
3F
1F
0F
00
0E
0E
06
0C
ENDCHAR
STARTCHAR 021E
ENCODING 542
SWIDTH 816 0
DWIDTH 17 0
BBX 13 19 2 0
BITMAP
18C0
0F80
0700
0000
E038
E038
E038
E038
E038
E038
FFF8
FFF8
FFF8
E038
E038
E038
E038
E038
E038
ENDCHAR
STARTCHAR 021F
ENCODING 543
SWIDTH 672 0
DWIDTH 14 0
BBX 14 20 -1 0
BITMAP
E700
7E00
3C00
0000
3C00
3C00
3C00
3C00
3C00
3DF0
3FF8
3FFC
3E3C
3C1C
3C1C
3C1C
3C1C
3C1C
3C1C
3C1C
ENDCHAR
STARTCHAR 022A
ENCODING 554
SWIDTH 864 0
DWIDTH 18 0
BBX 16 21 1 0
BITMAP
0FF0
0FF0
0660
0EE0
0660
0000
07E0
1FF8
3FFC
783E
F01E
F00F
E00F
E00F
E00F
F00F
F01E
783E
3FFC
1FF8
07E0
ENDCHAR
STARTCHAR 022B
ENCODING 555
SWIDTH 672 0
DWIDTH 14 0
BBX 12 19 1 0
BITMAP
3FC0
3FC0
0000
1980
3B80
1980
0000
0000
1F00
3FC0
7FE0
F0F0
E070
E070
E070
F0F0
7FE0
7FC0
1F00
ENDCHAR
STARTCHAR 022C
ENCODING 556
SWIDTH 864 0
DWIDTH 18 0
BBX 16 21 1 0
BITMAP
0FF0
0FF0
0600
0FF0
0CE0
0000
07E0
1FF8
3FFC
783E
F01E
F00F
E00F
E00F
E00F
F00F
F01E
783E
3FFC
1FF8
07E0
ENDCHAR
STARTCHAR 022D
ENCODING 557
SWIDTH 672 0
DWIDTH 14 0
BBX 12 18 1 0
BITMAP
3FC0
3FC0
0000
1CC0
3F80
3300
0000
1F00
3FC0
7FE0
F0F0
E070
E070
E070
F0F0
7FE0
7FC0
1F00
ENDCHAR
STARTCHAR 0230
ENCODING 560
SWIDTH 864 0
DWIDTH 18 0
BBX 16 22 1 0
BITMAP
0FF0
0FF0
0000
0180
0380
0180
0000
07E0
1FF8
3FFC
783E
F01E
F00F
E00F
E00F
E00F
F00F
F01E
783E
3FFC
1FF8
07E0
ENDCHAR
STARTCHAR 0231
ENCODING 561
SWIDTH 672 0
DWIDTH 14 0
BBX 12 19 1 0
BITMAP
3FC0
3FC0
0000
0600
0E00
0600
0000
0000
1F00
3FC0
7FE0
F0F0
E070
E070
E070
F0F0
7FE0
7FC0
1F00
ENDCHAR
STARTCHAR 0232
ENCODING 562
SWIDTH 672 0
DWIDTH 14 0
BBX 14 19 0 0
BITMAP
1FE0
1FE0
0000
0000
F01C
703C
7838
3870
3CF0
1CE0
1FE0
0FC0
0780
0780
0780
0780
0780
0780
0780
ENDCHAR
STARTCHAR 0233
ENCODING 563
SWIDTH 576 0
DWIDTH 12 0
BBX 12 19 0 -4
BITMAP
3FC0
3FC0
0000
0000
E070
F070
70F0
78E0
38E0
3DC0
1DC0
1F80
0F80
0F00
0F00
0F00
7E00
FC00
7800
ENDCHAR
STARTCHAR 0237
ENCODING 567
SWIDTH 288 0
DWIDTH 6 0
BBX 7 15 -2 -4
BITMAP
0E
0E
0E
0E
0E
0E
0E
0E
0E
0E
0E
0E
7E
FC
F8
ENDCHAR
STARTCHAR 0259
ENCODING 601
SWIDTH 624 0
DWIDTH 13 0
BBX 11 11 1 0
BITMAP
3F00
7FC0
7FC0
01E0
00E0
FFE0
FFE0
E0E0
FBE0
7FC0
1F00
ENDCHAR
STARTCHAR 0292
ENCODING 658
SWIDTH 576 0
DWIDTH 12 0
BBX 11 15 0 -4
BITMAP
FFC0
FFC0
FFC0
0380
0700
0E00
1F80
1FC0
03E0
00E0
00E0
C1E0
FFC0
FFC0
3F00
ENDCHAR
STARTCHAR 02B9
ENCODING 697
SWIDTH 240 0
DWIDTH 5 0
BBX 3 6 1 9
BITMAP
E0
E0
E0
E0
E0
E0
ENDCHAR
STARTCHAR 02BA
ENCODING 698
SWIDTH 432 0
DWIDTH 9 0
BBX 7 6 1 9
BITMAP
EE
EE
EE
EE
EE
EE
ENDCHAR
STARTCHAR 02BB
ENCODING 699
SWIDTH 288 0
DWIDTH 6 0
BBX 4 7 1 12
BITMAP
70
60
60
E0
F0
F0
E0
ENDCHAR
STARTCHAR 02BC
ENCODING 700
SWIDTH 192 0
DWIDTH 4 0
BBX 2 5 1 10
BITMAP
C0
C0
C0
C0
C0
ENDCHAR
STARTCHAR 02BE
ENCODING 702
SWIDTH 624 0
DWIDTH 13 0
BBX 3 5 6 12
BITMAP
C0
60
60
60
C0
ENDCHAR
STARTCHAR 02BF
ENCODING 703
SWIDTH 624 0
DWIDTH 13 0
BBX 2 5 4 12
BITMAP
C0
80
80
80
40
ENDCHAR
STARTCHAR 02C6
ENCODING 710
SWIDTH 624 0
DWIDTH 13 0
BBX 7 3 3 13
BITMAP
78
FC
CE
ENDCHAR
STARTCHAR 02C7
ENCODING 711
SWIDTH 624 0
DWIDTH 13 0
BBX 7 3 3 13
BITMAP
CE
FC
78
ENDCHAR
STARTCHAR 02C8
ENCODING 712
SWIDTH 192 0
DWIDTH 4 0
BBX 2 4 1 11
BITMAP
C0
C0
C0
C0
ENDCHAR
STARTCHAR 02C9
ENCODING 713
SWIDTH 624 0
DWIDTH 13 0
BBX 8 2 2 13
BITMAP
FF
FF
ENDCHAR
STARTCHAR 02CA
ENCODING 714
SWIDTH 624 0
DWIDTH 13 0
BBX 5 3 5 13
BITMAP
38
70
E0
ENDCHAR
STARTCHAR 02CB
ENCODING 715
SWIDTH 624 0
DWIDTH 13 0
BBX 6 3 2 13
BITMAP
F0
38
1C
ENDCHAR
STARTCHAR 02CC
ENCODING 716
SWIDTH 192 0
DWIDTH 4 0
BBX 2 4 1 -5
BITMAP
C0
C0
C0
C0
ENDCHAR
STARTCHAR 02D8
ENCODING 728
SWIDTH 624 0
DWIDTH 13 0
BBX 8 3 2 13
BITMAP
E3
7F
3E
ENDCHAR
STARTCHAR 02D9
ENCODING 729
SWIDTH 624 0
DWIDTH 13 0
BBX 3 3 5 14
BITMAP
E0
E0
C0
ENDCHAR
STARTCHAR 02DA
ENCODING 730
SWIDTH 624 0
DWIDTH 13 0
BBX 5 5 4 12
BITMAP
F0
98
98
98
70
ENDCHAR
STARTCHAR 02DB
ENCODING 731
SWIDTH 624 0
DWIDTH 13 0
BBX 5 6 2 -5
BITMAP
20
70
C0
C0
F8
60
ENDCHAR
STARTCHAR 02DC
ENCODING 732
SWIDTH 624 0
DWIDTH 13 0
BBX 8 3 2 13
BITMAP
73
7F
CE
ENDCHAR
STARTCHAR 02DD
ENCODING 733
SWIDTH 624 0
DWIDTH 13 0
BBX 8 3 3 13
BITMAP
77
67
EE
ENDCHAR
STARTCHAR 0300
ENCODING 768
SWIDTH 0 0
DWIDTH 0 0
BBX 5 3 -10 13
BITMAP
E0
70
38
ENDCHAR
STARTCHAR 0301
ENCODING 769
SWIDTH 0 0
DWIDTH 0 0
BBX 6 3 -8 13
BITMAP
3C
70
E0
ENDCHAR
STARTCHAR 0302
ENCODING 770
SWIDTH 0 0
DWIDTH 0 0
BBX 7 3 -10 13
BITMAP
3C
7E
E6
ENDCHAR
STARTCHAR 0303
ENCODING 771
SWIDTH 0 0
DWIDTH 0 0
BBX 8 3 -10 13
BITMAP
73
FE
CE
ENDCHAR
STARTCHAR 0304
ENCODING 772
SWIDTH 0 0
DWIDTH 0 0
BBX 8 2 -10 13
BITMAP
FF
FF
ENDCHAR
STARTCHAR 0306
ENCODING 774
SWIDTH 0 0
DWIDTH 0 0
BBX 8 3 -10 13
BITMAP
C7
FE
7C
ENDCHAR
STARTCHAR 0307
ENCODING 775
SWIDTH 0 0
DWIDTH 0 0
BBX 3 3 -8 14
BITMAP
E0
E0
E0
ENDCHAR
STARTCHAR 0308
ENCODING 776
SWIDTH 0 0
DWIDTH 0 0
BBX 7 3 -10 13
BITMAP
66
EE
66
ENDCHAR
STARTCHAR 0309
ENCODING 777
SWIDTH 0 0
DWIDTH 0 0
BBX 4 5 -8 12
BITMAP
E0
F0
30
30
20
ENDCHAR
STARTCHAR 030A
ENCODING 778
SWIDTH 0 0
DWIDTH 0 0
BBX 5 5 -9 12
BITMAP
78
C8
88
D8
70
ENDCHAR
STARTCHAR 030B
ENCODING 779
SWIDTH 0 0
DWIDTH 0 0
BBX 8 3 -9 13
BITMAP
77
EE
CC
ENDCHAR
STARTCHAR 030C
ENCODING 780
SWIDTH 0 0
DWIDTH 0 0
BBX 7 3 -10 13
BITMAP
E6
7E
3C
ENDCHAR
STARTCHAR 030F
ENCODING 783
SWIDTH 0 0
DWIDTH 0 0
BBX 8 3 -11 13
BITMAP
EE
E6
77
ENDCHAR
STARTCHAR 0311
ENCODING 785
SWIDTH 0 0
DWIDTH 0 0
BBX 7 3 -10 13
BITMAP
3C
FE
C6
ENDCHAR
STARTCHAR 0312
ENCODING 786
SWIDTH 0 0
DWIDTH 0 0
BBX 3 4 -8 13
BITMAP
60
60
E0
E0
ENDCHAR
STARTCHAR 031B
ENCODING 795
SWIDTH 0 0
DWIDTH 0 0
BBX 4 5 -7 9
BITMAP
30
30
30
F0
E0
ENDCHAR
STARTCHAR 0323
ENCODING 803
SWIDTH 0 0
DWIDTH 0 0
BBX 3 3 -8 -4
BITMAP
60
E0
60
ENDCHAR
STARTCHAR 0324
ENCODING 804
SWIDTH 0 0
DWIDTH 0 0
BBX 7 3 -10 -4
BITMAP
66
EE
66
ENDCHAR
STARTCHAR 0326
ENCODING 806
SWIDTH 0 0
DWIDTH 0 0
BBX 3 4 -8 -6
BITMAP
60
E0
60
40
ENDCHAR
STARTCHAR 0327
ENCODING 807
SWIDTH 0 0
DWIDTH 0 0
BBX 5 5 -9 -5
BITMAP
20
78
18
F8
20
ENDCHAR
STARTCHAR 0328
ENCODING 808
SWIDTH 0 0
DWIDTH 0 0
BBX 5 6 -11 -5
BITMAP
10
70
C0
C0
78
30
ENDCHAR
STARTCHAR 032E
ENCODING 814
SWIDTH 0 0
DWIDTH 0 0
BBX 7 3 -10 -5
BITMAP
C6
7E
18
ENDCHAR
STARTCHAR 0331
ENCODING 817
SWIDTH 0 0
DWIDTH 0 0
BBX 8 2 -10 -4
BITMAP
FF
FF
ENDCHAR
STARTCHAR 0335
ENCODING 821
SWIDTH 0 0
DWIDTH 0 0
BBX 9 2 -11 8
BITMAP
FF80
FF80
ENDCHAR
STARTCHAR 0336
ENCODING 822
SWIDTH 0 0
DWIDTH 0 0
BBX 17 2 -18 8
BITMAP
FFFF80
FFFF80
ENDCHAR
STARTCHAR 0337
ENCODING 823
SWIDTH 0 0
DWIDTH 0 0
BBX 8 6 -9 4
BITMAP
02
0F
1E
38
F0
E0
ENDCHAR
STARTCHAR 0338
ENCODING 824
SWIDTH 0 0
DWIDTH 0 0
BBX 11 14 -12 -1
BITMAP
0060
00C0
0080
0180
0300
0200
0600
0C00
0800
1800
3000
2000
6000
C000
ENDCHAR
STARTCHAR 0394
ENCODING 916
SWIDTH 768 0
DWIDTH 16 0
BBX 16 15 0 0
BITMAP
03C0
03C0
07E0
07E0
0EF0
0E70
1E70
1C38
1C38
383C
381C
781E
7FFE
FFFF
FFFF
ENDCHAR
STARTCHAR 03A9
ENCODING 937
SWIDTH 912 0
DWIDTH 19 0
BBX 18 15 0 0
BITMAP
03F000
0FFC00
1FFE00
3E0F00
3C0780
380780
780380
780380
780380
380780
3C0700
1C0F00
FF1FC0
FF1FC0
FF1FC0
ENDCHAR
STARTCHAR 03BC
ENCODING 956
SWIDTH 672 0
DWIDTH 14 0
BBX 12 15 1 -4
BITMAP
F070
F070
F070
F070
F070
F070
F0F0
F0F0
FFF0
FFF0
FF70
F000
F000
F000
F000
ENDCHAR
STARTCHAR 03C0
ENCODING 960
SWIDTH 720 0
DWIDTH 15 0
BBX 15 11 0 0
BITMAP
7FFE
FFFE
EE70
CE70
EE70
CE70
0E70
0E70
0E70
0E70
0C70
ENDCHAR
STARTCHAR 0400
ENCODING 1024
SWIDTH 672 0
DWIDTH 14 0
BBX 11 19 2 0
BITMAP
3800
1C00
0E00
0000
FFE0
FFE0
FFE0
E000
E000
E000
FFC0
FFC0
FFC0
E000
E000
E000
FFE0
FFE0
FFE0
ENDCHAR
STARTCHAR 0401
ENCODING 1025
SWIDTH 672 0
DWIDTH 14 0
BBX 11 19 2 0
BITMAP
3380
3B80
3300
0000
FFE0
FFE0
FFE0
E000
E000
E000
FFC0
FFC0
FFC0
E000
E000
E000
FFE0
FFE0
FFE0
ENDCHAR
STARTCHAR 0402
ENCODING 1026
SWIDTH 864 0
DWIDTH 18 0
BBX 17 15 0 0
BITMAP
FFFC00
FFFC00
FFFC00
070000
070000
073C00
07FF00
07FF00
078780
070380
070380
070780
071F80
073F00
073E00
ENDCHAR
STARTCHAR 0403
ENCODING 1027
SWIDTH 576 0
DWIDTH 12 0
BBX 10 19 2 0
BITMAP
0780
0E00
1C00
0000
FFC0
FFC0
FFC0
E000
E000
E000
E000
E000
E000
E000
E000
E000
E000
E000
E000
ENDCHAR
STARTCHAR 0404
ENCODING 1028
SWIDTH 720 0
DWIDTH 15 0
BBX 13 15 1 0
BITMAP
07C0
1FF0
3FF8
7838
F010
F000
FF80
FF80
FF80
F000
F000
7830
3FF8
1FF0
07C0
ENDCHAR
STARTCHAR 0405
ENCODING 1029
SWIDTH 672 0
DWIDTH 14 0
BBX 12 15 1 0
BITMAP
1FC0
7FE0
7FE0
F040
E000
F000
7E00
7FC0
1FE0
01F0
00F0
40F0
FFE0
FFE0
3F80
ENDCHAR
STARTCHAR 0406
ENCODING 1030
SWIDTH 336 0
DWIDTH 7 0
BBX 3 15 2 0
BITMAP
E0
E0
E0
E0
E0
E0
E0
E0
E0
E0
E0
E0
E0
E0
E0
ENDCHAR
STARTCHAR 0407
ENCODING 1031
SWIDTH 336 0
DWIDTH 7 0
BBX 7 19 0 0
BITMAP
CE
EE
C6
00
38
38
38
38
38
38
38
38
38
38
38
38
38
38
38
ENDCHAR
STARTCHAR 0408
ENCODING 1032
SWIDTH 576 0
DWIDTH 12 0
BBX 9 15 1 0
BITMAP
7F80
7F80
7F80
0380
0380
0380
0380
0380
0380
0380
0380
C780
FF80
FF00
7E00
ENDCHAR
STARTCHAR 0409
ENCODING 1033
SWIDTH 1200 0
DWIDTH 25 0
BBX 24 15 0 0
BITMAP
0FFE00
0FFE00
0FFE00
1C1E00
1C1E00
1C1FF8
1C1FFE
1C1E3F
1C1E0F
1C1E07
1C1E07
3C1E0F
F81E3E
F81FFE
F01FF8
ENDCHAR
STARTCHAR 040A
ENCODING 1034
SWIDTH 1152 0
DWIDTH 24 0
BBX 22 15 2 0
BITMAP
E03800
E03800
E03800
E03800
E03800
E03800
FFFFF0
FFFFF8
FFF83C
E0383C
E0383C
E0383C
E038F8
E03FF8
E03FE0
ENDCHAR
STARTCHAR 040B
ENCODING 1035
SWIDTH 864 0
DWIDTH 18 0
BBX 17 15 0 0
BITMAP
FFF800
FFF800
FFF800
070000
070000
070000
077C00
07FF00
07FF00
070780
070380
070380
070380
070380
070380
ENDCHAR
STARTCHAR 040C
ENCODING 1036
SWIDTH 720 0
DWIDTH 15 0
BBX 13 19 2 0
BITMAP
03C0
0700
0E00
0000
E078
E0F0
E0E0
E1E0
E1C0
E380
FF80
FF00
FF80
E3C0
E3C0
E1E0
E0E0
E0F0
E078
ENDCHAR
STARTCHAR 040D
ENCODING 1037
SWIDTH 816 0
DWIDTH 17 0
BBX 13 19 2 0
BITMAP
1C00
0E00
0700
0000
E038
E078
E0F8
E0F8
E1F8
E3F8
E7B8
E738
EF38
FE38
FC38
F838
F838
F038
E038
ENDCHAR
STARTCHAR 040E
ENCODING 1038
SWIDTH 720 0
DWIDTH 15 0
BBX 15 19 0 0
BITMAP
1C60
0FE0
07C0
0000
F01E
781C
383C
3C38
1C78
1C70
0EF0
0EE0
07C0
07C0
0380
0780
3F00
3E00
7C00
ENDCHAR
STARTCHAR 040F
ENCODING 1039
SWIDTH 816 0
DWIDTH 17 0
BBX 13 18 2 -3
BITMAP
E038
E038
E038
E038
E038
E038
E038
E038
E038
E038
E038
E038
FFF8
FFF8
FFF8
0700
0700
0700
ENDCHAR
STARTCHAR 0410
ENCODING 1040
SWIDTH 816 0
DWIDTH 17 0
BBX 16 15 0 0
BITMAP
03C0
03E0
03E0
07F0
0770
0E70
0E38
1E38
1C3C
1FFC
3FFE
3FFE
780E
700F
F007
ENDCHAR
STARTCHAR 0411
ENCODING 1041
SWIDTH 720 0
DWIDTH 15 0
BBX 13 15 2 0
BITMAP
FFF0
FFF0
FFF0
E000
E000
E000
FFC0
FFF0
E1F0
E078
E078
E070
E1F0
FFE0
FFC0
ENDCHAR
STARTCHAR 0412
ENCODING 1042
SWIDTH 768 0
DWIDTH 16 0
BBX 13 15 2 0
BITMAP
FFC0
FFE0
E3F0
E0F0
E070
E0F0
FFE0
FFE0
E0F0
E078
E078
E078
E1F0
FFF0
FFC0
ENDCHAR
STARTCHAR 0413
ENCODING 1043
SWIDTH 576 0
DWIDTH 12 0
BBX 10 15 2 0
BITMAP
FFC0
FFC0
FFC0
E000
E000
E000
E000
E000
E000
E000
E000
E000
E000
E000
E000
ENDCHAR
STARTCHAR 0414
ENCODING 1044
SWIDTH 816 0
DWIDTH 17 0
BBX 17 18 0 -3
BITMAP
0FFE00
0FFE00
0FFE00
1C1E00
1C1E00
1C1E00
1C1E00
1C1E00
1C1E00
1C1E00
1C1E00
381E00
FFFF80
FFFF80
FFFF80
E00380
E00380
E00380
ENDCHAR
STARTCHAR 0415
ENCODING 1045
SWIDTH 672 0
DWIDTH 14 0
BBX 11 15 2 0
BITMAP
FFE0
FFE0
FFE0
E000
E000
E000
FFC0
FFC0
FFC0
E000
E000
E000
FFE0
FFE0
FFE0
ENDCHAR
STARTCHAR 0416
ENCODING 1046
SWIDTH 1056 0
DWIDTH 22 0
BBX 21 15 1 0
BITMAP
E07078
F07070
7070F0
3870E0
3871C0
1C73C0
1FFF80
0FFF80
1FFFC0
3C73C0
3C71E0
7871E0
7870F0
F070F0
E07078
ENDCHAR
STARTCHAR 0417
ENCODING 1047
SWIDTH 672 0
DWIDTH 14 0
BBX 12 15 1 0
BITMAP
3F00
FFC0
FFE0
01E0
00E0
01E0
3FC0
3FC0
3FE0
00F0
00F0
80F0
FFE0
FFC0
3F80
ENDCHAR
STARTCHAR 0418
ENCODING 1048
SWIDTH 816 0
DWIDTH 17 0
BBX 13 15 2 0
BITMAP
E038
E078
E0F8
E0F8
E1F8
E3F8
E7B8
E738
EF38
FE38
FC38
F838
F838
F038
E038
ENDCHAR
STARTCHAR 0419
ENCODING 1049
SWIDTH 816 0
DWIDTH 17 0
BBX 13 19 2 0
BITMAP
18E0
1FC0
0F80
0000
E038
E078
E0F8
E0F8
E1F8
E3F8
E7B8
E738
EF38
FE38
FC38
F838
F838
F038
E038
ENDCHAR
STARTCHAR 041A
ENCODING 1050
SWIDTH 720 0
DWIDTH 15 0
BBX 13 15 2 0
BITMAP
E078
E0F0
E0E0
E1E0
E1C0
E380
FF80
FF00
FF80
E3C0
E3C0
E1E0
E0E0
E0F0
E078
ENDCHAR
STARTCHAR 041B
ENCODING 1051
SWIDTH 816 0
DWIDTH 17 0
BBX 15 15 0 0
BITMAP
0FFE
0FFE
0FFE
1C1E
1C1E
1C1E
1C1E
1C1E
1C1E
1C1E
1C1E
3C1E
F81E
F81E
F01E
ENDCHAR
STARTCHAR 041C
ENCODING 1052
SWIDTH 960 0
DWIDTH 20 0
BBX 16 15 2 0
BITMAP
E007
E007
F00F
F81F
F81F
FC3F
FC3F
EE77
EF77
E7E7
E3C7
E3C7
E187
E007
E007
ENDCHAR
STARTCHAR 041D
ENCODING 1053
SWIDTH 816 0
DWIDTH 17 0
BBX 13 15 2 0
BITMAP
E038
E038
E038
E038
E038
E038
FFF8
FFF8
FFF8
E038
E038
E038
E038
E038
E038
ENDCHAR
STARTCHAR 041E
ENCODING 1054
SWIDTH 864 0
DWIDTH 18 0
BBX 16 15 1 0
BITMAP
07E0
1FF8
3FFC
783E
F01E
F00E
E00F
E00F
E00F
F00E
F01E
783E
3FFC
1FF8
07E0
ENDCHAR
STARTCHAR 041F
ENCODING 1055
SWIDTH 816 0
DWIDTH 17 0
BBX 13 15 2 0
BITMAP
FFF8
FFF8
FFF8
E038
E038
E038
E038
E038
E038
E038
E038
E038
E038
E038
E038
ENDCHAR
STARTCHAR 0420
ENCODING 1056
SWIDTH 720 0
DWIDTH 15 0
BBX 12 15 2 0
BITMAP
FF80
FFE0
FFF0
E0F0
E070
E070
E070
E0F0
FFF0
FFE0
FF00
E000
E000
E000
E000
ENDCHAR
STARTCHAR 0421
ENCODING 1057
SWIDTH 720 0
DWIDTH 15 0
BBX 14 15 1 0
BITMAP
07E0
1FF0
3FF8
7838
F010
F000
E000
E000
E000
F000
F010
7838
3FFC
1FF8
07E0
ENDCHAR
STARTCHAR 0422
ENCODING 1058
SWIDTH 624 0
DWIDTH 13 0
BBX 13 15 0 0
BITMAP
FFF8
FFF8
FFF8
0700
0700
0700
0700
0700
0700
0700
0700
0700
0700
0700
0700
ENDCHAR
STARTCHAR 0423
ENCODING 1059
SWIDTH 720 0
DWIDTH 15 0
BBX 15 15 0 0
BITMAP
F01E
781C
383C
3C38
1C78
1C70
0EF0
0EE0
07C0
07C0
0380
0780
3F00
3E00
7C00
ENDCHAR
STARTCHAR 0424
ENCODING 1060
SWIDTH 960 0
DWIDTH 20 0
BBX 18 16 1 -1
BITMAP
01C000
03F000
1FFE00
7FFF00
79C780
F1C3C0
E1C1C0
E1C1C0
E1C1C0
E1C3C0
F1C780
7FFF80
3FFF00
0FFC00
01C000
01C000
ENDCHAR
STARTCHAR 0425
ENCODING 1061
SWIDTH 720 0
DWIDTH 15 0
BBX 13 15 1 0
BITMAP
F078
70F0
78F0
3DE0
1FC0
1FC0
0F80
0F80
0F80
1FC0
3DE0
39E0
78F0
F078
E038
ENDCHAR
STARTCHAR 0426
ENCODING 1062
SWIDTH 864 0
DWIDTH 18 0
BBX 15 18 2 -3
BITMAP
E038
E038
E038
E038
E038
E038
E038
E038
E038
E038
E038
E038
FFFE
FFFE
FFFE
000E
000E
000E
ENDCHAR
STARTCHAR 0427
ENCODING 1063
SWIDTH 768 0
DWIDTH 16 0
BBX 13 15 1 0
BITMAP
E078
E078
E078
E078
E078
E078
F078
7FF8
7FF8
1FF8
0078
0078
0078
0078
0078
ENDCHAR
STARTCHAR 0428
ENCODING 1064
SWIDTH 1104 0
DWIDTH 23 0
BBX 19 15 2 0
BITMAP
E0E0E0
E0E0E0
E0E0E0
E0E0E0
E0E0E0
E0E0E0
E0E0E0
E0E0E0
E0E0E0
E0E0E0
E0E0E0
E0E0E0
FFFFE0
FFFFE0
FFFFE0
ENDCHAR
STARTCHAR 0429
ENCODING 1065
SWIDTH 1152 0
DWIDTH 24 0
BBX 21 18 2 -3
BITMAP
E0E0E0
E0E0E0
E0E0E0
E0E0E0
E0E0E0
E0E0E0
E0E0E0
E0E0E0
E0E0E0
E0E0E0
E0E0E0
E0E0E0
FFFFF8
FFFFF8
FFFFF8
000038
000038
000038
ENDCHAR
STARTCHAR 042A
ENCODING 1066
SWIDTH 864 0
DWIDTH 18 0
BBX 17 15 0 0
BITMAP
FF0000
FF0000
FF0000
0F0000
0F0000
0FFC00
0FFF00
0F1F80
0F0780
0F0380
0F0380
0F0780
0F1F00
0FFF00
0FFC00
ENDCHAR
STARTCHAR 042B
ENCODING 1067
SWIDTH 1008 0
DWIDTH 21 0
BBX 18 15 2 0
BITMAP
E003C0
E003C0
E003C0
E003C0
E003C0
FFC3C0
FFE3C0
E3F3C0
E073C0
E073C0
E073C0
E073C0
E3F3C0
FFE3C0
FF83C0
ENDCHAR
STARTCHAR 042C
ENCODING 1068
SWIDTH 720 0
DWIDTH 15 0
BBX 12 15 2 0
BITMAP
E000
E000
E000
E000
E000
FFC0
FFE0
E3F0
E070
E070
E070
E070
E3F0
FFE0
FF80
ENDCHAR
STARTCHAR 042D
ENCODING 1069
SWIDTH 720 0
DWIDTH 15 0
BBX 14 15 0 0
BITMAP
1F80
3FE0
FFF0
7078
2038
003C
07FC
07FC
07FC
003C
2038
7078
FFF0
3FE0
1F80
ENDCHAR
STARTCHAR 042E
ENCODING 1070
SWIDTH 1104 0
DWIDTH 23 0
BBX 20 15 2 0
BITMAP
E03F00
E0FF80
E1FFE0
E3C1E0
E380F0
E78070
FF0070
FF0070
FF0070
E78070
E380F0
E3C1E0
E1FFE0
E0FF80
E03F00
ENDCHAR
STARTCHAR 042F
ENCODING 1071
SWIDTH 720 0
DWIDTH 15 0
BBX 12 15 1 0
BITMAP
1FF0
3FF0
7FF0
F070
E070
E070
E070
F070
7FF0
7FF0
1FF0
3C70
3870
7070
F070
ENDCHAR
STARTCHAR 0430
ENCODING 1072
SWIDTH 624 0
DWIDTH 13 0
BBX 10 11 1 0
BITMAP
3F00
FF80
7FC0
01C0
3FC0
FFC0
E1C0
E1C0
E3C0
FFC0
7DC0
ENDCHAR
STARTCHAR 0431
ENCODING 1073
SWIDTH 672 0
DWIDTH 14 0
BBX 12 16 1 0
BITMAP
01E0
0FF0
3FF0
7E00
7000
F000
EFC0
FFE0
F8F0
F070
E070
F070
70F0
7FF0
3FE0
0F80
ENDCHAR
STARTCHAR 0432
ENCODING 1074
SWIDTH 624 0
DWIDTH 13 0
BBX 10 11 2 0
BITMAP
FF00
FF80
E3C0
E1C0
FF80
FF80
E1C0
E1C0
E1C0
FFC0
FF00
ENDCHAR
STARTCHAR 0433
ENCODING 1075
SWIDTH 528 0
DWIDTH 11 0
BBX 9 11 2 0
BITMAP
FF80
FF80
FF80
E000
E000
E000
E000
E000
E000
E000
E000
ENDCHAR
STARTCHAR 0434
ENCODING 1076
SWIDTH 720 0
DWIDTH 15 0
BBX 14 13 0 -2
BITMAP
1FF8
1FF8
1FF8
1C78
1C78
3878
3878
3878
FFFC
FFFC
FFFC
E01C
E01C
ENDCHAR
STARTCHAR 0435
ENCODING 1077
SWIDTH 624 0
DWIDTH 13 0
BBX 11 11 1 0
BITMAP
1F00
7FC0
FBE0
E0E0
FFE0
FFE0
E000
F000
7FC0
3FC0
1F80
ENDCHAR
STARTCHAR 0436
ENCODING 1078
SWIDTH 912 0
DWIDTH 19 0
BBX 19 11 0 0
BITMAP
70E1C0
78E3C0
38E380
3CE780
1FFF00
0FFE00
1FFF00
3CE780
38E380
78E3C0
F0E1E0
ENDCHAR
STARTCHAR 0437
ENCODING 1079
SWIDTH 576 0
DWIDTH 12 0
BBX 10 11 1 0
BITMAP
7E00
FF80
FFC0
0380
1F80
1F80
03C0
01C0
F7C0
FF80
7E00
ENDCHAR
STARTCHAR 0438
ENCODING 1080
SWIDTH 720 0
DWIDTH 15 0
BBX 11 11 2 0
BITMAP
E0E0
E1E0
E3E0
E7E0
EFE0
EEE0
FCE0
F8E0
F8E0
F0E0
E0E0
ENDCHAR
STARTCHAR 0439
ENCODING 1081
SWIDTH 720 0
DWIDTH 15 0
BBX 11 16 2 0
BITMAP
3180
3F80
1F00
0000
0000
E0E0
E1E0
E3E0
E7E0
EFE0
EEE0
FCE0
F8E0
F8E0
F0E0
E0E0
ENDCHAR
STARTCHAR 043A
ENCODING 1082
SWIDTH 624 0
DWIDTH 13 0
BBX 11 11 2 0
BITMAP
E1E0
E1C0
E380
E780
FF00
FE00
FF00
E780
E380
E3C0
E1E0
ENDCHAR
STARTCHAR 043B
ENCODING 1083
SWIDTH 672 0
DWIDTH 14 0
BBX 12 11 0 0
BITMAP
1FF0
1FF0
1FF0
1870
1870
3870
3870
3870
F870
F070
F070
ENDCHAR
STARTCHAR 043C
ENCODING 1084
SWIDTH 816 0
DWIDTH 17 0
BBX 13 11 2 0
BITMAP
E038
F078
F078
F8F8
D8F8
DDF8
CFB8
CFB8
C738
C238
C038
ENDCHAR
STARTCHAR 043D
ENCODING 1085
SWIDTH 672 0
DWIDTH 14 0
BBX 11 11 2 0
BITMAP
E0E0
E0E0
E0E0
E0E0
FFE0
FFE0
FFE0
E0E0
E0E0
E0E0
E0E0
ENDCHAR
STARTCHAR 043E
ENCODING 1086
SWIDTH 672 0
DWIDTH 14 0
BBX 12 11 1 0
BITMAP
1F00
7FC0
7FE0
F0F0
E070
E070
E070
F0F0
7FE0
7FC0
1F00
ENDCHAR
STARTCHAR 043F
ENCODING 1087
SWIDTH 672 0
DWIDTH 14 0
BBX 11 11 2 0
BITMAP
FFE0
FFE0
FFE0
E1E0
E1E0
E1E0
E1E0
E1E0
E1E0
E1E0
E1E0
ENDCHAR
STARTCHAR 0440
ENCODING 1088
SWIDTH 672 0
DWIDTH 14 0
BBX 12 15 2 -4
BITMAP
EF80
FFC0
FFE0
E0E0
E0F0
E0F0
E0F0
E0E0
FFE0
FFC0
EF80
E000
E000
E000
E000
ENDCHAR
STARTCHAR 0441
ENCODING 1089
SWIDTH 576 0
DWIDTH 12 0
BBX 11 11 1 0
BITMAP
1F00
3FC0
7FE0
F0C0
E000
E000
E000
F0C0
7FE0
7FC0
1F00
ENDCHAR
STARTCHAR 0442
ENCODING 1090
SWIDTH 528 0
DWIDTH 11 0
BBX 11 11 0 0
BITMAP
FFE0
FFE0
FFE0
0E00
0E00
0E00
0E00
0E00
0E00
0E00
0E00
ENDCHAR
STARTCHAR 0443
ENCODING 1091
SWIDTH 624 0
DWIDTH 13 0
BBX 13 15 0 -4
BITMAP
F078
7070
7070
38E0
38E0
3DC0
1DC0
1F80
0F80
0F80
0700
0700
7E00
FE00
7800
ENDCHAR
STARTCHAR 0444
ENCODING 1092
SWIDTH 864 0
DWIDTH 18 0
BBX 16 20 1 -4
BITMAP
0380
0380
0380
0380
0380
1FF0
7FFC
FFFE
F38F
E387
E387
E387
E38F
7BBE
3FFC
0FF0
0380
0380
0380
0380
ENDCHAR
STARTCHAR 0445
ENCODING 1093
SWIDTH 576 0
DWIDTH 12 0
BBX 12 11 0 0
BITMAP
70F0
78E0
3DC0
1F80
0F80
0F00
0F80
1FC0
39C0
79E0
F0F0
ENDCHAR
STARTCHAR 0446
ENCODING 1094
SWIDTH 720 0
DWIDTH 15 0
BBX 12 13 2 -2
BITMAP
E1E0
E1E0
E1E0
E1E0
E1E0
E1E0
E1E0
E1E0
FFF0
FFF0
FFF0
0070
0070
ENDCHAR
STARTCHAR 0447
ENCODING 1095
SWIDTH 624 0
DWIDTH 13 0
BBX 11 11 1 0
BITMAP
E1E0
E1E0
E1E0
E1E0
E1E0
FFE0
7FE0
01E0
01E0
01E0
01E0
ENDCHAR
STARTCHAR 0448
ENCODING 1096
SWIDTH 960 0
DWIDTH 20 0
BBX 17 11 2 0
BITMAP
E1C780
E1C780
E1C780
E1C780
E1C780
E1C780
E1C780
E1C780
FFFF80
FFFF80
FFFF80
ENDCHAR
STARTCHAR 0449
ENCODING 1097
SWIDTH 960 0
DWIDTH 20 0
BBX 18 13 2 -2
BITMAP
E1C780
E1C780
E1C780
E1C780
E1C780
E1C780
E1C780
E1C780
FFFFC0
FFFFC0
FFFFC0
0001C0
0001C0
ENDCHAR
STARTCHAR 044A
ENCODING 1098
SWIDTH 672 0
DWIDTH 14 0
BBX 14 11 0 0
BITMAP
FE00
FE00
FE00
1E00
1FF0
1FF8
1E3C
1E3C
1E3C
1FF8
1FF0
ENDCHAR
STARTCHAR 044B
ENCODING 1099
SWIDTH 864 0
DWIDTH 18 0
BBX 14 11 2 0
BITMAP
E01C
E01C
E01C
E01C
FF1C
FF9C
E3DC
E1DC
E3DC
FF9C
FF1C
ENDCHAR
STARTCHAR 044C
ENCODING 1100
SWIDTH 624 0
DWIDTH 13 0
BBX 10 11 2 0
BITMAP
E000
E000
E000
E000
FF00
FFC0
E1C0
E1C0
E3C0
FF80
FF00
ENDCHAR
STARTCHAR 044D
ENCODING 1101
SWIDTH 576 0
DWIDTH 12 0
BBX 11 11 1 0
BITMAP
3E00
FF80
F7C0
01C0
1FE0
1FE0
01C0
01C0
FFC0
FF80
3E00
ENDCHAR
STARTCHAR 044E
ENCODING 1102
SWIDTH 912 0
DWIDTH 19 0
BBX 16 11 2 0
BITMAP
E0F8
E3FC
E7FE
E70F
FF07
FE07
FF07
E70F
E7FE
E3FC
E0F8
ENDCHAR
STARTCHAR 044F
ENCODING 1103
SWIDTH 624 0
DWIDTH 13 0
BBX 11 11 1 0
BITMAP
3FE0
7FE0
FFE0
E0E0
E0E0
F0E0
7FE0
3FE0
78E0
70E0
E0E0
ENDCHAR
STARTCHAR 0450
ENCODING 1104
SWIDTH 624 0
DWIDTH 13 0
BBX 11 16 1 0
BITMAP
3800
1C00
0E00
0000
0000
1F00
7FC0
FBE0
E0E0
FFE0
FFE0
E000
F000
7FC0
3FC0
1F80
ENDCHAR
STARTCHAR 0451
ENCODING 1105
SWIDTH 624 0
DWIDTH 13 0
BBX 11 16 1 0
BITMAP
3980
3B80
3180
0000
0000
1F00
7FC0
FBE0
E0E0
FFE0
FFE0
E000
F000
7FC0
3FC0
1F80
ENDCHAR
STARTCHAR 0452
ENCODING 1106
SWIDTH 672 0
DWIDTH 14 0
BBX 13 20 0 -4
BITMAP
3800
FF80
FF80
3800
3800
3BE0
3FF0
3FF8
3C78
3838
3838
3838
3838
3838
3838
3838
0038
01F8
01F0
03E0
ENDCHAR
STARTCHAR 0453
ENCODING 1107
SWIDTH 528 0
DWIDTH 11 0
BBX 9 16 2 0
BITMAP
0700
0E00
1800
0000
0000
FF80
FF80
FF80
E000
E000
E000
E000
E000
E000
E000
E000
ENDCHAR
STARTCHAR 0454
ENCODING 1108
SWIDTH 576 0
DWIDTH 12 0
BBX 11 11 1 0
BITMAP
1F80
3FC0
7FE0
F040
E000
FF00
FF00
E000
79C0
7FE0
1F80
ENDCHAR
STARTCHAR 0455
ENCODING 1109
SWIDTH 528 0
DWIDTH 11 0
BBX 10 11 1 0
BITMAP
3F00
7F80
FB80
E000
F000
7F80
3FC0
01C0
F3C0
FF80
7F00
ENDCHAR
STARTCHAR 0456
ENCODING 1110
SWIDTH 288 0
DWIDTH 6 0
BBX 4 16 1 0
BITMAP
70
F0
F0
60
00
70
70
70
70
70
70
70
70
70
70
70
ENDCHAR
STARTCHAR 0457
ENCODING 1111
SWIDTH 288 0
DWIDTH 6 0
BBX 6 16 0 0
BITMAP
CC
FC
CC
00
00
78
78
78
78
78
78
78
78
78
78
78
ENDCHAR
STARTCHAR 0458
ENCODING 1112
SWIDTH 288 0
DWIDTH 6 0
BBX 7 20 -2 -4
BITMAP
0E
1E
1E
0C
00
0E
0E
0E
0E
0E
0E
0E
0E
0E
0E
0E
1E
7E
FC
F8
ENDCHAR
STARTCHAR 0459
ENCODING 1113
SWIDTH 960 0
DWIDTH 20 0
BBX 20 11 0 0
BITMAP
1FF000
1FF000
1FF000
187000
187FC0
187FE0
3870F0
3870F0
F870E0
F07FE0
F07F80
ENDCHAR
STARTCHAR 045A
ENCODING 1114
SWIDTH 960 0
DWIDTH 20 0
BBX 18 11 2 0
BITMAP
E1E000
E1E000
E1E000
E1E000
FFFF00
FFFF80
FFE3C0
E1E1C0
E1E3C0
E1FF80
E1FF00
ENDCHAR
STARTCHAR 045B
ENCODING 1115
SWIDTH 672 0
DWIDTH 14 0
BBX 14 16 -1 0
BITMAP
1C00
FFC0
FFC0
1C00
1C00
1DF0
1FF8
1FFC
1E3C
1C1C
1C1C
1C1C
1C1C
1C1C
1C1C
1C1C
ENDCHAR
STARTCHAR 045C
ENCODING 1116
SWIDTH 624 0
DWIDTH 13 0
BBX 11 16 2 0
BITMAP
0780
0E00
1C00
0000
0000
E1E0
E1C0
E380
E780
FF00
FE00
FF00
E780
E380
E3C0
E1E0
ENDCHAR
STARTCHAR 045D
ENCODING 1117
SWIDTH 720 0
DWIDTH 15 0
BBX 11 16 2 0
BITMAP
7800
1C00
0E00
0000
0000
E0E0
E1E0
E3E0
E7E0
EFE0
EEE0
FCE0
F8E0
F8E0
F0E0
E0E0
ENDCHAR
STARTCHAR 045E
ENCODING 1118
SWIDTH 624 0
DWIDTH 13 0
BBX 13 20 0 -4
BITMAP
38C0
1FC0
1F80
0000
0000
F078
7070
7070
38E0
38E0
3DC0
1DC0
1F80
0F80
0F80
0700
0700
7E00
FE00
7800
ENDCHAR
STARTCHAR 045F
ENCODING 1119
SWIDTH 672 0
DWIDTH 14 0
BBX 10 13 2 -2
BITMAP
E1C0
E1C0
E1C0
E1C0
E1C0
E1C0
E1C0
E1C0
FFC0
FFC0
FFC0
1C00
1C00
ENDCHAR
STARTCHAR 0462
ENCODING 1122
SWIDTH 816 0
DWIDTH 17 0
BBX 17 16 0 0
BITMAP
0E0000
0E0000
FFF000
FFF000
0E0000
0E0000
0FFC00
0FFF00
0E1F00
0E0780
0E0780
0E0780
0E0700
0E1F00
0FFE00
0FFC00
ENDCHAR
STARTCHAR 0463
ENCODING 1123
SWIDTH 672 0
DWIDTH 14 0
BBX 13 16 0 0
BITMAP
3C00
3C00
3C00
3C00
FFC0
FFC0
3C00
3C00
3FE0
3FF0
3C78
3C38
3C38
3C78
3FF0
3FE0
ENDCHAR
STARTCHAR 046A
ENCODING 1130
SWIDTH 960 0
DWIDTH 20 0
BBX 19 15 0 0
BITMAP
3FFF80
3FFF80
1C0380
1E0700
0F0E00
079C00
03F800
0FFF00
1FFF80
3CE780
38E3C0
38E1C0
78E1E0
70E1E0
F0E0E0
ENDCHAR
STARTCHAR 046B
ENCODING 1131
SWIDTH 768 0
DWIDTH 16 0
BBX 16 11 0 0
BITMAP
3FFC
3FFC
383C
1E78
0FF0
1FF8
3FFC
399C
718E
718E
E187
ENDCHAR
STARTCHAR 0472
ENCODING 1138
SWIDTH 864 0
DWIDTH 18 0
BBX 16 15 1 0
BITMAP
07E0
1FF8
3FFC
783E
F01E
F00E
E00F
FFFF
FFFF
E00F
F01E
783E
3FFC
1FF8
07E0
ENDCHAR
STARTCHAR 0473
ENCODING 1139
SWIDTH 672 0
DWIDTH 14 0
BBX 12 11 1 0
BITMAP
1F80
7FC0
F9E0
E070
FFF0
FFF0
E070
F0F0
79E0
3FC0
1F80
ENDCHAR
STARTCHAR 0474
ENCODING 1140
SWIDTH 816 0
DWIDTH 17 0
BBX 16 15 0 0
BITMAP
F00F
701F
781F
383C
3C38
3C38
1C70
1E70
0EF0
0EE0
0FE0
07E0
07C0
03C0
03C0
ENDCHAR
STARTCHAR 0475
ENCODING 1141
SWIDTH 672 0
DWIDTH 14 0
BBX 13 11 0 0
BITMAP
F038
7078
78F8
38E0
38E0
3DC0
1DC0
1FC0
0F80
0F80
0700
ENDCHAR
STARTCHAR 048A
ENCODING 1162
SWIDTH 864 0
DWIDTH 18 0
BBX 15 22 2 -3
BITMAP
18E0
1FC0
0F80
0000
E038
E078
E0F8
E0F8
E1F8
E3F8
E3B8
E738
EF38
FE38
FC38
F838
F83E
F03E
E03E
000C
001C
001C
ENDCHAR
STARTCHAR 048B
ENCODING 1163
SWIDTH 720 0
DWIDTH 15 0
BBX 13 18 2 -2
BITMAP
6180
3F80
1F00
0000
0000
E0E0
E1E0
E3E0
E7E0
EFE0
EEE0
FCE0
F8E0
F8F8
F0F8
E0F0
0070
0070
ENDCHAR
STARTCHAR 048C
ENCODING 1164
SWIDTH 768 0
DWIDTH 16 0
BBX 15 16 0 0
BITMAP
3C00
3C00
FFC0
FFC0
3C00
3C00
3FF0
3FFC
3C7E
3C1E
3C0E
3C0E
3C1E
3C7C
3FFC
3FF0
ENDCHAR
STARTCHAR 048D
ENCODING 1165
SWIDTH 624 0
DWIDTH 13 0
BBX 13 11 0 0
BITMAP
3C00
FFC0
FFC0
3C00
3FE0
3FF0
3C78
3C38
3C78
3FF0
3FE0
ENDCHAR
STARTCHAR 048E
ENCODING 1166
SWIDTH 720 0
DWIDTH 15 0
BBX 12 15 2 0
BITMAP
FF80
FFE0
FFF0
E0F0
E070
E270
E670
E3F0
FFF0
FFE0
FFE0
E060
E020
E000
E000
ENDCHAR
STARTCHAR 048F
ENCODING 1167
SWIDTH 720 0
DWIDTH 15 0
BBX 12 15 2 -4
BITMAP
EF80
FFC0
FFE0
F0E0
E0F0
E070
E3F0
E3F0
FFE0
FFC0
EFE0
E060
E000
E000
E000
ENDCHAR
STARTCHAR 0490
ENCODING 1168
SWIDTH 576 0
DWIDTH 12 0
BBX 10 18 2 0
BITMAP
01C0
01C0
01C0
FFC0
FFC0
FFC0
E000
E000
E000
E000
E000
E000
E000
E000
E000
E000
E000
E000
ENDCHAR
STARTCHAR 0491
ENCODING 1169
SWIDTH 480 0
DWIDTH 10 0
BBX 8 13 2 0
BITMAP
07
07
FF
FF
FF
E0
E0
E0
E0
E0
E0
E0
E0
ENDCHAR
STARTCHAR 0492
ENCODING 1170
SWIDTH 624 0
DWIDTH 13 0
BBX 13 15 0 0
BITMAP
1FF8
1FF8
1FF8
1C00
1C00
1C00
1C00
FFF0
FFF0
1C00
1C00
1C00
1C00
1C00
1C00
ENDCHAR
STARTCHAR 0493
ENCODING 1171
SWIDTH 528 0
DWIDTH 11 0
BBX 10 11 1 0
BITMAP
7FC0
7FC0
7FC0
7000
7000
FF80
FF80
7000
7000
7000
7000
ENDCHAR
STARTCHAR 0494
ENCODING 1172
SWIDTH 720 0
DWIDTH 15 0
BBX 12 19 2 -4
BITMAP
FFE0
FFE0
FFE0
E000
E000
E000
E700
FFC0
FFE0
F1F0
E0F0
E070
E070
E0F0
E0F0
01E0
07E0
07C0
0700
ENDCHAR
STARTCHAR 0495
ENCODING 1173
SWIDTH 624 0
DWIDTH 13 0
BBX 11 15 2 -4
BITMAP
FF00
FF00
FF00
E000
E000
FF00
FF80
FFC0
E1E0
E1E0
E1E0
01C0
0FC0
0F80
1F00
ENDCHAR
STARTCHAR 0496
ENCODING 1174
SWIDTH 1104 0
DWIDTH 23 0
BBX 22 18 1 -3
BITMAP
E07078
F07070
7070F0
3870E0
3871C0
1C73C0
1FFF80
0FFF80
1FFFC0
3C73C0
3C71E0
7871E0
7870FC
F070FC
E0707C
00001C
00001C
00001C
ENDCHAR
STARTCHAR 0497
ENCODING 1175
SWIDTH 960 0
DWIDTH 20 0
BBX 19 13 0 -2
BITMAP
70E1C0
78E3C0
38E380
1CE700
1FFF00
1FFF00
1FFF00
3CE780
38E3E0
78E3E0
F0E1E0
0000E0
0000E0
ENDCHAR
STARTCHAR 0498
ENCODING 1176
SWIDTH 672 0
DWIDTH 14 0
BBX 12 18 1 -3
BITMAP
3F00
FFC0
FFE0
01E0
00E0
01E0
3FC0
3FC0
3FE0
00F0
00F0
80F0
FFE0
FFC0
3F80
0E00
0E00
0E00
ENDCHAR
STARTCHAR 0499
ENCODING 1177
SWIDTH 576 0
DWIDTH 12 0
BBX 10 13 1 -2
BITMAP
7E00
FF80
FFC0
0380
1F80
1F80
03C0
01C0
FFC0
FF80
7F00
1C00
1C00
ENDCHAR
STARTCHAR 049A
ENCODING 1178
SWIDTH 768 0
DWIDTH 16 0
BBX 14 18 2 -3
BITMAP
E078
E0F0
E0E0
E1E0
E1C0
E380
FF80
FF00
FF80
E3C0
E3C0
E1E0
E0FC
E0FC
E07C
001C
001C
001C
ENDCHAR
STARTCHAR 049B
ENCODING 1179
SWIDTH 624 0
DWIDTH 13 0
BBX 12 13 2 -2
BITMAP
E1E0
E3C0
E380
E700
FF00
FE00
FF00
E780
E3F0
E3F0
E1F0
0070
0070
ENDCHAR
STARTCHAR 049C
ENCODING 1180
SWIDTH 768 0
DWIDTH 16 0
BBX 14 15 2 0
BITMAP
E038
E078
E070
E0F0
ECE0
EDC0
FFC0
FF80
FFC0
EDE0
EDE0
ECF0
E070
E078
E03C
ENDCHAR
STARTCHAR 049D
ENCODING 1181
SWIDTH 672 0
DWIDTH 14 0
BBX 12 11 1 0
BITMAP
F070
F0E0
F1E0
FDC0
FFC0
FF80
FFC0
FDC0
FDE0
F0F0
F0F0
ENDCHAR
STARTCHAR 049E
ENCODING 1182
SWIDTH 768 0
DWIDTH 16 0
BBX 14 15 1 0
BITMAP
781C
FE38
FE78
7870
78E0
79E0
7FC0
7FC0
7FC0
79E0
78F0
7870
7878
783C
783C
ENDCHAR
STARTCHAR 049F
ENCODING 1183
SWIDTH 624 0
DWIDTH 13 0
BBX 13 16 0 0
BITMAP
3800
FF00
FF00
3800
3800
3878
3870
38E0
39C0
3FC0
3F80
3FC0
39E0
38E0
38F0
3878
ENDCHAR
STARTCHAR 04A0
ENCODING 1184
SWIDTH 864 0
DWIDTH 18 0
BBX 17 15 0 0
BITMAP
FF0380
FF0780
FF0F00
0F0E00
0F1E00
0F3C00
0FF800
0FF800
0FFC00
0F3C00
0F1E00
0F0E00
0F0F00
0F0780
0F0380
ENDCHAR
STARTCHAR 04A1
ENCODING 1185
SWIDTH 720 0
DWIDTH 15 0
BBX 15 11 0 0
BITMAP
FE1C
FE3C
FE38
1E70
1FF0
1FE0
1FF0
1E70
1E78
1E3C
1E1E
ENDCHAR
STARTCHAR 04A2
ENCODING 1186
SWIDTH 864 0
DWIDTH 18 0
BBX 15 18 2 -3
BITMAP
E038
E038
E038
E038
E038
E038
FFF8
FFF8
FFF8
E038
E038
E038
E03E
E03E
E03E
000E
000E
000E
ENDCHAR
STARTCHAR 04A3
ENCODING 1187
SWIDTH 720 0
DWIDTH 15 0
BBX 13 13 2 -2
BITMAP
E0E0
E0E0
E0E0
E0E0
FFE0
FFE0
FFE0
E0E0
E0F8
E0F8
E0F8
0038
0038
ENDCHAR
STARTCHAR 04A4
ENCODING 1188
SWIDTH 1056 0
DWIDTH 22 0
BBX 20 15 2 0
BITMAP
E03FF0
E03FF0
E03FF0
E03800
E03800
E03800
FFF800
FFF800
FFF800
E03800
E03800
E03800
E03800
E03800
E03800
ENDCHAR
STARTCHAR 04A5
ENCODING 1189
SWIDTH 912 0
DWIDTH 19 0
BBX 17 11 2 0
BITMAP
E0FF80
E0FF80
E0FF80
E0E000
FFE000
FFE000
FFE000
E0E000
E0E000
E0E000
E0E000
ENDCHAR
STARTCHAR 04A6
ENCODING 1190
SWIDTH 1200 0
DWIDTH 25 0
BBX 22 19 2 -4
BITMAP
FFF800
FFF800
FFF800
E03800
E03800
E03800
E039C0
E03FF0
E03FF8
E03C78
E0383C
E0381C
E0381C
E0383C
E0383C
000078
0001F8
0001F0
0001C0
ENDCHAR
STARTCHAR 04A7
ENCODING 1191
SWIDTH 1008 0
DWIDTH 21 0
BBX 18 15 2 -4
BITMAP
FFE000
FFE000
FFE000
E1E000
E1E000
E1FF00
E1FF80
E1FFC0
E1E1C0
E1E1C0
E1E1C0
0001C0
001FC0
001F80
001E00
ENDCHAR
STARTCHAR 04A8
ENCODING 1192
SWIDTH 960 0
DWIDTH 20 0
BBX 18 15 1 0
BITMAP
103E00
3CFF00
79FF80
71C3C0
F1C1C0
E3C1C0
E381C0
E3C1C0
E1C1C0
F1C380
71E380
78E700
3E7E00
1FFFC0
07FFC0
ENDCHAR
STARTCHAR 04A9
ENCODING 1193
SWIDTH 816 0
DWIDTH 17 0
BBX 15 11 1 0
BITMAP
20F8
79FC
F3DE
E78E
E70E
E70E
E38E
F39C
7DF8
3FFE
0FFE
ENDCHAR
STARTCHAR 04AA
ENCODING 1194
SWIDTH 720 0
DWIDTH 15 0
BBX 14 18 1 -3
BITMAP
07E0
1FF0
3FF8
7838
F010
F000
E000
E000
E000
F000
F000
7818
3FFC
1FF8
0FE0
0380
0380
0380
ENDCHAR
STARTCHAR 04AB
ENCODING 1195
SWIDTH 576 0
DWIDTH 12 0
BBX 11 13 1 -2
BITMAP
1F00
7FC0
7FE0
F0C0
E000
E000
E000
F0C0
7FE0
3FC0
1F00
0E00
0E00
ENDCHAR
STARTCHAR 04AC
ENCODING 1196
SWIDTH 624 0
DWIDTH 13 0
BBX 13 18 0 -3
BITMAP
FFF8
FFF8
FFF8
0700
0700
0700
0700
0700
0700
0700
0700
0700
07C0
07C0
07C0
01C0
01C0
01C0
ENDCHAR
STARTCHAR 04AD
ENCODING 1197
SWIDTH 528 0
DWIDTH 11 0
BBX 11 13 0 -2
BITMAP
FFE0
FFE0
FFE0
0E00
0E00
0E00
0E00
0E00
0F80
0F80
0F80
0380
0380
ENDCHAR
STARTCHAR 04AE
ENCODING 1198
SWIDTH 720 0
DWIDTH 15 0
BBX 14 15 0 0
BITMAP
F01C
781C
3838
3C78
1C70
1EF0
0EE0
0FC0
07C0
0380
0380
0380
0380
0380
0380
ENDCHAR
STARTCHAR 04AF
ENCODING 1199
SWIDTH 624 0
DWIDTH 13 0
BBX 13 15 0 -4
BITMAP
F078
7070
7070
38E0
38E0
3DC0
1DC0
1FC0
0F80
0F80
0700
0700
0700
0700
0700
ENDCHAR
STARTCHAR 04B0
ENCODING 1200
SWIDTH 720 0
DWIDTH 15 0
BBX 14 15 0 0
BITMAP
F01C
781C
3838
3C78
1C70
1EE0
0FE0
07C0
1FF0
1FF0
0380
0380
0380
0380
0380
ENDCHAR
STARTCHAR 04B1
ENCODING 1201
SWIDTH 624 0
DWIDTH 13 0
BBX 13 15 0 -4
BITMAP
F078
7070
7070
38E0
38E0
3DC0
1DC0
1FC0
0F80
0F80
7FE0
7FE0
0700
0700
0700
ENDCHAR
STARTCHAR 04B2
ENCODING 1202
SWIDTH 768 0
DWIDTH 16 0
BBX 14 18 1 -3
BITMAP
F078
70F0
78F0
3DE0
3DC0
1FC0
0F80
0F80
0F80
1FC0
3DE0
39E0
78FC
F07C
E07C
001C
001C
001C
ENDCHAR
STARTCHAR 04B3
ENCODING 1203
SWIDTH 576 0
DWIDTH 12 0
BBX 13 13 0 -2
BITMAP
70F0
78E0
3DC0
1F80
0F80
0F00
0F80
1FC0
39F8
78F8
F0F8
0038
0038
ENDCHAR
STARTCHAR 04B4
ENCODING 1204
SWIDTH 1008 0
DWIDTH 21 0
BBX 20 18 0 -3
BITMAP
FFF1C0
FFF1C0
FFF1C0
0701C0
0701C0
0701C0
0701C0
0701C0
0701C0
0701C0
0701C0
0701C0
07FFF0
07FFF0
07FFF0
000070
000070
000070
ENDCHAR
STARTCHAR 04B5
ENCODING 1205
SWIDTH 816 0
DWIDTH 17 0
BBX 16 13 0 -2
BITMAP
FFDE
FFDE
FFDE
0E1E
0E1E
0E1E
0E1E
0E1E
0FFF
0FFF
0FFF
0007
0007
ENDCHAR
STARTCHAR 04B6
ENCODING 1206
SWIDTH 768 0
DWIDTH 16 0
BBX 15 18 1 -3
BITMAP
E078
E078
E078
E078
E078
E078
F078
7FF8
7FF8
1FF8
0078
0078
007E
007E
007E
000E
000E
000E
ENDCHAR
STARTCHAR 04B7
ENCODING 1207
SWIDTH 672 0
DWIDTH 14 0
BBX 12 13 1 -2
BITMAP
E1E0
E1E0
E1E0
E1E0
E1E0
FFE0
7FE0
01E0
01F0
01F0
01F0
0070
0070
ENDCHAR
STARTCHAR 04B8
ENCODING 1208
SWIDTH 768 0
DWIDTH 16 0
BBX 13 15 1 0
BITMAP
E078
E078
E078
E078
E078
E678
F678
FFF8
7FF8
3FF8
0678
0678
0678
0078
0078
ENDCHAR
STARTCHAR 04B9
ENCODING 1209
SWIDTH 624 0
DWIDTH 13 0
BBX 11 11 1 0
BITMAP
E1E0
E1E0
E1E0
EDE0
EDE0
FFE0
7FE0
0DE0
0DE0
01E0
01E0
ENDCHAR
STARTCHAR 04BA
ENCODING 1210
SWIDTH 768 0
DWIDTH 16 0
BBX 13 15 2 0
BITMAP
E000
E000
E000
E000
E000
EFC0
FFE0
FFF0
E070
E078
E078
E078
E078
E078
E078
ENDCHAR
STARTCHAR 04BB
ENCODING 1211
SWIDTH 672 0
DWIDTH 14 0
BBX 11 16 2 0
BITMAP
E000
E000
E000
E000
E000
EF80
FFC0
FFE0
F1E0
E0E0
E0E0
E0E0
E0E0
E0E0
E0E0
E0E0
ENDCHAR
STARTCHAR 04BC
ENCODING 1212
SWIDTH 1008 0
DWIDTH 21 0
BBX 21 15 0 0
BITMAP
003F00
00FFC0
01FFE0
73E1E0
63C0F0
E78070
7F8070
7FFFF8
3FFFF0
078000
038000
03E0C0
01FFE0
00FFC0
003F00
ENDCHAR
STARTCHAR 04BD
ENCODING 1213
SWIDTH 816 0
DWIDTH 17 0
BBX 16 11 0 0
BITMAP
00F8
03FE
67DF
E707
7FFF
3FFF
0F00
0700
07FE
03FE
00FC
ENDCHAR
STARTCHAR 04BE
ENCODING 1214
SWIDTH 1008 0
DWIDTH 21 0
BBX 21 18 0 -3
BITMAP
003F00
00FFC0
01FFE0
73E1E0
63C0F0
E78070
7F8070
7FFFF8
3FFFF0
078000
038000
03C0C0
01FFE0
00FFC0
003F80
000E00
000E00
000E00
ENDCHAR
STARTCHAR 04BF
ENCODING 1215
SWIDTH 816 0
DWIDTH 17 0
BBX 16 13 0 -2
BITMAP
00F8
03FE
67DF
E707
7FFF
3FFF
0F00
0704
07FE
03FE
00FC
0070
0070
ENDCHAR
STARTCHAR 04C0
ENCODING 1216
SWIDTH 336 0
DWIDTH 7 0
BBX 3 15 2 0
BITMAP
E0
E0
E0
E0
E0
E0
E0
E0
E0
E0
E0
E0
E0
E0
E0
ENDCHAR
STARTCHAR 04C1
ENCODING 1217
SWIDTH 1056 0
DWIDTH 22 0
BBX 21 19 1 0
BITMAP
038C00
01FC00
00F800
000000
E07078
F07070
7070F0
3870E0
3871C0
1C73C0
1FFF80
0FFF80
1FFFC0
3C73C0
3C71E0
7871E0
7870F0
F070F0
E07078
ENDCHAR
STARTCHAR 04C2
ENCODING 1218
SWIDTH 912 0
DWIDTH 19 0
BBX 19 16 0 0
BITMAP
031800
03F800
01F000
000000
000000
70E1C0
78E3C0
38E380
3CE780
1FFF00
0FFE00
1FFF00
3CE780
38E380
78E3C0
F0E1E0
ENDCHAR
STARTCHAR 04C3
ENCODING 1219
SWIDTH 768 0
DWIDTH 16 0
BBX 13 19 2 -4
BITMAP
E078
E0F0
E0E0
E1E0
E1C0
E380
FF80
FF00
FF80
E3C0
E1E0
E0F0
E0F0
E078
E078
0078
01F8
03F0
03E0
ENDCHAR
STARTCHAR 04C4
ENCODING 1220
SWIDTH 624 0
DWIDTH 13 0
BBX 11 15 2 -4
BITMAP
E1E0
E1C0
E380
E780
FF00
FF00
FF00
E780
E3C0
E1E0
E0E0
00E0
07E0
07C0
0780
ENDCHAR
STARTCHAR 04C6
ENCODING 1222
SWIDTH 672 0
DWIDTH 14 0
BBX 14 13 0 -2
BITMAP
1FF0
1FF0
1FF0
1870
1870
3870
3870
3870
F87C
F07C
F078
0038
0038
ENDCHAR
STARTCHAR 04C7
ENCODING 1223
SWIDTH 816 0
DWIDTH 17 0
BBX 13 19 2 -4
BITMAP
E038
E038
E038
E038
E038
E038
FFF8
FFF8
FFF8
E038
E038
E038
E038
E038
E038
0038
01F8
01F0
01E0
ENDCHAR
STARTCHAR 04C8
ENCODING 1224
SWIDTH 720 0
DWIDTH 15 0
BBX 11 15 2 -4
BITMAP
E0E0
E0E0
E0E0
E0E0
FFE0
FFE0
FFE0
E0E0
E0E0
E0E0
E0E0
00E0
07E0
07C0
0F80
ENDCHAR
STARTCHAR 04C9
ENCODING 1225
SWIDTH 864 0
DWIDTH 18 0
BBX 15 18 2 -3
BITMAP
E038
E038
E038
E038
E038
E038
FFF8
FFF8
FFF8
E038
E038
E038
E03E
E03E
E03E
000C
001C
001C
ENDCHAR
STARTCHAR 04CA
ENCODING 1226
SWIDTH 720 0
DWIDTH 15 0
BBX 13 13 2 -2
BITMAP
E0E0
E0E0
E0E0
E0E0
FFE0
FFE0
FFE0
E0E0
E0F8
E0F0
E0F0
0070
0060
ENDCHAR
STARTCHAR 04CB
ENCODING 1227
SWIDTH 768 0
DWIDTH 16 0
BBX 13 18 1 -3
BITMAP
E078
E078
E078
E078
E078
E078
F078
7FF8
7FF8
1F78
0078
0078
01F8
01F8
01F8
01C0
01C0
01C0
ENDCHAR
STARTCHAR 04CC
ENCODING 1228
SWIDTH 624 0
DWIDTH 13 0
BBX 11 13 1 -2
BITMAP
E1E0
E1E0
E1E0
E1E0
FFE0
FFE0
3FE0
01E0
07E0
07E0
07E0
0700
0700
ENDCHAR
STARTCHAR 04CD
ENCODING 1229
SWIDTH 1008 0
DWIDTH 21 0
BBX 19 18 2 -3
BITMAP
E00700
E00700
F00F00
F81F00
F81F00
FC3F00
FC3F00
EE7700
EF7700
E7E700
E7C700
E3C700
E187E0
E007C0
E007C0
0001C0
000180
000380
ENDCHAR
STARTCHAR 04CE
ENCODING 1230
SWIDTH 864 0
DWIDTH 18 0
BBX 15 13 2 -2
BITMAP
E038
F078
F078
F8F8
D8F8
DDF8
CFB8
CFB8
C73E
C23E
C03E
000C
000C
ENDCHAR
STARTCHAR 04CF
ENCODING 1231
SWIDTH 288 0
DWIDTH 6 0
BBX 3 16 2 0
BITMAP
E0
E0
E0
E0
E0
E0
E0
E0
E0
E0
E0
E0
E0
E0
E0
E0
ENDCHAR
STARTCHAR 04D0
ENCODING 1232
SWIDTH 816 0
DWIDTH 17 0
BBX 16 19 0 0
BITMAP
0E30
07F0
03E0
0000
03C0
03E0
03E0
07F0
0770
0E70
0E38
1E38
1C3C
1FFC
3FFE
3FFE
780E
700F
F007
ENDCHAR
STARTCHAR 04D1
ENCODING 1233
SWIDTH 624 0
DWIDTH 13 0
BBX 10 16 1 0
BITMAP
3180
3F80
1F00
0000
0000
3F00
FF80
7FC0
01C0
3FC0
FFC0
E1C0
E1C0
E3C0
FFC0
7DC0
ENDCHAR
STARTCHAR 04D2
ENCODING 1234
SWIDTH 816 0
DWIDTH 17 0
BBX 16 19 0 0
BITMAP
0670
0770
0660
0000
03C0
03E0
03E0
07F0
0770
0E70
0E38
1E38
1C3C
1FFC
3FFE
3FFE
780E
700F
F007
ENDCHAR
STARTCHAR 04D3
ENCODING 1235
SWIDTH 624 0
DWIDTH 13 0
BBX 10 16 1 0
BITMAP
3300
3B80
3300
0000
0000
3F00
FF80
7FC0
01C0
3FC0
FFC0
E1C0
E1C0
E3C0
FFC0
7DC0
ENDCHAR
STARTCHAR 04D4
ENCODING 1236
SWIDTH 1104 0
DWIDTH 23 0
BBX 22 15 0 0
BITMAP
00FFFC
01FFFC
01FFFC
03DC00
039C00
079C00
071FF8
0F1FF8
0E1FF8
1FFC00
1FFC00
3FFC00
781FFC
701FFC
F01FFC
ENDCHAR
STARTCHAR 04D5
ENCODING 1237
SWIDTH 1008 0
DWIDTH 21 0
BBX 19 11 1 0
BITMAP
3F1F00
FFFF80
7FFBC0
01E0E0
3FFFE0
FFFFE0
E1E000
E1E080
E3FFC0
FF7FC0
3E1F00
ENDCHAR
STARTCHAR 04D6
ENCODING 1238
SWIDTH 672 0
DWIDTH 14 0
BBX 11 19 2 0
BITMAP
7180
3F80
1F00
0000
FFE0
FFE0
FFE0
E000
E000
E000
FFC0
FFC0
FFC0
E000
E000
E000
FFE0
FFE0
FFE0
ENDCHAR
STARTCHAR 04D7
ENCODING 1239
SWIDTH 624 0
DWIDTH 13 0
BBX 11 16 1 0
BITMAP
3180
3F80
1F00
0000
0000
1F00
7FC0
FBE0
E0E0
FFE0
FFE0
E000
F000
7FC0
3FC0
1F80
ENDCHAR
STARTCHAR 04D8
ENCODING 1240
SWIDTH 816 0
DWIDTH 17 0
BBX 15 15 1 0
BITMAP
0FC0
3FF0
7FF8
383C
001E
000E
FFFE
FFFE
E00E
E01E
F01E
783C
7FF8
1FF0
0FC0
ENDCHAR
STARTCHAR 04D9
ENCODING 1241
SWIDTH 624 0
DWIDTH 13 0
BBX 12 11 1 0
BITMAP
1F00
7FC0
7FE0
20E0
00F0
FFF0
FFF0
E0E0
7BE0
3FC0
1F00
ENDCHAR
STARTCHAR 04DA
ENCODING 1242
SWIDTH 816 0
DWIDTH 17 0
BBX 15 19 1 0
BITMAP
0C60
0EE0
0E60
0000
0FC0
3FF0
7FF8
383C
001E
000E
FFFE
FFFE
E00E
E01E
F01E
783C
7FF8
1FF0
0FC0
ENDCHAR
STARTCHAR 04DB
ENCODING 1243
SWIDTH 624 0
DWIDTH 13 0
BBX 12 16 1 0
BITMAP
1980
3B80
1980
0000
0000
1F00
7FC0
7FE0
20E0
00F0
FFF0
FFF0
E0E0
7BE0
3FC0
1F00
ENDCHAR
STARTCHAR 04DC
ENCODING 1244
SWIDTH 1056 0
DWIDTH 22 0
BBX 21 19 1 0
BITMAP
019800
01DC00
019800
000000
E07078
F07070
7070F0
3870E0
3871C0
1C73C0
1FFF80
0FFF80
1FFFC0
3C73C0
3C71E0
7871E0
7870F0
F070F0
E07078
ENDCHAR
STARTCHAR 04DD
ENCODING 1245
SWIDTH 912 0
DWIDTH 19 0
BBX 19 16 0 0
BITMAP
03B800
03B800
031800
000000
000000
70E1C0
78E3C0
38E380
3CE780
1FFF00
0FFE00
1FFF00
3CE780
38E380
78E3C0
F0E1E0
ENDCHAR
STARTCHAR 04DE
ENCODING 1246
SWIDTH 672 0
DWIDTH 14 0
BBX 12 19 1 0
BITMAP
1980
3B80
1980
0000
3F00
FFC0
FFE0
01E0
00E0
01E0
3FC0
3FC0
3FE0
00F0
00F0
80F0
FFE0
FFC0
3F80
ENDCHAR
STARTCHAR 04DF
ENCODING 1247
SWIDTH 576 0
DWIDTH 12 0
BBX 10 16 1 0
BITMAP
3300
7700
3300
0000
0000
7E00
FF80
FFC0
0380
1F80
1F80
03C0
01C0
F7C0
FF80
7E00
ENDCHAR
STARTCHAR 04E0
ENCODING 1248
SWIDTH 624 0
DWIDTH 13 0
BBX 12 15 1 0
BITMAP
FFE0
FFE0
FFC0
03C0
0780
0F00
0F80
0FC0
03E0
00E0
00F0
C0E0
FFE0
FFC0
3F00
ENDCHAR
STARTCHAR 04E1
ENCODING 1249
SWIDTH 576 0
DWIDTH 12 0
BBX 11 15 0 -4
BITMAP
FFC0
FFC0
FFC0
0380
0700
0E00
1F80
1FC0
03E0
00E0
00E0
C1E0
FFC0
FFC0
3F00
ENDCHAR
STARTCHAR 04E2
ENCODING 1250
SWIDTH 816 0
DWIDTH 17 0
BBX 13 19 2 0
BITMAP
1FC0
1FC0
0000
0000
E038
E078
E0F8
E0F8
E1F8
E3F8
E7B8
E738
EF38
FE38
FC38
F838
F838
F038
E038
ENDCHAR
STARTCHAR 04E3
ENCODING 1251
SWIDTH 720 0
DWIDTH 15 0
BBX 11 15 2 0
BITMAP
7F80
7F80
0000
0000
E0E0
E1E0
E3E0
E7E0
EFE0
EEE0
FCE0
F8E0
F8E0
F0E0
E0E0
ENDCHAR
STARTCHAR 04E4
ENCODING 1252
SWIDTH 816 0
DWIDTH 17 0
BBX 13 19 2 0
BITMAP
1CC0
1DC0
18C0
0000
E038
E078
E0F8
E0F8
E1F8
E3F8
E7B8
E738
EF38
FE38
FC38
F838
F838
F038
E038
ENDCHAR
STARTCHAR 04E5
ENCODING 1253
SWIDTH 720 0
DWIDTH 15 0
BBX 11 16 2 0
BITMAP
3300
3B80
3300
0000
0000
E0E0
E1E0
E3E0
E7E0
EFE0
EEE0
FCE0
F8E0
F8E0
F0E0
E0E0
ENDCHAR
STARTCHAR 04E6
ENCODING 1254
SWIDTH 864 0
DWIDTH 18 0
BBX 16 19 1 0
BITMAP
0660
0EE0
0660
0000
07E0
1FF8
3FFC
783E
F01E
F00E
E00F
E00F
E00F
F00E
F01E
783E
3FFC
1FF8
07E0
ENDCHAR
STARTCHAR 04E7
ENCODING 1255
SWIDTH 672 0
DWIDTH 14 0
BBX 12 16 1 0
BITMAP
1980
3B80
1980
0000
0000
1F00
7FC0
7FE0
F0F0
E070
E070
E070
F0F0
7FE0
7FC0
1F00
ENDCHAR
STARTCHAR 04E8
ENCODING 1256
SWIDTH 864 0
DWIDTH 18 0
BBX 16 15 1 0
BITMAP
07E0
1FF8
3FFC
783E
F01E
F00E
E00F
FFFF
FFFF
E00F
F01E
783E
3FFC
1FF8
07E0
ENDCHAR
STARTCHAR 04E9
ENCODING 1257
SWIDTH 672 0
DWIDTH 14 0
BBX 12 11 1 0
BITMAP
1F80
7FC0
F9E0
E070
FFF0
FFF0
E070
F0F0
79E0
3FC0
1F80
ENDCHAR
STARTCHAR 04EA
ENCODING 1258
SWIDTH 864 0
DWIDTH 18 0
BBX 16 19 1 0
BITMAP
0660
0EE0
0660
0000
07E0
1FF8
3FFC
783E
F01E
F00E
E00F
FFFF
FFFF
E00F
F01E
783E
3FFC
1FF8
07E0
ENDCHAR
STARTCHAR 04EB
ENCODING 1259
SWIDTH 672 0
DWIDTH 14 0
BBX 12 16 1 0
BITMAP
1980
3980
1980
0000
0000
1F80
7FC0
F9E0
E070
FFF0
FFF0
E070
F0F0
79E0
3FC0
1F80
ENDCHAR
STARTCHAR 04EC
ENCODING 1260
SWIDTH 720 0
DWIDTH 15 0
BBX 14 19 0 0
BITMAP
0CC0
1CC0
0CC0
0000
0F80
3FE0
7FF0
7078
2038
003C
07FC
07FC
07FC
003C
2038
7078
FFF0
3FE0
1F80
ENDCHAR
STARTCHAR 04ED
ENCODING 1261
SWIDTH 576 0
DWIDTH 12 0
BBX 11 16 1 0
BITMAP
3300
7700
3300
0000
0000
3E00
FF80
F7C0
01C0
1FE0
1FE0
01C0
01C0
FFC0
FF80
3E00
ENDCHAR
STARTCHAR 04EE
ENCODING 1262
SWIDTH 720 0
DWIDTH 15 0
BBX 15 19 0 0
BITMAP
0FE0
0FE0
0000
0000
F01E
781C
383C
3C38
1C78
1C70
0EF0
0EE0
07C0
07C0
0380
0780
3F00
3E00
7C00
ENDCHAR
STARTCHAR 04EF
ENCODING 1263
SWIDTH 624 0
DWIDTH 13 0
BBX 13 19 0 -4
BITMAP
3FC0
3FC0
0000
0000
F078
7070
7070
38E0
38E0
3DC0
1DC0
1F80
0F80
0F80
0700
0700
7E00
FE00
7800
ENDCHAR
STARTCHAR 04F0
ENCODING 1264
SWIDTH 720 0
DWIDTH 15 0
BBX 15 19 0 0
BITMAP
0CE0
0EE0
0C60
0000
F01E
781C
383C
3C38
1C78
1C70
0EF0
0EE0
07C0
07C0
0380
0780
3F00
3E00
7C00
ENDCHAR
STARTCHAR 04F1
ENCODING 1265
SWIDTH 624 0
DWIDTH 13 0
BBX 13 20 0 -4
BITMAP
1980
19C0
1980
0000
0000
F078
7070
7070
38E0
38E0
3DC0
1DC0
1F80
0F80
0F80
0700
0700
7E00
FE00
7800
ENDCHAR
STARTCHAR 04F2
ENCODING 1266
SWIDTH 720 0
DWIDTH 15 0
BBX 15 19 0 0
BITMAP
0738
0770
0E60
0000
F01E
781C
383C
3C38
1C78
1C70
0EF0
0EE0
07C0
07C0
0380
0780
3F00
3E00
7C00
ENDCHAR
STARTCHAR 04F3
ENCODING 1267
SWIDTH 624 0
DWIDTH 13 0
BBX 13 20 0 -4
BITMAP
0EE0
0CE0
1DC0
0000
0000
F078
7070
7070
38E0
38E0
3DC0
1DC0
1F80
0F80
0F80
0700
0700
7E00
FE00
7800
ENDCHAR
STARTCHAR 04F4
ENCODING 1268
SWIDTH 768 0
DWIDTH 16 0
BBX 13 19 1 0
BITMAP
19C0
1DC0
1980
0000
E078
E078
E078
E078
E078
E078
F078
7FF8
7FF8
1FF8
0078
0078
0078
0078
0078
ENDCHAR
STARTCHAR 04F5
ENCODING 1269
SWIDTH 624 0
DWIDTH 13 0
BBX 11 16 1 0
BITMAP
3300
3380
3300
0000
0000
E1E0
E1E0
E1E0
E1E0
E1E0
FFE0
7FE0
01E0
01E0
01E0
01E0
ENDCHAR
STARTCHAR 04F6
ENCODING 1270
SWIDTH 576 0
DWIDTH 12 0
BBX 10 18 2 -3
BITMAP
FFC0
FFC0
FFC0
E000
E000
E000
E000
E000
E000
E000
E000
E000
F800
F800
F800
3800
3800
3800
ENDCHAR
STARTCHAR 04F7
ENCODING 1271
SWIDTH 528 0
DWIDTH 11 0
BBX 9 13 2 -2
BITMAP
FF80
FF80
FF80
E000
E000
E000
E000
E000
F000
F000
F000
7000
7000
ENDCHAR
STARTCHAR 04F8
ENCODING 1272
SWIDTH 1008 0
DWIDTH 21 0
BBX 18 19 2 0
BITMAP
033000
077000
033000
000000
E003C0
E003C0
E003C0
E003C0
E003C0
FFC3C0
FFE3C0
E3F3C0
E073C0
E073C0
E073C0
E073C0
E3F3C0
FFE3C0
FF83C0
ENDCHAR
STARTCHAR 04F9
ENCODING 1273
SWIDTH 864 0
DWIDTH 18 0
BBX 14 16 2 0
BITMAP
0CC0
0CE0
0CC0
0000
0000
E01C
E01C
E01C
E01C
FF1C
FF9C
E3DC
E1DC
E3DC
FF9C
FF1C
ENDCHAR
STARTCHAR 04FA
ENCODING 1274
SWIDTH 624 0
DWIDTH 13 0
BBX 13 19 0 -4
BITMAP
1FF8
1FF8
1FF8
1C00
1C00
1C00
1C00
FFF0
FFF0
1C00
1C00
1C00
1C00
1F00
1F00
0F00
7F00
7E00
7C00
ENDCHAR
STARTCHAR 04FB
ENCODING 1275
SWIDTH 528 0
DWIDTH 11 0
BBX 10 15 0 -4
BITMAP
3FC0
3FC0
3FC0
3800
3800
FF80
FF80
3800
3800
3E00
3E00
0E00
5E00
7C00
7800
ENDCHAR
STARTCHAR 04FC
ENCODING 1276
SWIDTH 720 0
DWIDTH 15 0
BBX 13 19 1 -4
BITMAP
F038
F070
78F0
3DE0
1DC0
1FC0
0F80
0F80
0FC0
1FC0
3DE0
38F0
7870
F078
E038
0038
01F8
01F8
01F0
ENDCHAR
STARTCHAR 04FD
ENCODING 1277
SWIDTH 576 0
DWIDTH 12 0
BBX 12 15 0 -4
BITMAP
70F0
78E0
3DC0
1F80
0F80
0F00
0F80
1FC0
3DE0
78F0
F070
0070
03F0
03F0
03C0
ENDCHAR
STARTCHAR 04FE
ENCODING 1278
SWIDTH 720 0
DWIDTH 15 0
BBX 14 15 1 0
BITMAP
F078
7870
78F0
3DE0
1FC0
1FC0
7FF0
7FF0
0FC0
1FC0
3DE0
38F0
78F0
F078
F03C
ENDCHAR
STARTCHAR 04FF
ENCODING 1279
SWIDTH 624 0
DWIDTH 13 0
BBX 11 11 1 0
BITMAP
E0E0
F1C0
7BC0
3F80
3F00
7FC0
7FC0
3F00
7B80
73C0
E1E0
ENDCHAR
STARTCHAR 0510
ENCODING 1296
SWIDTH 672 0
DWIDTH 14 0
BBX 12 15 1 0
BITMAP
0FC0
3FF0
7FE0
F020
F000
7000
7F80
3F80
7F80
E000
E000
F020
FFF0
7FF0
1FC0
ENDCHAR
STARTCHAR 0511
ENCODING 1297
SWIDTH 576 0
DWIDTH 12 0
BBX 10 11 1 0
BITMAP
3F00
7FC0
FF80
E000
7E00
7E00
E000
E000
FBC0
7FC0
3F80
ENDCHAR
STARTCHAR 0512
ENCODING 1298
SWIDTH 816 0
DWIDTH 17 0
BBX 15 19 0 -4
BITMAP
0FFE
0FFE
0FFE
1C1E
1C1E
1C1E
1C1E
1C1E
1C1E
1C1E
1C1E
3C1E
F81E
F81E
F01E
001E
007E
00FC
00F8
ENDCHAR
STARTCHAR 0513
ENCODING 1299
SWIDTH 672 0
DWIDTH 14 0
BBX 12 15 0 -4
BITMAP
1FF0
1FF0
1FF0
1870
1870
3870
3870
3870
F870
F070
F070
0070
03F0
03F0
03C0
ENDCHAR
STARTCHAR 051A
ENCODING 1306
SWIDTH 864 0
DWIDTH 18 0
BBX 16 18 1 -3
BITMAP
07E0
1FF8
3FFC
783E
F01E
F00E
E00F
E00F
E00F
F00F
F00E
781E
7FFC
3FF8
0FF0
01E2
00FF
007F
ENDCHAR
STARTCHAR 051B
ENCODING 1307
SWIDTH 672 0
DWIDTH 14 0
BBX 12 15 1 -4
BITMAP
1F70
7FF0
7FF0
F0F0
E070
E070
E070
F0F0
FFF0
7FF0
1F70
0070
0070
0070
0070
ENDCHAR
STARTCHAR 051C
ENCODING 1308
SWIDTH 1104 0
DWIDTH 23 0
BBX 23 15 0 0
BITMAP
F03C0E
703C1E
783C1C
787C1C
387E1C
387E38
3CEE38
1CE738
1CE770
1FC770
0FC3F0
0FC3F0
0F83E0
0783E0
0781E0
ENDCHAR
STARTCHAR 051D
ENCODING 1309
SWIDTH 960 0
DWIDTH 20 0
BBX 20 11 0 0
BITMAP
F07070
70F0F0
70F8E0
79F8E0
39F9C0
39DDC0
1F9DC0
1F9F80
1F0F80
0F0F80
0F0F00
ENDCHAR
STARTCHAR 0524
ENCODING 1316
SWIDTH 864 0
DWIDTH 18 0
BBX 15 18 2 -3
BITMAP
FFF8
FFF8
FFF8
E038
E038
E038
E038
E038
E038
E038
E038
E038
E03E
E03E
E03E
000E
000E
000E
ENDCHAR
STARTCHAR 0525
ENCODING 1317
SWIDTH 672 0
DWIDTH 14 0
BBX 12 13 2 -2
BITMAP
FFE0
FFE0
FFE0
E1E0
E1E0
E1E0
E1E0
E1E0
E1F0
E1F0
E1F0
0070
0070
ENDCHAR
STARTCHAR 0526
ENCODING 1318
SWIDTH 816 0
DWIDTH 17 0
BBX 15 18 2 -3
BITMAP
E000
E000
E000
E000
E000
EFC0
FFE0
FFF0
E0F0
E078
E078
E078
E07E
E07E
E07E
000E
000E
000E
ENDCHAR
STARTCHAR 0527
ENCODING 1319
SWIDTH 720 0
DWIDTH 15 0
BBX 13 18 2 -2
BITMAP
E000
E000
E000
E000
E000
EF80
FFC0
FFE0
F1E0
E0E0
E0E0
E0E0
E0E0
E0F8
E0F8
E0F8
0038
0038
ENDCHAR
STARTCHAR 0528
ENCODING 1320
SWIDTH 816 0
DWIDTH 17 0
BBX 16 19 -1 -4
BITMAP
1C07
1C07
1C07
1C07
1C07
1C07
1FFF
1FFF
1FFF
1C07
1C07
1C07
1C07
1C07
1C07
1C00
FC00
F800
F000
ENDCHAR
STARTCHAR 0529
ENCODING 1321
SWIDTH 672 0
DWIDTH 14 0
BBX 15 15 -2 -4
BITMAP
0E0E
0E0E
0E0E
0E0E
0FFE
0FFE
0FFE
0E0E
0E0E
0E0E
0E0E
1E00
7E00
FC00
F800
ENDCHAR
STARTCHAR 052E
ENCODING 1326
SWIDTH 816 0
DWIDTH 17 0
BBX 17 18 0 -3
BITMAP
0FFE00
0FFE00
0FFE00
1C1E00
1C1E00
1C1E00
1C1E00
1C1E00
1C1E00
1C1E00
1C1E00
3C1E00
F81F80
F81F80
F01F80
000380
000380
000380
ENDCHAR
STARTCHAR 052F
ENCODING 1327
SWIDTH 672 0
DWIDTH 14 0
BBX 14 13 0 -2
BITMAP
1FF0
1FF0
1FF0
1870
1870
3870
3870
3870
F87C
F07C
F07C
001C
001C
ENDCHAR
STARTCHAR 1E08
ENCODING 7688
SWIDTH 720 0
DWIDTH 15 0
BBX 14 24 1 -5
BITMAP
00E0
01C0
0380
0000
07E0
1FF0
3FF8
7838
F010
F000
E000
E000
E000
F000
F010
7838
3FFC
1FF8
0FE0
0300
0380
00C0
0780
0200
ENDCHAR
STARTCHAR 1E09
ENCODING 7689
SWIDTH 576 0
DWIDTH 12 0
BBX 11 21 1 -5
BITMAP
0380
0700
0E00
0000
0000
1F80
3FC0
7FE0
F0C0
E000
E000
E000
F0C0
FFE0
7FC0
1F80
0C00
0E00
0300
1E00
0800
ENDCHAR
STARTCHAR 1E0C
ENCODING 7692
SWIDTH 816 0
DWIDTH 17 0
BBX 14 19 2 -4
BITMAP
FFC0
FFF0
FFF8
E078
E03C
E01C
E01C
E01C
E01C
E01C
E03C
E078
FFF8
FFF0
FFC0
0000
0600
0E00
0600
ENDCHAR
STARTCHAR 1E0D
ENCODING 7693
SWIDTH 672 0
DWIDTH 14 0
BBX 12 20 1 -4
BITMAP
0070
0070
0070
0070
0070
1F70
7FF0
7FF0
F0F0
E070
E070
E070
F0F0
7FF0
7FF0
1F70
0000
0200
0700
0700
ENDCHAR
STARTCHAR 1E0E
ENCODING 7694
SWIDTH 816 0
DWIDTH 17 0
BBX 14 19 2 -4
BITMAP
FFC0
FFF0
FFF8
E078
E03C
E01C
E01C
E01C
E01C
E01C
E03C
E078
FFF8
FFF0
FFC0
0000
0000
3FC0
3FC0
ENDCHAR
STARTCHAR 1E0F
ENCODING 7695
SWIDTH 672 0
DWIDTH 14 0
BBX 12 20 1 -4
BITMAP
0070
0070
0070
0070
0070
1F70
7FF0
7FF0
F0F0
E070
E070
E070
F0F0
7FF0
7FF0
1F70
0000
0000
1FC0
1FC0
ENDCHAR
STARTCHAR 1E14
ENCODING 7700
SWIDTH 672 0
DWIDTH 14 0
BBX 11 22 2 0
BITMAP
3800
1C00
0600
0000
7F80
7F80
0000
FFE0
FFE0
FFE0
E000
E000
E000
FFC0
FFC0
FFC0
E000
E000
E000
FFE0
FFE0
FFE0
ENDCHAR
STARTCHAR 1E15
ENCODING 7701
SWIDTH 624 0
DWIDTH 13 0
BBX 11 19 1 0
BITMAP
3C00
0C00
0600
0000
3F80
3F80
0000
0000
1F00
7FC0
7BE0
E0E0
FFE0
FFE0
E000
F000
7FC0
3FC0
1F80
ENDCHAR
STARTCHAR 1E16
ENCODING 7702
SWIDTH 672 0
DWIDTH 14 0
BBX 11 22 2 0
BITMAP
0700
0E00
1C00
0000
7F80
7F80
0000
FFE0
FFE0
FFE0
E000
E000
E000
FFC0
FFC0
FFC0
E000
E000
E000
FFE0
FFE0
FFE0
ENDCHAR
STARTCHAR 1E17
ENCODING 7703
SWIDTH 624 0
DWIDTH 13 0
BBX 11 19 1 0
BITMAP
0380
0600
0C00
0000
3F80
3F80
0000
0000
1F00
7FC0
7BE0
E0E0
FFE0
FFE0
E000
F000
7FC0
3FC0
1F80
ENDCHAR
STARTCHAR 1E1C
ENCODING 7708
SWIDTH 672 0
DWIDTH 14 0
BBX 11 24 2 -5
BITMAP
7180
3F80
1E00
0000
FFE0
FFE0
FFE0
E000
E000
E000
FFC0
FFC0
FFC0
E000
E000
E000
FFE0
FFE0
FFE0
0C00
0E00
0300
1E00
0800
ENDCHAR
STARTCHAR 1E1D
ENCODING 7709
SWIDTH 624 0
DWIDTH 13 0
BBX 11 21 1 -5
BITMAP
3180
3F80
1F00
0000
0000
1F00
7FC0
7BE0
E0E0
FFE0
FFE0
E000
F000
7FC0
7FC0
1F80
0400
0E00
0300
1F00
0800
ENDCHAR
STARTCHAR 1E20
ENCODING 7712
SWIDTH 768 0
DWIDTH 16 0
BBX 14 18 1 0
BITMAP
0FF0
0FF0
0000
07E0
1FF8
3FFC
7838
F000
F000
E000
E01C
E01C
F01C
F01C
781C
3FFC
1FF8
07E0
ENDCHAR
STARTCHAR 1E21
ENCODING 7713
SWIDTH 720 0
DWIDTH 15 0
BBX 12 19 1 -4
BITMAP
3FC0
3FC0
0000
0000
1F70
7FF0
FFF0
F0F0
E070
E070
E070
F0F0
7FF0
3FF0
0E70
40F0
7FE0
FFE0
3F80
ENDCHAR
STARTCHAR 1E24
ENCODING 7716
SWIDTH 816 0
DWIDTH 17 0
BBX 13 19 2 -4
BITMAP
E038
E038
E038
E038
E038
E038
FFF8
FFF8
FFF8
E038
E038
E038
E038
E038
E038
0000
0600
0700
0700
ENDCHAR
STARTCHAR 1E25
ENCODING 7717
SWIDTH 672 0
DWIDTH 14 0
BBX 12 20 1 -4
BITMAP
F000
F000
F000
F000
F000
F7C0
FFE0
FFF0
F8F0
F070
F070
F070
F070
F070
F070
F070
0000
0600
0700
0600
ENDCHAR
STARTCHAR 1E2A
ENCODING 7722
SWIDTH 816 0
DWIDTH 17 0
BBX 13 20 2 -5
BITMAP
E038
E038
E038
E038
E038
E038
FFF8
FFF8
FFF8
E038
E038
E038
E038
E038
E038
0000
0000
18C0
1F80
0600
ENDCHAR
STARTCHAR 1E2B
ENCODING 7723
SWIDTH 672 0
DWIDTH 14 0
BBX 12 21 1 -5
BITMAP
F000
F000
F000
F000
F000
F7C0
FFE0
FFF0
F8F0
F070
F070
F070
F070
F070
F070
F070
0000
0000
18C0
1F80
0600
ENDCHAR
STARTCHAR 1E2E
ENCODING 7726
SWIDTH 336 0
DWIDTH 7 0
BBX 7 22 0 0
BITMAP
1E
18
30
CE
EE
44
00
38
38
38
38
38
38
38
38
38
38
38
38
38
38
38
ENDCHAR
STARTCHAR 1E2F
ENCODING 7727
SWIDTH 288 0
DWIDTH 6 0
BBX 7 20 0 0
BITMAP
0E
1C
30
00
CC
CE
CC
00
00
78
78
78
78
78
78
78
78
78
78
78
ENDCHAR
STARTCHAR 1E36
ENCODING 7734
SWIDTH 624 0
DWIDTH 13 0
BBX 10 19 2 -4
BITMAP
E000
E000
E000
E000
E000
E000
E000
E000
E000
E000
E000
E000
FFC0
FFC0
FFC0
0000
0C00
0E00
0C00
ENDCHAR
STARTCHAR 1E37
ENCODING 7735
SWIDTH 288 0
DWIDTH 6 0
BBX 4 20 1 -4
BITMAP
F0
F0
F0
F0
F0
F0
F0
F0
F0
F0
F0
F0
F0
F0
F0
F0
00
60
70
60
ENDCHAR
STARTCHAR 1E3A
ENCODING 7738
SWIDTH 624 0
DWIDTH 13 0
BBX 10 19 2 -4
BITMAP
E000
E000
E000
E000
E000
E000
E000
E000
E000
E000
E000
E000
FFC0
FFC0
FFC0
0000
0000
7F80
7F80
ENDCHAR
STARTCHAR 1E3B
ENCODING 7739
SWIDTH 288 0
DWIDTH 6 0
BBX 8 20 -1 -4
BITMAP
3C
3C
3C
3C
3C
3C
3C
3C
3C
3C
3C
3C
3C
3C
3C
3C
00
00
FF
FF
ENDCHAR
STARTCHAR 1E42
ENCODING 7746
SWIDTH 960 0
DWIDTH 20 0
BBX 16 19 2 -4
BITMAP
E007
E00F
F00F
F81F
F81F
FC3F
FC3F
EE77
EEF7
E7E7
E7C7
E3C7
E187
E007
E007
0000
0180
0380
0180
ENDCHAR
STARTCHAR 1E43
ENCODING 7747
SWIDTH 1056 0
DWIDTH 22 0
BBX 19 15 1 -4
BITMAP
F78780
FFFFC0
FFFFE0
F0F0E0
F0F0E0
F0F0E0
F0F0E0
F0F0E0
F0F0E0
F0F0E0
F0F0E0
000000
006000
00E000
006000
ENDCHAR
STARTCHAR 1E44
ENCODING 7748
SWIDTH 816 0
DWIDTH 17 0
BBX 13 20 2 0
BITMAP
0700
0700
0700
0200
0000
E038
F038
F838
F838
FC38
FE38
EF38
EF38
E7B8
E3F8
E1F8
E0F8
E0F8
E078
E038
ENDCHAR
STARTCHAR 1E45
ENCODING 7749
SWIDTH 672 0
DWIDTH 14 0
BBX 12 16 1 0
BITMAP
0600
0700
0700
0200
0000
F7C0
FFE0
FFF0
F0F0
F070
F070
F070
F070
F070
F070
F070
ENDCHAR
STARTCHAR 1E46
ENCODING 7750
SWIDTH 816 0
DWIDTH 17 0
BBX 13 19 2 -4
BITMAP
E038
F038
F838
F838
FC38
FE38
EF38
EF38
E7B8
E3F8
E1F8
E0F8
E0F8
E078
E038
0000
0600
0700
0700
ENDCHAR
STARTCHAR 1E47
ENCODING 7751
SWIDTH 672 0
DWIDTH 14 0
BBX 12 15 1 -4
BITMAP
F7C0
FFE0
FFF0
F0F0
F070
F070
F070
F070
F070
F070
F070
0000
0600
0700
0600
ENDCHAR
STARTCHAR 1E48
ENCODING 7752
SWIDTH 816 0
DWIDTH 17 0
BBX 13 19 2 -4
BITMAP
E038
F038
F838
F838
FC38
FE38
EF38
EF38
E7B8
E3F8
E1F8
E0F8
E0F8
E078
E038
0000
0000
1FC0
1FC0
ENDCHAR
STARTCHAR 1E49
ENCODING 7753
SWIDTH 672 0
DWIDTH 14 0
BBX 12 15 1 -4
BITMAP
F7C0
FFE0
FFF0
F0F0
F070
F070
F070
F070
F070
F070
F070
0000
0000
3FC0
3FC0
ENDCHAR
STARTCHAR 1E4C
ENCODING 7756
SWIDTH 864 0
DWIDTH 18 0
BBX 16 22 1 0
BITMAP
00E0
01C0
0300
0630
0FF0
0CE0
0000
07E0
1FF8
3FFC
783E
F01E
F00F
E00F
E00F
E00F
F00F
F01E
783E
3FFC
1FF8
07E0
ENDCHAR
STARTCHAR 1E4D
ENCODING 7757
SWIDTH 672 0
DWIDTH 14 0
BBX 12 18 1 0
BITMAP
0380
0700
0C00
18C0
3F80
3300
0000
1F00
3FC0
7FE0
F0F0
E070
E070
E070
F0F0
7FE0
7FC0
1F00
ENDCHAR
STARTCHAR 1E4E
ENCODING 7758
SWIDTH 864 0
DWIDTH 18 0
BBX 16 22 1 0
BITMAP
0660
0EE0
0660
0600
0FF0
0CE0
0000
07E0
1FF8
3FFC
783E
F01E
F00F
E00F
E00F
E00F
F00F
F01E
783E
3FFC
1FF8
07E0
ENDCHAR
STARTCHAR 1E4F
ENCODING 7759
SWIDTH 672 0
DWIDTH 14 0
BBX 12 19 1 0
BITMAP
1980
3B80
1980
0000
1CC0
3F80
3300
0000
1F00
3FC0
7FE0
F0F0
E070
E070
E070
F0F0
7FE0
7FC0
1F00
ENDCHAR
STARTCHAR 1E50
ENCODING 7760
SWIDTH 864 0
DWIDTH 18 0
BBX 16 22 1 0
BITMAP
0700
0380
01C0
0000
0FF0
0FF0
0000
07E0
1FF8
3FFC
783E
F01E
F00F
E00F
E00F
E00F
F00F
F01E
783E
3FFC
1FF8
07E0
ENDCHAR
STARTCHAR 1E51
ENCODING 7761
SWIDTH 672 0
DWIDTH 14 0
BBX 12 19 1 0
BITMAP
1C00
0E00
0700
0000
3FC0
3FC0
0000
0000
1F00
3FC0
7FE0
F0F0
E070
E070
E070
F0F0
7FE0
7FC0
1F00
ENDCHAR
STARTCHAR 1E52
ENCODING 7762
SWIDTH 864 0
DWIDTH 18 0
BBX 16 22 1 0
BITMAP
00E0
01C0
0300
0000
0FF0
0FF0
0000
07E0
1FF8
3FFC
783E
F01E
F00F
E00F
E00F
E00F
F00F
F01E
783E
3FFC
1FF8
07E0
ENDCHAR
STARTCHAR 1E53
ENCODING 7763
SWIDTH 672 0
DWIDTH 14 0
BBX 12 19 1 0
BITMAP
0380
0700
0C00
0000
3FC0
3FC0
0000
0000
1F00
3FC0
7FE0
F0F0
E070
E070
E070
F0F0
7FE0
7FC0
1F00
ENDCHAR
STARTCHAR 1E5A
ENCODING 7770
SWIDTH 720 0
DWIDTH 15 0
BBX 12 19 2 -4
BITMAP
FF80
FFE0
FFF0
E0F0
E070
E070
E070
E0F0
FFE0
FFC0
FFC0
E1C0
E1E0
E0F0
E070
0000
0600
0E00
0600
ENDCHAR
STARTCHAR 1E5B
ENCODING 7771
SWIDTH 432 0
DWIDTH 9 0
BBX 7 15 1 -4
BITMAP
F6
FE
FE
F8
F0
F0
F0
F0
F0
F0
F0
00
60
70
60
ENDCHAR
STARTCHAR 1E5E
ENCODING 7774
SWIDTH 720 0
DWIDTH 15 0
BBX 12 19 2 -4
BITMAP
FF80
FFE0
FFF0
E0F0
E070
E070
E070
E0F0
FFE0
FFC0
FFC0
E1C0
E1E0
E0F0
E070
0000
0000
3FC0
3FC0
ENDCHAR
STARTCHAR 1E5F
ENCODING 7775
SWIDTH 432 0
DWIDTH 9 0
BBX 9 15 -1 -4
BITMAP
3D80
3F80
3F80
3E00
3C00
3C00
3C00
3C00
3C00
3C00
3C00
0000
0000
FF00
FF00
ENDCHAR
STARTCHAR 1E60
ENCODING 7776
SWIDTH 624 0
DWIDTH 13 0
BBX 12 19 1 1
BITMAP
0E00
0E00
0600
0000
1F80
7FE0
FFE0
F040
E000
F000
FE00
7FC0
1FE0
01F0
00F0
C0F0
FFE0
FFC0
3F80
ENDCHAR
STARTCHAR 1E61
ENCODING 7777
SWIDTH 528 0
DWIDTH 11 0
BBX 10 16 1 0
BITMAP
1C00
1C00
1C00
0800
0000
3F00
FF80
F700
E000
F000
FF00
3F80
03C0
F780
FF80
7E00
ENDCHAR
STARTCHAR 1E62
ENCODING 7778
SWIDTH 624 0
DWIDTH 13 0
BBX 12 19 1 -4
BITMAP
1F80
7FE0
FFE0
F040
E000
F000
FE00
7FC0
1FE0
01F0
00F0
C0F0
FFE0
FFC0
3F80
0000
0600
0E00
0600
ENDCHAR
STARTCHAR 1E63
ENCODING 7779
SWIDTH 528 0
DWIDTH 11 0
BBX 10 15 1 -4
BITMAP
3F00
FF80
F700
E000
F000
FF00
3F80
03C0
F780
FF80
7E00
0000
1800
1C00
1C00
ENDCHAR
STARTCHAR 1E64
ENCODING 7780
SWIDTH 624 0
DWIDTH 13 0
BBX 12 22 1 0
BITMAP
0600
0E00
0600
03C0
0700
0E00
0000
1F80
7FE0
FFE0
F040
E000
F000
FE00
7FC0
1FE0
01F0
00F0
C0F0
FFE0
FFC0
3F80
ENDCHAR
STARTCHAR 1E65
ENCODING 7781
SWIDTH 528 0
DWIDTH 11 0
BBX 10 19 1 0
BITMAP
1800
1C00
1C00
0000
0F00
0C00
1800
0000
3F00
FF80
F700
E000
F000
FF00
3F80
03C0
F780
FF80
7E00
ENDCHAR
STARTCHAR 1E66
ENCODING 7782
SWIDTH 624 0
DWIDTH 13 0
BBX 12 22 1 0
BITMAP
0600
0E00
0600
0000
3B80
0F00
0000
1F80
7FE0
FFE0
F040
E000
F000
FE00
7FC0
1FE0
01F0
00F0
C0F0
FFE0
FFC0
3F80
ENDCHAR
STARTCHAR 1E67
ENCODING 7783
SWIDTH 528 0
DWIDTH 11 0
BBX 10 18 1 0
BITMAP
1C00
1C00
1800
0000
7700
3C00
0000
3F00
FF80
F700
E000
F000
FF00
3F80
03C0
F780
FF80
7E00
ENDCHAR
STARTCHAR 1E68
ENCODING 7784
SWIDTH 624 0
DWIDTH 13 0
BBX 12 23 1 -3
BITMAP
0E00
0E00
0600
0000
1F80
7FE0
FFE0
F040
E000
F000
FE00
7FC0
1FE0
01F0
00F0
C0F0
FFE0
FFC0
3F80
0000
0600
0E00
0600
ENDCHAR
STARTCHAR 1E69
ENCODING 7785
SWIDTH 528 0
DWIDTH 11 0
BBX 10 20 1 -4
BITMAP
1C00
1C00
1C00
0800
0000
3F00
FF80
F700
E000
F000
FF00
3F80
03C0
F780
FF80
7E00
0000
1800
1C00
1C00
ENDCHAR
STARTCHAR 1E6C
ENCODING 7788
SWIDTH 624 0
DWIDTH 13 0
BBX 13 19 0 -4
BITMAP
FFF8
FFF8
FFF8
0700
0700
0700
0700
0700
0700
0700
0700
0700
0700
0700
0700
0000
0600
0700
0700
ENDCHAR
STARTCHAR 1E6D
ENCODING 7789
SWIDTH 432 0
DWIDTH 9 0
BBX 8 18 0 -4
BITMAP
38
38
38
FF
FF
3F
38
38
38
38
38
3F
1F
0F
00
04
0E
0E
ENDCHAR
STARTCHAR 1E6E
ENCODING 7790
SWIDTH 624 0
DWIDTH 13 0
BBX 13 19 0 -4
BITMAP
FFF8
FFF8
FFF8
0700
0700
0700
0700
0700
0700
0700
0700
0700
0700
0700
0700
0000
0000
1FC0
1FC0
ENDCHAR
STARTCHAR 1E6F
ENCODING 7791
SWIDTH 432 0
DWIDTH 9 0
BBX 9 18 0 -4
BITMAP
3800
3800
3800
FF00
FF00
3F00
3800
3800
3800
3800
3800
3F00
1F00
0F00
0000
0000
3F80
3F80
ENDCHAR
STARTCHAR 1E78
ENCODING 7800
SWIDTH 768 0
DWIDTH 16 0
BBX 13 22 2 0
BITMAP
0380
0700
0E00
0C40
1FC0
3380
0000
E078
E078
E078
E078
E078
E078
E078
E078
E078
E078
E078
F0F0
7FF0
3FE0
1F80
ENDCHAR
STARTCHAR 1E79
ENCODING 7801
SWIDTH 672 0
DWIDTH 14 0
BBX 12 19 1 0
BITMAP
01C0
0380
0600
0000
1CC0
3FC0
3180
0000
F070
F070
F070
F070
F070
F070
F0F0
70F0
7FF0
7FF0
1E70
ENDCHAR
STARTCHAR 1E7A
ENCODING 7802
SWIDTH 768 0
DWIDTH 16 0
BBX 13 23 2 0
BITMAP
1980
1DC0
1980
0000
0000
3FC0
3FC0
0000
E078
E078
E078
E078
E078
E078
E078
E078
E078
E078
E078
F0F0
7FF0
3FE0
1F80
ENDCHAR
STARTCHAR 1E7B
ENCODING 7803
SWIDTH 672 0
DWIDTH 14 0
BBX 12 19 1 0
BITMAP
1980
19C0
1980
0000
3FC0
3FC0
0000
0000
F070
F070
F070
F070
F070
F070
F0F0
70F0
7FF0
7FF0
1E70
ENDCHAR
STARTCHAR 1E80
ENCODING 7808
SWIDTH 1152 0
DWIDTH 24 0
BBX 23 19 1 0
BITMAP
01E000
007000
003800
000000
E0381E
E0781C
F07C1C
707C3C
70FC38
78FE38
38EE78
39CE70
3DCE70
3DC770
1F87E0
1F87E0
1F83E0
0F03C0
0F03C0
ENDCHAR
STARTCHAR 1E81
ENCODING 7809
SWIDTH 960 0
DWIDTH 20 0
BBX 19 16 0 0
BITMAP
038000
01C000
00E000
000000
000000
E0E0E0
70F0E0
70F0E0
71F1C0
39F9C0
3BB980
3B9F80
1F9F80
1F1F00
1F0F00
0E0F00
ENDCHAR
STARTCHAR 1E82
ENCODING 7810
SWIDTH 1152 0
DWIDTH 24 0
BBX 23 19 1 0
BITMAP
000E00
001C00
003000
000000
E0381E
E0781C
F07C1C
707C3C
70FC38
78FE38
38EE78
39CE70
3DCE70
3DC770
1F87E0
1F87E0
1F83E0
0F03C0
0F03C0
ENDCHAR
STARTCHAR 1E83
ENCODING 7811
SWIDTH 960 0
DWIDTH 20 0
BBX 19 16 0 0
BITMAP
003C00
007000
00E000
000000
000000
E0E0E0
70F0E0
70F0E0
71F1C0
39F9C0
3BB980
3B9F80
1F9F80
1F1F00
1F0F00
0E0F00
ENDCHAR
STARTCHAR 1E84
ENCODING 7812
SWIDTH 1152 0
DWIDTH 24 0
BBX 23 19 1 0
BITMAP
00CC00
00CE00
00CC00
000000
E0381E
E0781C
F07C1C
707C3C
70FC38
78FE38
38EE78
39CE70
3DCE70
3DC770
1F87E0
1F87E0
1F83E0
0F03C0
0F03C0
ENDCHAR
STARTCHAR 1E85
ENCODING 7813
SWIDTH 960 0
DWIDTH 20 0
BBX 19 16 0 0
BITMAP
039800
03B800
019800
000000
000000
E0E0E0
70F0E0
70F0E0
71F1C0
39F9C0
3BB980
3B9F80
1F9F80
1F1F00
1F0F00
0E0F00
ENDCHAR
STARTCHAR 1E8E
ENCODING 7822
SWIDTH 672 0
DWIDTH 14 0
BBX 14 20 0 0
BITMAP
0300
0780
0780
0000
0000
F01C
703C
7838
3870
3CF0
1CE0
1FE0
0FC0
0780
0780
0780
0780
0780
0780
0780
ENDCHAR
STARTCHAR 1E8F
ENCODING 7823
SWIDTH 576 0
DWIDTH 12 0
BBX 12 20 0 -4
BITMAP
0600
0F00
0F00
0000
0000
E070
F070
70F0
78E0
38E0
3DC0
1DC0
1F80
0F80
0F00
0F00
0F00
7E00
FC00
7800
ENDCHAR
STARTCHAR 1E92
ENCODING 7826
SWIDTH 672 0
DWIDTH 14 0
BBX 13 19 1 -4
BITMAP
FFF0
FFF0
FFF0
01E0
03C0
03C0
0780
0F00
1E00
3C00
3C00
7800
FFF8
FFF8
FFF8
0000
0600
0700
0600
ENDCHAR
STARTCHAR 1E93
ENCODING 7827
SWIDTH 528 0
DWIDTH 11 0
BBX 10 15 1 -4
BITMAP
FFC0
FFC0
0780
0700
0E00
1C00
3C00
7800
F000
FFC0
FFC0
0000
0C00
1C00
0C00
ENDCHAR
STARTCHAR 1E97
ENCODING 7831
SWIDTH 432 0
DWIDTH 9 0
BBX 8 18 0 0
BITMAP
EE
EE
C6
00
38
38
38
FF
FF
3F
38
38
38
38
38
3F
1F
0F
ENDCHAR
STARTCHAR 1E9E
ENCODING 7838
SWIDTH 768 0
DWIDTH 16 0
BBX 13 15 2 0
BITMAP
0FC0
3FF0
7FF0
F070
E0E0
E1C0
E3E0
E7F0
E3F8
E038
E038
E038
E7F8
E7F0
E7E0
ENDCHAR
STARTCHAR 1EA0
ENCODING 7840
SWIDTH 768 0
DWIDTH 16 0
BBX 16 19 0 -4
BITMAP
03C0
03C0
07E0
07E0
0EF0
0E70
1E70
1C38
1C38
3FFC
3FFC
7FFE
700E
F00F
E00F
0000
0180
0180
0180
ENDCHAR
STARTCHAR 1EA1
ENCODING 7841
SWIDTH 624 0
DWIDTH 13 0
BBX 10 15 1 -4
BITMAP
3F00
FF80
7FC0
01C0
3FC0
FFC0
E1C0
E1C0
F3C0
FFC0
3DC0
0000
0C00
0E00
0C00
ENDCHAR
STARTCHAR 1EA2
ENCODING 7842
SWIDTH 768 0
DWIDTH 16 0
BBX 16 21 0 0
BITMAP
03C0
03C0
0060
00C0
0080
0000
03C0
03C0
07E0
07E0
0EF0
0E70
1E70
1C38
1C38
3FFC
3FFC
7FFE
700E
F00F
E00F
ENDCHAR
STARTCHAR 1EA3
ENCODING 7843
SWIDTH 624 0
DWIDTH 13 0
BBX 10 17 1 0
BITMAP
1E00
0F00
0300
0700
0200
0000
3F00
FF80
7FC0
01C0
3FC0
FFC0
E1C0
E1C0
F3C0
FFC0
3DC0
ENDCHAR
STARTCHAR 1EA4
ENCODING 7844
SWIDTH 768 0
DWIDTH 16 0
BBX 16 21 0 0
BITMAP
0007
000E
0018
03C0
0E70
0000
03C0
03C0
07E0
07E0
0EF0
0E70
1E70
1C38
1C38
3FFC
3FFC
7FFE
700E
F00F
E00F
ENDCHAR
STARTCHAR 1EA5
ENCODING 7845
SWIDTH 624 0
DWIDTH 13 0
BBX 13 17 1 0
BITMAP
0038
0070
00C0
1F00
3380
0000
3F00
FF80
7FC0
01C0
3FC0
FFC0
E1C0
E1C0
F3C0
FFC0
3DC0
ENDCHAR
STARTCHAR 1EA6
ENCODING 7846
SWIDTH 768 0
DWIDTH 16 0
BBX 16 21 0 0
BITMAP
00F0
0038
001C
03C0
0E70
0000
03C0
03C0
07E0
07E0
0EF0
0E70
1E70
1C38
1C38
3FFC
3FFC
7FFE
700E
F00F
E00F
ENDCHAR
STARTCHAR 1EA7
ENCODING 7847
SWIDTH 624 0
DWIDTH 13 0
BBX 11 17 1 0
BITMAP
03C0
00C0
0060
1F00
3380
0000
3F00
FF80
7FC0
01C0
3FC0
FFC0
E1C0
E1C0
F3C0
FFC0
3DC0
ENDCHAR
STARTCHAR 1EA8
ENCODING 7848
SWIDTH 768 0
DWIDTH 16 0
BBX 16 21 0 0
BITMAP
0038
0008
0018
03C0
0E70
0000
03C0
03C0
07E0
07E0
0EF0
0E70
1E70
1C38
1C38
3FFC
3FFC
7FFE
700E
F00F
E00F
ENDCHAR
STARTCHAR 1EA9
ENCODING 7849
SWIDTH 624 0
DWIDTH 13 0
BBX 11 17 1 0
BITMAP
01C0
0060
00C0
1F00
3380
0000
3F00
FF80
7FC0
01C0
3FC0
FFC0
E1C0
E1C0
F3C0
FFC0
3DC0
ENDCHAR
STARTCHAR 1EAA
ENCODING 7850
SWIDTH 768 0
DWIDTH 16 0
BBX 16 22 0 0
BITMAP
0730
0FF0
0C40
0000
03C0
0E70
0000
03C0
03C0
07E0
07E0
0EF0
0E70
1E70
1C38
1C38
3FFC
3FFC
7FFE
700E
F00F
E00F
ENDCHAR
STARTCHAR 1EAB
ENCODING 7851
SWIDTH 624 0
DWIDTH 13 0
BBX 10 18 1 0
BITMAP
3880
3F80
6300
0000
1F00
3380
0000
3F00
FF80
7FC0
01C0
3FC0
FFC0
E1C0
E1C0
F3C0
FFC0
3DC0
ENDCHAR
STARTCHAR 1EAC
ENCODING 7852
SWIDTH 768 0
DWIDTH 16 0
BBX 16 23 0 -4
BITMAP
03C0
07E0
0E70
0000
03C0
03C0
07E0
07E0
0EF0
0E70
1E70
1C38
1C38
3FFC
3FFC
7FFE
700E
F00F
E00F
0000
0180
0180
0180
ENDCHAR
STARTCHAR 1EAD
ENCODING 7853
SWIDTH 624 0
DWIDTH 13 0
BBX 10 20 1 -4
BITMAP
1E00
1F00
3180
0000
0000
3F00
FF80
7FC0
01C0
3FC0
FFC0
E1C0
E1C0
F3C0
FFC0
3DC0
0000
0C00
0E00
0C00
ENDCHAR
STARTCHAR 1EAE
ENCODING 7854
SWIDTH 768 0
DWIDTH 16 0
BBX 16 22 0 0
BITMAP
00F0
00C0
0180
0000
0FE0
03C0
0000
03C0
03C0
07E0
07E0
0EF0
0E70
1E70
1C38
1C38
3FFC
3FFC
7FFE
700E
F00F
E00F
ENDCHAR
STARTCHAR 1EAF
ENCODING 7855
SWIDTH 624 0
DWIDTH 13 0
BBX 10 18 1 0
BITMAP
0780
0E00
0C00
3180
3F80
1F00
0000
3F00
FF80
7FC0
01C0
3FC0
FFC0
E1C0
E1C0
F3C0
FFC0
3DC0
ENDCHAR
STARTCHAR 1EB0
ENCODING 7856
SWIDTH 768 0
DWIDTH 16 0
BBX 16 22 0 0
BITMAP
0E00
0700
0180
0000
0FE0
03C0
0000
03C0
03C0
07E0
07E0
0EF0
0E70
1E70
1C38
1C38
3FFC
3FFC
7FFE
700E
F00F
E00F
ENDCHAR
STARTCHAR 1EB1
ENCODING 7857
SWIDTH 624 0
DWIDTH 13 0
BBX 10 18 1 0
BITMAP
3800
1C00
0600
3180
3F80
1F00
0000
3F00
FF80
7FC0
01C0
3FC0
FFC0
E1C0
E1C0
F3C0
FFC0
3DC0
ENDCHAR
STARTCHAR 1EB2
ENCODING 7858
SWIDTH 768 0
DWIDTH 16 0
BBX 16 22 0 0
BITMAP
0380
00C0
00C0
0C30
0FE0
03C0
0000
03C0
03C0
07E0
07E0
0EF0
0E70
1E70
1C38
1C38
3FFC
3FFC
7FFE
700E
F00F
E00F
ENDCHAR
STARTCHAR 1EB3
ENCODING 7859
SWIDTH 624 0
DWIDTH 13 0
BBX 10 18 1 0
BITMAP
0E00
0200
0600
2180
3F80
1F00
0000
3F00
FF80
7FC0
01C0
3FC0
FFC0
E1C0
E1C0
F3C0
FFC0
3DC0
ENDCHAR
STARTCHAR 1EB4
ENCODING 7860
SWIDTH 768 0
DWIDTH 16 0
BBX 16 22 0 0
BITMAP
0730
0FF0
0CE0
0000
0FE0
03C0
0000
03C0
03C0
07E0
07E0
0EF0
0E70
1E70
1C38
1C38
3FFC
3FFC
7FFE
700E
F00F
E00F
ENDCHAR
STARTCHAR 1EB5
ENCODING 7861
SWIDTH 624 0
DWIDTH 13 0
BBX 10 18 1 0
BITMAP
3880
3F80
6300
3180
3F80
1F00
0000
3F00
FF80
7FC0
01C0
3FC0
FFC0
E1C0
E1C0
F3C0
FFC0
3DC0
ENDCHAR
STARTCHAR 1EB6
ENCODING 7862
SWIDTH 768 0
DWIDTH 16 0
BBX 16 23 0 -4
BITMAP
0C30
07E0
03C0
0000
03C0
03C0
07E0
07E0
0EF0
0E70
1E70
1C38
1C38
3FFC
3FFC
7FFE
700E
F00F
E00F
0000
0180
0180
0180
ENDCHAR
STARTCHAR 1EB7
ENCODING 7863
SWIDTH 624 0
DWIDTH 13 0
BBX 10 20 1 -4
BITMAP
3180
3F80
1F00
0000
0000
3F00
FF80
7FC0
01C0
3FC0
FFC0
E1C0
E1C0
F3C0
FFC0
3DC0
0000
0C00
0E00
0C00
ENDCHAR
STARTCHAR 1EB8
ENCODING 7864
SWIDTH 672 0
DWIDTH 14 0
BBX 11 19 2 -4
BITMAP
FFE0
FFE0
FFE0
E000
E000
E000
FFC0
FFC0
FFC0
E000
E000
E000
FFE0
FFE0
FFE0
0000
0C00
0E00
0C00
ENDCHAR
STARTCHAR 1EB9
ENCODING 7865
SWIDTH 624 0
DWIDTH 13 0
BBX 11 15 1 -4
BITMAP
1F00
7FC0
7BE0
E0E0
FFE0
FFE0
E000
F000
7FC0
3FC0
1F80
0000
0600
0E00
0E00
ENDCHAR
STARTCHAR 1EBA
ENCODING 7866
SWIDTH 672 0
DWIDTH 14 0
BBX 11 21 2 0
BITMAP
1E00
1F00
0300
0700
0600
0000
FFE0
FFE0
FFE0
E000
E000
E000
FFC0
FFC0
FFC0
E000
E000
E000
FFE0
FFE0
FFE0
ENDCHAR
STARTCHAR 1EBB
ENCODING 7867
SWIDTH 624 0
DWIDTH 13 0
BBX 11 17 1 0
BITMAP
0E00
0F00
0300
0300
0200
0000
1F00
7FC0
7BE0
E0E0
FFE0
FFE0
E000
F000
7FC0
3FC0
1F80
ENDCHAR
STARTCHAR 1EBC
ENCODING 7868
SWIDTH 672 0
DWIDTH 14 0
BBX 11 19 2 0
BITMAP
3980
3F80
6300
0000
FFE0
FFE0
FFE0
E000
E000
E000
FFC0
FFC0
FFC0
E000
E000
E000
FFE0
FFE0
FFE0
ENDCHAR
STARTCHAR 1EBD
ENCODING 7869
SWIDTH 624 0
DWIDTH 13 0
BBX 11 16 1 0
BITMAP
1CC0
3F80
2380
0000
0000
1F00
7FC0
7BE0
E0E0
FFE0
FFE0
E000
F000
7FC0
3FC0
1F80
ENDCHAR
STARTCHAR 1EBE
ENCODING 7870
SWIDTH 672 0
DWIDTH 14 0
BBX 13 21 2 0
BITMAP
0038
0070
00E0
1F00
3380
0000
FFE0
FFE0
FFE0
E000
E000
E000
FFC0
FFC0
FFC0
E000
E000
E000
FFE0
FFE0
FFE0
ENDCHAR
STARTCHAR 1EBF
ENCODING 7871
SWIDTH 624 0
DWIDTH 13 0
BBX 13 17 1 0
BITMAP
0038
0070
00C0
1F00
3980
0000
1F00
7FC0
7BE0
E0E0
FFE0
FFE0
E000
F000
7FC0
3FC0
1F80
ENDCHAR
STARTCHAR 1EC0
ENCODING 7872
SWIDTH 672 0
DWIDTH 14 0
BBX 11 21 2 0
BITMAP
0380
01C0
00E0
1F00
3380
0000
FFE0
FFE0
FFE0
E000
E000
E000
FFC0
FFC0
FFC0
E000
E000
E000
FFE0
FFE0
FFE0
ENDCHAR
STARTCHAR 1EC1
ENCODING 7873
SWIDTH 624 0
DWIDTH 13 0
BBX 12 17 1 0
BITMAP
01C0
00E0
0070
1F00
3980
0000
1F00
7FC0
7BE0
E0E0
FFE0
FFE0
E000
F000
7FC0
3FC0
1F80
ENDCHAR
STARTCHAR 1EC2
ENCODING 7874
SWIDTH 672 0
DWIDTH 14 0
BBX 11 21 2 0
BITMAP
01C0
0040
00C0
1F00
3380
0000
FFE0
FFE0
FFE0
E000
E000
E000
FFC0
FFC0
FFC0
E000
E000
E000
FFE0
FFE0
FFE0
ENDCHAR
STARTCHAR 1EC3
ENCODING 7875
SWIDTH 624 0
DWIDTH 13 0
BBX 11 17 1 0
BITMAP
01C0
0060
0040
1F00
3980
0000
1F00
7FC0
7BE0
E0E0
FFE0
FFE0
E000
F000
7FC0
3FC0
1F80
ENDCHAR
STARTCHAR 1EC4
ENCODING 7876
SWIDTH 672 0
DWIDTH 14 0
BBX 11 22 2 0
BITMAP
3980
3F80
6300
0000
1F00
3380
0000
FFE0
FFE0
FFE0
E000
E000
E000
FFC0
FFC0
FFC0
E000
E000
E000
FFE0
FFE0
FFE0
ENDCHAR
STARTCHAR 1EC5
ENCODING 7877
SWIDTH 624 0
DWIDTH 13 0
BBX 11 18 1 0
BITMAP
1C80
3F80
2300
0000
1F00
3980
0000
1F00
7FC0
7BE0
E0E0
FFE0
FFE0
E000
F000
7FC0
3FC0
1F80
ENDCHAR
STARTCHAR 1EC6
ENCODING 7878
SWIDTH 672 0
DWIDTH 14 0
BBX 11 23 2 -4
BITMAP
1E00
3F00
3380
0000
FFE0
FFE0
FFE0
E000
E000
E000
FFC0
FFC0
FFC0
E000
E000
E000
FFE0
FFE0
FFE0
0000
0C00
0E00
0C00
ENDCHAR
STARTCHAR 1EC7
ENCODING 7879
SWIDTH 624 0
DWIDTH 13 0
BBX 11 20 1 -4
BITMAP
0E00
1B00
3180
0000
0000
1F00
7FC0
7BE0
E0E0
FFE0
FFE0
E000
F000
7FC0
3FC0
1F80
0000
0600
0E00
0E00
ENDCHAR
STARTCHAR 1EC8
ENCODING 7880
SWIDTH 336 0
DWIDTH 7 0
BBX 4 21 2 0
BITMAP
E0
F0
30
30
20
00
E0
E0
E0
E0
E0
E0
E0
E0
E0
E0
E0
E0
E0
E0
E0
ENDCHAR
STARTCHAR 1EC9
ENCODING 7881
SWIDTH 288 0
DWIDTH 6 0
BBX 5 17 1 0
BITMAP
F0
F8
18
30
20
00
F0
F0
F0
F0
F0
F0
F0
F0
F0
F0
F0
ENDCHAR
STARTCHAR 1ECA
ENCODING 7882
SWIDTH 336 0
DWIDTH 7 0
BBX 3 19 2 -4
BITMAP
E0
E0
E0
E0
E0
E0
E0
E0
E0
E0
E0
E0
E0
E0
E0
00
C0
E0
E0
ENDCHAR
STARTCHAR 1ECB
ENCODING 7883
SWIDTH 288 0
DWIDTH 6 0
BBX 4 20 1 -4
BITMAP
70
F0
F0
60
00
F0
F0
F0
F0
F0
F0
F0
F0
F0
F0
F0
00
60
70
60
ENDCHAR
STARTCHAR 1ECC
ENCODING 7884
SWIDTH 864 0
DWIDTH 18 0
BBX 16 19 1 -4
BITMAP
07E0
1FF8
3FFC
783E
F01E
F00F
E00F
E00F
E00F
F00F
F01E
783E
3FFC
1FF8
07E0
0000
0180
0380
0180
ENDCHAR
STARTCHAR 1ECD
ENCODING 7885
SWIDTH 672 0
DWIDTH 14 0
BBX 12 15 1 -4
BITMAP
1F00
3FC0
7FE0
F0F0
E070
E070
E070
F0F0
7FE0
7FC0
1F00
0000
0600
0E00
0600
ENDCHAR
STARTCHAR 1ECE
ENCODING 7886
SWIDTH 864 0
DWIDTH 18 0
BBX 16 21 1 0
BITMAP
0180
03C0
00C0
00C0
00C0
0000
07E0
1FF8
3FFC
783E
F01E
F00F
E00F
E00F
E00F
F00F
F01E
783E
3FFC
1FF8
07E0
ENDCHAR
STARTCHAR 1ECF
ENCODING 7887
SWIDTH 672 0
DWIDTH 14 0
BBX 12 17 1 0
BITMAP
0E00
0F00
0300
0300
0200
0000
1F00
3FC0
7FE0
F0F0
E070
E070
E070
F0F0
7FE0
7FC0
1F00
ENDCHAR
STARTCHAR 1ED0
ENCODING 7888
SWIDTH 864 0
DWIDTH 18 0
BBX 16 21 1 0
BITMAP
0007
000E
0018
07C0
0E60
0000
07E0
1FF8
3FFC
783E
F01E
F00F
E00F
E00F
E00F
F00F
F01E
783E
3FFC
1FF8
07E0
ENDCHAR
STARTCHAR 1ED1
ENCODING 7889
SWIDTH 672 0
DWIDTH 14 0
BBX 13 17 1 0
BITMAP
0038
0070
00E0
1F00
3980
0000
1F00
3FC0
7FE0
F0F0
E070
E070
E070
F0F0
7FE0
7FC0
1F00
ENDCHAR
STARTCHAR 1ED2
ENCODING 7890
SWIDTH 864 0
DWIDTH 18 0
BBX 16 21 1 0
BITMAP
00F0
0030
0018
07C0
0E60
0000
07E0
1FF8
3FFC
783E
F01E
F00F
E00F
E00F
E00F
F00F
F01E
783E
3FFC
1FF8
07E0
ENDCHAR
STARTCHAR 1ED3
ENCODING 7891
SWIDTH 672 0
DWIDTH 14 0
BBX 12 17 1 0
BITMAP
01C0
00E0
0070
1F00
3980
0000
1F00
3FC0
7FE0
F0F0
E070
E070
E070
F0F0
7FE0
7FC0
1F00
ENDCHAR
STARTCHAR 1ED4
ENCODING 7892
SWIDTH 864 0
DWIDTH 18 0
BBX 16 21 1 0
BITMAP
0070
0018
0018
07C0
0E60
0000
07E0
1FF8
3FFC
783E
F01E
F00F
E00F
E00F
E00F
F00F
F01E
783E
3FFC
1FF8
07E0
ENDCHAR
STARTCHAR 1ED5
ENCODING 7893
SWIDTH 672 0
DWIDTH 14 0
BBX 12 17 1 0
BITMAP
01E0
0060
0060
1F00
3980
0000
1F00
3FC0
7FE0
F0F0
E070
E070
E070
F0F0
7FE0
7FC0
1F00
ENDCHAR
STARTCHAR 1ED6
ENCODING 7894
SWIDTH 864 0
DWIDTH 18 0
BBX 16 22 1 0
BITMAP
0630
0FF0
0CE0
0000
07C0
0E60
0000
07E0
1FF8
3FFC
783E
F01E
F00F
E00F
E00F
E00F
F00F
F01E
783E
3FFC
1FF8
07E0
ENDCHAR
STARTCHAR 1ED7
ENCODING 7895
SWIDTH 672 0
DWIDTH 14 0
BBX 12 18 1 0
BITMAP
1CC0
3F80
3300
0000
1F00
3980
0000
1F00
3FC0
7FE0
F0F0
E070
E070
E070
F0F0
7FE0
7FC0
1F00
ENDCHAR
STARTCHAR 1ED8
ENCODING 7896
SWIDTH 864 0
DWIDTH 18 0
BBX 16 23 1 -4
BITMAP
03C0
07E0
0E70
0000
07E0
1FF8
3FFC
783E
F01E
F00F
E00F
E00F
E00F
F00F
F01E
783E
3FFC
1FF8
07E0
0000
0180
0380
0180
ENDCHAR
STARTCHAR 1ED9
ENCODING 7897
SWIDTH 672 0
DWIDTH 14 0
BBX 12 20 1 -4
BITMAP
0F00
1F80
39C0
0000
0000
1F00
3FC0
7FE0
F0F0
E070
E070
E070
F0F0
7FE0
7FC0
1F00
0000
0600
0E00
0600
ENDCHAR
STARTCHAR 1EDA
ENCODING 7898
SWIDTH 864 0
DWIDTH 18 0
BBX 16 19 1 0
BITMAP
00F0
01C6
0387
0007
07FE
1FFC
3FFC
783E
F01E
F00F
E00F
E00F
E00F
F00F
F01E
783E
3FFC
1FF8
07E0
ENDCHAR
STARTCHAR 1EDB
ENCODING 7899
SWIDTH 672 0
DWIDTH 14 0
BBX 12 16 1 0
BITMAP
03C0
0720
0E30
0030
0070
1FE0
3FC0
7FE0
F0F0
E070
E070
E070
F0F0
7FE0
7FC0
1F00
ENDCHAR
STARTCHAR 1EDC
ENCODING 7900
SWIDTH 864 0
DWIDTH 18 0
BBX 16 19 1 0
BITMAP
0E00
0706
0187
0007
07FE
1FFC
3FFC
783E
F01E
F00F
E00F
E00F
E00F
F00F
F01E
783E
3FFC
1FF8
07E0
ENDCHAR
STARTCHAR 1EDD
ENCODING 7901
SWIDTH 672 0
DWIDTH 14 0
BBX 12 16 1 0
BITMAP
3800
1C20
0630
0030
0070
1FE0
3FC0
7FE0
F0F0
E070
E070
E070
F0F0
7FE0
7FC0
1F00
ENDCHAR
STARTCHAR 1EDE
ENCODING 7902
SWIDTH 864 0
DWIDTH 18 0
BBX 16 21 1 0
BITMAP
0180
03C0
00C0
00C6
00C7
0007
07FE
1FFC
3FFC
783E
F01E
F00F
E00F
E00F
E00F
F00F
F01E
783E
3FFC
1FF8
07E0
ENDCHAR
STARTCHAR 1EDF
ENCODING 7903
SWIDTH 672 0
DWIDTH 14 0
BBX 12 17 1 0
BITMAP
0F00
0F00
0300
0370
0230
0030
1FE0
3FC0
7FE0
F0F0
E070
E070
E070
F0F0
7FE0
7FC0
1F00
ENDCHAR
STARTCHAR 1EE0
ENCODING 7904
SWIDTH 864 0
DWIDTH 18 0
BBX 16 19 1 0
BITMAP
0730
0FE6
0CE7
0007
07FE
1FFC
3FFC
783E
F01E
F00F
E00F
E00F
E00F
F00F
F01E
783E
3FFC
1FF8
07E0
ENDCHAR
STARTCHAR 1EE1
ENCODING 7905
SWIDTH 672 0
DWIDTH 14 0
BBX 12 16 1 0
BITMAP
1C80
3F80
3370
0030
0070
1FE0
3FC0
7FE0
F0F0
E070
E070
E070
F0F0
7FE0
7FC0
1F00
ENDCHAR
STARTCHAR 1EE2
ENCODING 7906
SWIDTH 864 0
DWIDTH 18 0
BBX 16 22 1 -4
BITMAP
0002
0007
0007
07FE
1FFC
3FFC
783E
F01E
F00F
E00F
E00F
E00F
F00F
F01E
783E
3FFC
1FF8
07E0
0000
0180
0380
0180
ENDCHAR
STARTCHAR 1EE3
ENCODING 7907
SWIDTH 672 0
DWIDTH 14 0
BBX 12 18 1 -4
BITMAP
0060
0030
0030
1FE0
3FC0
7FE0
F0F0
E070
E070
E070
F0F0
7FE0
7FC0
1F00
0000
0600
0E00
0600
ENDCHAR
STARTCHAR 1EE4
ENCODING 7908
SWIDTH 768 0
DWIDTH 16 0
BBX 13 19 2 -4
BITMAP
E078
E078
E078
E078
E078
E078
E078
E078
E078
E078
E078
F0F0
7FF0
3FE0
1F80
0000
0600
0700
0600
ENDCHAR
STARTCHAR 1EE5
ENCODING 7909
SWIDTH 672 0
DWIDTH 14 0
BBX 12 15 1 -4
BITMAP
F070
F070
F070
F070
F070
F070
F0F0
70F0
7FF0
7FF0
1E70
0000
0600
0700
0600
ENDCHAR
STARTCHAR 1EE6
ENCODING 7910
SWIDTH 768 0
DWIDTH 16 0
BBX 13 21 2 0
BITMAP
0F00
0F80
0180
0300
0300
0000
E078
E078
E078
E078
E078
E078
E078
E078
E078
E078
E078
F0F0
7FF0
3FE0
1F80
ENDCHAR
STARTCHAR 1EE7
ENCODING 7911
SWIDTH 672 0
DWIDTH 14 0
BBX 12 17 1 0
BITMAP
0F00
0F80
0180
0300
0200
0000
F070
F070
F070
F070
F070
F070
F0F0
70F0
7FF0
7FF0
1E70
ENDCHAR
STARTCHAR 1EE8
ENCODING 7912
SWIDTH 816 0
DWIDTH 17 0
BBX 15 19 2 0
BITMAP
01C0
0386
0606
0006
E07E
E07C
E078
E078
E078
E078
E078
E078
E078
E078
E078
F0F0
7FF0
3FE0
1F80
ENDCHAR
STARTCHAR 1EE9
ENCODING 7913
SWIDTH 720 0
DWIDTH 15 0
BBX 14 16 1 0
BITMAP
01C0
0388
061C
000C
001C
F078
F070
F070
F070
F070
F070
F0F0
70F0
7FF0
7FF0
1E70
ENDCHAR
STARTCHAR 1EEA
ENCODING 7914
SWIDTH 816 0
DWIDTH 17 0
BBX 15 19 2 0
BITMAP
3C00
0E06
0706
0006
E07E
E07C
E078
E078
E078
E078
E078
E078
E078
E078
E078
F0F0
7FF0
3FE0
1F80
ENDCHAR
STARTCHAR 1EEB
ENCODING 7915
SWIDTH 720 0
DWIDTH 15 0
BBX 14 16 1 0
BITMAP
3C00
0E08
071C
000C
001C
F078
F070
F070
F070
F070
F070
F0F0
70F0
7FF0
7FF0
1E70
ENDCHAR
STARTCHAR 1EEC
ENCODING 7916
SWIDTH 816 0
DWIDTH 17 0
BBX 15 21 2 0
BITMAP
0F00
0F80
0180
0306
0306
0006
E07E
E07C
E078
E078
E078
E078
E078
E078
E078
E078
E078
F0F0
7FF0
3FE0
1F80
ENDCHAR
STARTCHAR 1EED
ENCODING 7917
SWIDTH 720 0
DWIDTH 15 0
BBX 14 17 1 0
BITMAP
0F00
0F80
0180
0318
020C
001C
F078
F070
F070
F070
F070
F070
F0F0
70F0
7FF0
7FF0
1E70
ENDCHAR
STARTCHAR 1EEE
ENCODING 7918
SWIDTH 816 0
DWIDTH 17 0
BBX 15 19 2 0
BITMAP
1CC0
1FC6
3386
0006
E07E
E07C
E078
E078
E078
E078
E078
E078
E078
E078
E078
F0F0
7FF0
3FE0
1F80
ENDCHAR
STARTCHAR 1EEF
ENCODING 7919
SWIDTH 720 0
DWIDTH 15 0
BBX 14 16 1 0
BITMAP
1CC0
3FC8
339C
000C
001C
F078
F070
F070
F070
F070
F070
F0F0
70F0
7FF0
7FF0
1E70
ENDCHAR
STARTCHAR 1EF0
ENCODING 7920
SWIDTH 816 0
DWIDTH 17 0
BBX 15 22 2 -4
BITMAP
0006
0006
0006
E07E
E07C
E078
E078
E078
E078
E078
E078
E078
E078
E078
F0F0
7FF0
3FE0
1F80
0000
0600
0700
0600
ENDCHAR
STARTCHAR 1EF1
ENCODING 7921
SWIDTH 720 0
DWIDTH 15 0
BBX 14 18 1 -4
BITMAP
0018
000C
001C
F078
F070
F070
F070
F070
F070
F0F0
70F0
7FF0
7FF0
1E70
0000
0600
0700
0600
ENDCHAR
STARTCHAR 1EF2
ENCODING 7922
SWIDTH 672 0
DWIDTH 14 0
BBX 14 19 0 0
BITMAP
1E00
0F00
0300
0000
F01C
703C
7838
3870
3CF0
1CE0
1FE0
0FC0
0780
0780
0780
0780
0780
0780
0780
ENDCHAR
STARTCHAR 1EF3
ENCODING 7923
SWIDTH 576 0
DWIDTH 12 0
BBX 12 20 0 -4
BITMAP
3C00
1C00
0600
0000
0000
E070
F070
70F0
78E0
38E0
3DC0
1DC0
1F80
0F80
0F00
0F00
0F00
7E00
FC00
7800
ENDCHAR
STARTCHAR 1EF4
ENCODING 7924
SWIDTH 672 0
DWIDTH 14 0
BBX 14 19 0 -4
BITMAP
F01C
703C
7838
3870
3CF0
1CE0
1FE0
0FC0
0780
0780
0780
0780
0780
0780
0780
0000
0300
0300
0300
ENDCHAR
STARTCHAR 1EF5
ENCODING 7925
SWIDTH 576 0
DWIDTH 12 0
BBX 12 15 0 -4
BITMAP
E070
F070
70F0
78E0
38E0
3DC0
1DC0
1F80
0F80
0F00
0F00
0F00
7E60
FCE0
7860
ENDCHAR
STARTCHAR 1EF6
ENCODING 7926
SWIDTH 672 0
DWIDTH 14 0
BBX 14 21 0 0
BITMAP
0780
0780
00C0
0180
0100
0000
F01C
703C
7838
3870
3CF0
1CE0
1FE0
0FC0
0780
0780
0780
0780
0780
0780
0780
ENDCHAR
STARTCHAR 1EF7
ENCODING 7927
SWIDTH 576 0
DWIDTH 12 0
BBX 12 21 0 -4
BITMAP
0F00
0F00
0180
0300
0200
0000
E070
F070
70F0
78E0
38E0
3DC0
1DC0
1F80
0F80
0F00
0F00
0F00
7E00
FC00
7800
ENDCHAR
STARTCHAR 1EF8
ENCODING 7928
SWIDTH 672 0
DWIDTH 14 0
BBX 14 19 0 0
BITMAP
0E60
1FE0
19C0
0000
F01C
703C
7838
3870
3CF0
1CE0
1FE0
0FC0
0780
0780
0780
0780
0780
0780
0780
ENDCHAR
STARTCHAR 1EF9
ENCODING 7929
SWIDTH 576 0
DWIDTH 12 0
BBX 12 20 0 -4
BITMAP
1CC0
3FC0
3380
0000
0000
E070
F070
70F0
78E0
38E0
3DC0
1DC0
1F80
0F80
0F00
0F00
0F00
7E00
FC00
7800
ENDCHAR
STARTCHAR 2007
ENCODING 8199
SWIDTH 720 0
DWIDTH 15 0
BBX 0 0 0 0
BITMAP
ENDCHAR
STARTCHAR 2008
ENCODING 8200
SWIDTH 240 0
DWIDTH 5 0
BBX 0 0 0 0
BITMAP
ENDCHAR
STARTCHAR 2009
ENCODING 8201
SWIDTH 144 0
DWIDTH 3 0
BBX 0 0 0 0
BITMAP
ENDCHAR
STARTCHAR 200A
ENCODING 8202
SWIDTH 96 0
DWIDTH 2 0
BBX 0 0 0 0
BITMAP
ENDCHAR
STARTCHAR 200B
ENCODING 8203
SWIDTH 0 0
DWIDTH 0 0
BBX 0 0 0 0
BITMAP
ENDCHAR
STARTCHAR 2010
ENCODING 8208
SWIDTH 384 0
DWIDTH 8 0
BBX 6 3 1 4
BITMAP
FC
FC
FC
ENDCHAR
STARTCHAR 2012
ENCODING 8210
SWIDTH 720 0
DWIDTH 15 0
BBX 13 2 1 6
BITMAP
FFF8
FFF8
ENDCHAR
STARTCHAR 2013
ENCODING 8211
SWIDTH 480 0
DWIDTH 10 0
BBX 10 2 0 5
BITMAP
FFC0
FFC0
ENDCHAR
STARTCHAR 2014
ENCODING 8212
SWIDTH 1008 0
DWIDTH 21 0
BBX 21 2 0 5
BITMAP
FFFFF8
FFFFF8
ENDCHAR
STARTCHAR 2015
ENCODING 8213
SWIDTH 1008 0
DWIDTH 21 0
BBX 21 2 0 5
BITMAP
FFFFF8
FFFFF8
ENDCHAR
STARTCHAR 2018
ENCODING 8216
SWIDTH 240 0
DWIDTH 5 0
BBX 4 7 1 9
BITMAP
60
60
E0
E0
F0
F0
E0
ENDCHAR
STARTCHAR 2019
ENCODING 8217
SWIDTH 240 0
DWIDTH 5 0
BBX 4 7 1 9
BITMAP
E0
F0
F0
E0
60
E0
C0
ENDCHAR
STARTCHAR 201A
ENCODING 8218
SWIDTH 240 0
DWIDTH 5 0
BBX 4 7 1 -3
BITMAP
E0
F0
F0
E0
60
E0
C0
ENDCHAR
STARTCHAR 201C
ENCODING 8220
SWIDTH 480 0
DWIDTH 10 0
BBX 9 7 1 9
BITMAP
6300
6300
E700
E700
F780
F780
E700
ENDCHAR
STARTCHAR 201D
ENCODING 8221
SWIDTH 480 0
DWIDTH 10 0
BBX 9 7 1 9
BITMAP
E700
F780
F780
E700
6300
E700
C600
ENDCHAR
STARTCHAR 201E
ENCODING 8222
SWIDTH 480 0
DWIDTH 10 0
BBX 9 7 1 -3
BITMAP
E700
F780
F780
E700
6300
E700
C600
ENDCHAR
STARTCHAR 2020
ENCODING 8224
SWIDTH 576 0
DWIDTH 12 0
BBX 11 19 1 -4
BITMAP
0E00
0E00
0E00
0E00
0E00
FFE0
FFE0
FFE0
0E00
0E00
0E00
0E00
0E00
0E00
0E00
0E00
0E00
0E00
0E00
ENDCHAR
STARTCHAR 2021
ENCODING 8225
SWIDTH 576 0
DWIDTH 12 0
BBX 11 19 1 -4
BITMAP
0E00
0E00
0E00
0E00
0E00
FFE0
FFE0
FFE0
0E00
0E00
0E00
FFE0
FFE0
FFE0
0E00
0E00
0E00
0E00
0E00
ENDCHAR
STARTCHAR 2022
ENCODING 8226
SWIDTH 336 0
DWIDTH 7 0
BBX 5 5 1 3
BITMAP
78
F8
F8
F8
70
ENDCHAR
STARTCHAR 2026
ENCODING 8230
SWIDTH 816 0
DWIDTH 17 0
BBX 15 4 1 0
BITMAP
E39C
F79E
F79E
E38C
ENDCHAR
STARTCHAR 2030
ENCODING 8240
SWIDTH 1248 0
DWIDTH 26 0
BBX 25 15 1 0
BITMAP
780C0000
FC180000
CE380000
C6300000
C6600000
CEE00000
FCC00000
799E1E00
03BF3F00
03333300
0671F180
0E71F180
0C333300
183F3F00
381E1E00
ENDCHAR
STARTCHAR 2032
ENCODING 8242
SWIDTH 240 0
DWIDTH 5 0
BBX 3 6 1 9
BITMAP
E0
E0
E0
E0
E0
E0
ENDCHAR
STARTCHAR 2033
ENCODING 8243
SWIDTH 432 0
DWIDTH 9 0
BBX 7 6 1 9
BITMAP
EE
EE
EE
EE
EE
EE
ENDCHAR
STARTCHAR 2039
ENCODING 8249
SWIDTH 336 0
DWIDTH 7 0
BBX 5 8 1 2
BITMAP
38
38
70
E0
E0
70
70
38
ENDCHAR
STARTCHAR 203A
ENCODING 8250
SWIDTH 336 0
DWIDTH 7 0
BBX 5 8 1 2
BITMAP
E0
60
70
38
38
70
70
E0
ENDCHAR
STARTCHAR 2044
ENCODING 8260
SWIDTH 192 0
DWIDTH 4 0
BBX 12 15 -4 0
BITMAP
0070
0060
00C0
01C0
0180
0300
0700
0600
0E00
1C00
1800
3800
7000
6000
E000
ENDCHAR
STARTCHAR 2052
ENCODING 8274
SWIDTH 576 0
DWIDTH 12 0
BBX 10 15 1 0
BITMAP
6380
F380
E300
0700
0600
0600
0E00
0C00
0C00
1C00
1800
1800
39C0
31C0
71C0
ENDCHAR
STARTCHAR 2070
ENCODING 8304
SWIDTH 432 0
DWIDTH 9 0
BBX 9 9 0 7
BITMAP
3E00
7F00
6300
E300
E380
E300
6300
7F00
3E00
ENDCHAR
STARTCHAR 2074
ENCODING 8308
SWIDTH 432 0
DWIDTH 9 0
BBX 9 9 0 7
BITMAP
0C00
1C00
3800
3000
6600
FF80
FF80
0600
0600
ENDCHAR
STARTCHAR 2075
ENCODING 8309
SWIDTH 432 0
DWIDTH 9 0
BBX 7 10 1 6
BITMAP
7E
FE
C0
C0
FC
FE
06
86
FE
78
ENDCHAR
STARTCHAR 2076
ENCODING 8310
SWIDTH 432 0
DWIDTH 9 0
BBX 8 10 0 6
BITMAP
1F
3F
70
60
7E
FF
63
63
3F
0C
ENDCHAR
STARTCHAR 2077
ENCODING 8311
SWIDTH 432 0
DWIDTH 9 0
BBX 7 9 1 7
BITMAP
FE
FE
CE
0C
1C
18
38
30
70
ENDCHAR
STARTCHAR 2078
ENCODING 8312
SWIDTH 432 0
DWIDTH 9 0
BBX 8 10 0 6
BITMAP
3E
7F
63
63
7F
7F
E3
E3
7F
1C
ENDCHAR
STARTCHAR 2079
ENCODING 8313
SWIDTH 432 0
DWIDTH 9 0
BBX 8 9 0 7
BITMAP
3C
7F
E3
63
7F
1B
07
7E
7C
ENDCHAR
STARTCHAR 2080
ENCODING 8320
SWIDTH 432 0
DWIDTH 9 0
BBX 9 9 0 -2
BITMAP
1C00
7F00
6300
E300
E380
E300
6300
7F00
3E00
ENDCHAR
STARTCHAR 2081
ENCODING 8321
SWIDTH 432 0
DWIDTH 9 0
BBX 6 9 2 -2
BITMAP
F0
F0
30
30
30
30
30
FC
FC
ENDCHAR
STARTCHAR 2082
ENCODING 8322
SWIDTH 432 0
DWIDTH 9 0
BBX 7 9 1 -2
BITMAP
78
FC
8E
0E
1C
38
70
FE
FE
ENDCHAR
STARTCHAR 2083
ENCODING 8323
SWIDTH 432 0
DWIDTH 9 0
BBX 7 9 1 -2
BITMAP
FE
FE
1C
18
3C
0E
06
FE
FC
ENDCHAR
STARTCHAR 2084
ENCODING 8324
SWIDTH 432 0
DWIDTH 9 0
BBX 9 9 0 -2
BITMAP
0C00
1C00
3800
3000
6600
FF80
FF80
0600
0600
ENDCHAR
STARTCHAR 2085
ENCODING 8325
SWIDTH 432 0
DWIDTH 9 0
BBX 7 9 1 -2
BITMAP
7E
FE
C0
C0
FC
FE
06
FE
FC
ENDCHAR
STARTCHAR 2086
ENCODING 8326
SWIDTH 432 0
DWIDTH 9 0
BBX 8 9 0 -2
BITMAP
0F
3F
70
6C
FF
63
63
7F
1E
ENDCHAR
STARTCHAR 2087
ENCODING 8327
SWIDTH 432 0
DWIDTH 9 0
BBX 7 9 1 -2
BITMAP
FE
FE
CE
0E
1C
18
38
30
70
ENDCHAR
STARTCHAR 2088
ENCODING 8328
SWIDTH 432 0
DWIDTH 9 0
BBX 9 9 0 -2
BITMAP
1800
7F00
6300
6300
3E00
7F00
E380
7F00
3E00
ENDCHAR
STARTCHAR 2089
ENCODING 8329
SWIDTH 432 0
DWIDTH 9 0
BBX 8 9 0 -2
BITMAP
18
7E
63
E3
7F
3F
03
7E
7C
ENDCHAR
STARTCHAR 20A1
ENCODING 8353
SWIDTH 720 0
DWIDTH 15 0
BBX 14 19 1 -2
BITMAP
01B0
01B0
0FF0
1FF0
3FF8
7F78
7A70
F640
E6C0
E6C0
E4C0
EC80
FD80
7D98
7FFC
1FF8
1FE0
1B00
3300
ENDCHAR
STARTCHAR 20A3
ENCODING 8355
SWIDTH 672 0
DWIDTH 14 0
BBX 13 15 1 0
BITMAP
3FF8
3FF8
3FF8
3800
3800
3800
3800
3FF0
3FF0
3FF0
3800
FFC0
FFC0
3800
3800
ENDCHAR
STARTCHAR 20A4
ENCODING 8356
SWIDTH 672 0
DWIDTH 14 0
BBX 12 15 1 0
BITMAP
07F0
0FF0
1FF0
3C10
3800
FFC0
FFC0
3800
FFC0
FFC0
3800
3800
FFF0
FFF0
FFF0
ENDCHAR
STARTCHAR 20A6
ENCODING 8358
SWIDTH 912 0
DWIDTH 19 0
BBX 17 15 1 0
BITMAP
380E00
3C0E00
3E0E00
3E0E00
3F0E00
FF8F80
FFCF80
3BEE00
F9EF80
F8FF80
387E00
387E00
383E00
381E00
380E00
ENDCHAR
STARTCHAR 20A7
ENCODING 8359
SWIDTH 1680 0
DWIDTH 35 0
BBX 33 15 2 0
BITMAP
FF80000000
FFE1C00000
FFE1C00000
E0F1C00000
E071C07E00
E073F8FF00
E073F9F700
E0F1C1C000
FFF1C1F000
FFE1C0FF00
FF81C03F80
E001E00380
E001F8E780
E000FDFF00
E0007CFE00
ENDCHAR
STARTCHAR 20A9
ENCODING 8361
SWIDTH 1248 0
DWIDTH 26 0
BBX 24 15 1 0
BITMAP
F03C07
F03C0F
703E0E
787E0E
787E1E
F87F1F
FCE71F
3CE73C
FCE7BF
FFC3BF
1FC3F8
0FC3F0
0F81F0
0F81F0
0781E0
ENDCHAR
STARTCHAR 20AB
ENCODING 8363
SWIDTH 672 0
DWIDTH 14 0
BBX 13 19 1 -3
BITMAP
0070
07F8
07F8
0070
0070
1F70
7FF0
7FF0
F0F0
E070
E070
E070
F0F0
7FF0
7FF0
1F70
0000
FFF0
FFF0
ENDCHAR
STARTCHAR 20AC
ENCODING 8364
SWIDTH 816 0
DWIDTH 17 0
BBX 15 15 1 0
BITMAP
01F0
07FC
0FFE
1E0E
3C04
FFE0
FFE0
3800
FFE0
FFE0
3C04
1E0E
0FFE
07FC
01F8
ENDCHAR
STARTCHAR 20AD
ENCODING 8365
SWIDTH 720 0
DWIDTH 15 0
BBX 14 15 1 0
BITMAP
383C
3878
3870
38F0
39E0
3BC0
FFF8
FFF8
3BC0
39E0
39E0
38F0
3878
383C
383C
ENDCHAR
STARTCHAR 20AE
ENCODING 8366
SWIDTH 720 0
DWIDTH 15 0
BBX 13 15 1 0
BITMAP
FFF8
FFF8
FFF8
0700
0720
07E0
0780
0F20
3FE0
27C0
0F00
3F00
3700
0700
0700
ENDCHAR
STARTCHAR 20B1
ENCODING 8369
SWIDTH 864 0
DWIDTH 18 0
BBX 16 15 1 0
BITMAP
3FE0
3FF8
3FF8
F83F
F81F
381C
F81F
F83F
3FF8
3FF0
3FE0
3800
3800
3800
3800
ENDCHAR
STARTCHAR 20B2
ENCODING 8370
SWIDTH 768 0
DWIDTH 16 0
BBX 14 19 1 -2
BITMAP
0180
0180
07E0
1FF0
3FFC
7FF8
7990
F180
E180
E180
E19C
F19C
F19C
799C
3FFC
1FF8
0FE0
0180
0180
ENDCHAR
STARTCHAR 20B4
ENCODING 8372
SWIDTH 816 0
DWIDTH 17 0
BBX 15 15 1 0
BITMAP
0FC0
1FF0
1FF8
0038
0038
FFFE
FFFE
0000
FFFE
FFFE
3800
3808
3FF8
1FFC
07E0
ENDCHAR
STARTCHAR 20B5
ENCODING 8373
SWIDTH 720 0
DWIDTH 15 0
BBX 14 19 1 -2
BITMAP
0180
0180
07E0
1FF0
3FF8
7DF8
7990
F180
E180
E180
E180
F180
F180
7998
3FFC
1FF8
0FE0
0180
0180
ENDCHAR
STARTCHAR 20B8
ENCODING 8376
SWIDTH 720 0
DWIDTH 15 0
BBX 13 15 1 0
BITMAP
FFF8
FFF8
0000
FFF8
FFF8
0700
0700
0700
0700
0700
0700
0700
0700
0700
0700
ENDCHAR
STARTCHAR 20B9
ENCODING 8377
SWIDTH 720 0
DWIDTH 15 0
BBX 13 15 1 0
BITMAP
FFF8
FFF8
01E0
FFF8
FFF8
00E0
01E0
7FE0
7FC0
7F00
0780
0380
03C0
01E0
00E0
ENDCHAR
STARTCHAR 20BA
ENCODING 8378
SWIDTH 768 0
DWIDTH 16 0
BBX 14 15 1 0
BITMAP
3800
3840
39C0
3B00
3E40
39C0
FF80
BE00
383C
F83C
B838
3878
3FF0
3FE0
3F80
ENDCHAR
STARTCHAR 20BC
ENCODING 8380
SWIDTH 912 0
DWIDTH 19 0
BBX 15 17 2 0
BITMAP
0380
0380
0FE0
1FF0
3FF8
7BBC
F39E
E38E
E38E
E38E
E38E
E38E
E38E
E38E
E00E
E00E
E00E
ENDCHAR
STARTCHAR 20BD
ENCODING 8381
SWIDTH 768 0
DWIDTH 16 0
BBX 14 15 1 0
BITMAP
3FE0
3FF8
3FFC
383C
381C
381C
383C
3FFC
3FF8
3FE0
3800
FFC0
FFC0
3800
3800
ENDCHAR
STARTCHAR 2113
ENCODING 8467
SWIDTH 480 0
DWIDTH 10 0
BBX 9 15 0 0
BITMAP
0700
0F80
1D80
1980
1980
1900
1B00
3E00
3C00
3800
7000
F000
3180
3F00
1E00
ENDCHAR
STARTCHAR 2116
ENCODING 8470
SWIDTH 1200 0
DWIDTH 25 0
BBX 22 15 2 0
BITMAP
E038F8
F039FC
F8398C
F8398C
FC398C
FE39FC
FF38F8
EFB800
E7F9FC
E3F9FC
E1F800
E1F800
E0F800
E07800
E03800
ENDCHAR
STARTCHAR 2122
ENCODING 8482
SWIDTH 1056 0
DWIDTH 22 0
BBX 20 9 0 6
BITMAP
FF7030
FF7070
187870
187CF0
187DB0
1877B0
187730
187230
187030
ENDCHAR
STARTCHAR 2126
ENCODING 8486
SWIDTH 912 0
DWIDTH 19 0
BBX 18 15 0 0
BITMAP
03F000
0FFC00
1FFE00
3E0F00
3C0780
380780
780380
780380
780380
380780
3C0700
1C0F00
FF1FC0
FF1FC0
FF1FC0
ENDCHAR
STARTCHAR 212A
ENCODING 8490
SWIDTH 720 0
DWIDTH 15 0
BBX 13 15 2 0
BITMAP
E078
E0F0
E1E0
E3C0
E780
EF00
EE00
FF00
FF80
FF80
F3C0
E1E0
E0F0
E070
E078
ENDCHAR
STARTCHAR 212B
ENCODING 8491
SWIDTH 768 0
DWIDTH 16 0
BBX 16 21 0 0
BITMAP
03C0
0240
0660
0240
03C0
0000
03C0
03C0
07E0
07E0
0EF0
0E70
1E70
1C38
1C38
3FFC
3FFC
7FFE
700E
F00F
E00F
ENDCHAR
STARTCHAR 212E
ENCODING 8494
SWIDTH 864 0
DWIDTH 18 0
BBX 16 15 1 0
BITMAP
07E0
1818
2004
6006
E007
E007
E007
FFF8
E000
E000
6000
6000
2004
1008
0FF0
ENDCHAR
STARTCHAR 2153
ENCODING 8531
SWIDTH 1056 0
DWIDTH 22 0
BBX 19 15 2 0
BITMAP
F00E00
F00C00
301800
303800
303000
306000
30EFE0
FCCFC0
FD8180
038380
0303E0
060060
0E0060
0C1FE0
180F80
ENDCHAR
STARTCHAR 2154
ENCODING 8532
SWIDTH 1056 0
DWIDTH 22 0
BBX 20 15 1 0
BITMAP
780700
FC0600
0E0C00
0E1C00
1C1800
383000
7077F0
FE67F0
FEC0E0
01C1C0
0181F0
030030
070030
060FF0
0C07C0
ENDCHAR
STARTCHAR 215B
ENCODING 8539
SWIDTH 1056 0
DWIDTH 22 0
BBX 19 15 2 0
BITMAP
F00E00
F00C00
301800
303800
303000
306000
30E7C0
FCCFE0
FD9C60
038EE0
030FC0
061C60
0E1C60
0C0FE0
1807C0
ENDCHAR
STARTCHAR 215C
ENCODING 8540
SWIDTH 1056 0
DWIDTH 22 0
BBX 20 15 1 0
BITMAP
FE0700
FE0600
1C0C00
381C00
3E1800
063000
8673E0
FE67F0
FCCE30
01C770
0187E0
030E30
070E30
0607F0
0C03E0
ENDCHAR
STARTCHAR 215D
ENCODING 8541
SWIDTH 1056 0
DWIDTH 22 0
BBX 20 15 1 0
BITMAP
7E0700
FE0600
C00C00
C01C00
FC1800
FE3000
067180
FE67E0
FCC630
01C630
0187E0
0307F0
070C30
060FF0
0C03E0
ENDCHAR
STARTCHAR 215E
ENCODING 8542
SWIDTH 1056 0
DWIDTH 22 0
BBX 20 15 1 0
BITMAP
FE0700
FE0600
CE0C00
0C1C00
1C1800
183000
3873E0
3067F0
70CE30
01C770
0187E0
030E30
070E30
0607F0
0C03E0
ENDCHAR
STARTCHAR 2190
ENCODING 8592
SWIDTH 624 0
DWIDTH 13 0
BBX 9 10 2 1
BITMAP
1800
3800
7000
7000
FF80
FF80
E000
7000
3800
3800
ENDCHAR
STARTCHAR 2191
ENCODING 8593
SWIDTH 624 0
DWIDTH 13 0
BBX 9 10 2 1
BITMAP
1800
3C00
FF00
FF80
9980
1800
1800
1800
1800
1800
ENDCHAR
STARTCHAR 2192
ENCODING 8594
SWIDTH 624 0
DWIDTH 13 0
BBX 10 10 1 1
BITMAP
0E00
0700
0700
0380
FFC0
FFC0
0380
0700
0700
0E00
ENDCHAR
STARTCHAR 2193
ENCODING 8595
SWIDTH 624 0
DWIDTH 13 0
BBX 9 10 2 1
BITMAP
1C00
1C00
1C00
1C00
1C00
DD80
FF80
7F00
3E00
0800
ENDCHAR
STARTCHAR 2194
ENCODING 8596
SWIDTH 816 0
DWIDTH 17 0
BBX 15 10 1 1
BITMAP
1C70
3838
381C
701C
FFFE
FFFE
701C
381C
3838
1C30
ENDCHAR
STARTCHAR 2195
ENCODING 8597
SWIDTH 624 0
DWIDTH 13 0
BBX 9 14 2 0
BITMAP
1800
3C00
7F00
FF80
9980
1800
1800
1800
1800
D980
FF80
7F00
3C00
0800
ENDCHAR
STARTCHAR 2196
ENCODING 8598
SWIDTH 624 0
DWIDTH 13 0
BBX 9 9 2 1
BITMAP
0E00
7F00
7800
F800
DC00
CE00
C700
4380
0100
ENDCHAR
STARTCHAR 2197
ENCODING 8599
SWIDTH 624 0
DWIDTH 13 0
BBX 9 9 2 1
BITMAP
3800
7F00
0F00
0F00
1F80
3980
7180
E100
4000
ENDCHAR
STARTCHAR 2198
ENCODING 8600
SWIDTH 624 0
DWIDTH 13 0
BBX 9 9 2 1
BITMAP
4000
E100
7180
3980
1F80
0F00
0F00
7F00
3800
ENDCHAR
STARTCHAR 2199
ENCODING 8601
SWIDTH 624 0
DWIDTH 13 0
BBX 9 9 2 1
BITMAP
0300
4780
CF00
DE00
FC00
F800
7800
7F00
0E00
ENDCHAR
STARTCHAR 2202
ENCODING 8706
SWIDTH 720 0
DWIDTH 15 0
BBX 12 16 1 0
BITMAP
3E00
7F80
7FC0
01E0
00F0
0070
0470
3FF0
7FF0
F0F0
F070
E070
F0F0
7FE0
3FC0
1F80
ENDCHAR
STARTCHAR 2205
ENCODING 8709
SWIDTH 576 0
DWIDTH 12 0
BBX 10 9 1 2
BITMAP
1F40
3F80
71C0
E2C0
ECC0
78C0
71C0
7F80
DE00
ENDCHAR
STARTCHAR 2206
ENCODING 8710
SWIDTH 768 0
DWIDTH 16 0
BBX 16 15 0 0
BITMAP
03C0
03C0
07E0
07E0
0EF0
0E70
1E70
1C38
1C38
383C
381C
781E
7FFE
FFFF
FFFF
ENDCHAR
STARTCHAR 220F
ENCODING 8719
SWIDTH 816 0
DWIDTH 17 0
BBX 13 19 2 -4
BITMAP
FFF8
FFF8
FFF8
E038
E038
E038
E038
E038
E038
E038
E038
E038
E038
E038
E038
E038
E038
E038
E038
ENDCHAR
STARTCHAR 2211
ENCODING 8721
SWIDTH 672 0
DWIDTH 14 0
BBX 13 19 1 -4
BITMAP
FFF0
FFF0
FFF0
7800
3C00
1E00
0F00
0780
0780
0380
0780
0F80
0F00
1E00
3C00
7800
FFF8
FFF8
FFF8
ENDCHAR
STARTCHAR 2212
ENCODING 8722
SWIDTH 576 0
DWIDTH 12 0
BBX 10 3 1 6
BITMAP
FFC0
FFC0
FFC0
ENDCHAR
STARTCHAR 2215
ENCODING 8725
SWIDTH 384 0
DWIDTH 8 0
BBX 10 20 -1 -2
BITMAP
01C0
01C0
0380
0380
0380
0700
0700
0700
0E00
0E00
0E00
1C00
1C00
1800
3800
3800
3000
7000
7000
E000
ENDCHAR
STARTCHAR 2219
ENCODING 8729
SWIDTH 336 0
DWIDTH 7 0
BBX 4 4 1 5
BITMAP
70
F0
F0
70
ENDCHAR
STARTCHAR 221A
ENCODING 8730
SWIDTH 816 0
DWIDTH 17 0
BBX 16 20 1 -4
BITMAP
0007
0007
000E
000E
000E
001E
001C
FC1C
FC1C
FC38
1E38
0E38
0E70
0E70
0770
07E0
07E0
03E0
03C0
03C0
ENDCHAR
STARTCHAR 221E
ENCODING 8734
SWIDTH 912 0
DWIDTH 19 0
BBX 18 9 1 3
BITMAP
3E1E00
7F7F80
F7F380
C1E1C0
C1C1C0
C1E1C0
F7F380
7F7F80
3E1E00
ENDCHAR
STARTCHAR 222B
ENCODING 8747
SWIDTH 432 0
DWIDTH 9 0
BBX 9 20 0 -4
BITMAP
0780
0F80
1F80
1C00
1C00
1C00
1C00
1C00
1C00
1C00
1C00
1C00
1C00
1C00
1C00
1C00
1C00
FC00
F800
F000
ENDCHAR
STARTCHAR 2248
ENCODING 8776
SWIDTH 576 0
DWIDTH 12 0
BBX 10 9 1 3
BITMAP
78C0
7CC0
EFC0
C780
0000
78C0
7CC0
EFC0
C780
ENDCHAR
STARTCHAR 2260
ENCODING 8800
SWIDTH 576 0
DWIDTH 12 0
BBX 10 12 1 1
BITMAP
0180
0380
FFC0
FFC0
FFC0
0E00
0C00
FFC0
FFC0
FFC0
7000
7000
ENDCHAR
STARTCHAR 2264
ENCODING 8804
SWIDTH 576 0
DWIDTH 12 0
BBX 10 13 1 1
BITMAP
01C0
0FC0
3F80
FC00
F000
FE00
1FC0
03C0
00C0
0000
FFC0
FFC0
FFC0
ENDCHAR
STARTCHAR 2265
ENCODING 8805
SWIDTH 576 0
DWIDTH 12 0
BBX 10 13 1 1
BITMAP
E000
FC00
3F80
07C0
03C0
1FC0
7F00
F800
C000
0000
FFC0
FFC0
FFC0
ENDCHAR
STARTCHAR 25A0
ENCODING 9632
SWIDTH 624 0
DWIDTH 13 0
BBX 8 8 2 2
BITMAP
FF
FF
FF
FF
FF
FF
FF
FF
ENDCHAR
STARTCHAR 25A1
ENCODING 9633
SWIDTH 624 0
DWIDTH 13 0
BBX 8 9 2 1
BITMAP
FF
FF
C1
C1
C1
C1
C1
FF
FF
ENDCHAR
STARTCHAR 25B2
ENCODING 9650
SWIDTH 624 0
DWIDTH 13 0
BBX 8 9 2 1
BITMAP
10
18
18
3C
3C
7E
7E
FF
FF
ENDCHAR
STARTCHAR 25B3
ENCODING 9651
SWIDTH 624 0
DWIDTH 13 0
BBX 8 8 2 2
BITMAP
08
18
1C
34
26
62
43
FF
ENDCHAR
STARTCHAR 25B6
ENCODING 9654
SWIDTH 624 0
DWIDTH 13 0
BBX 9 9 2 1
BITMAP
8000
E000
F800
FE00
FF80
FE00
F800
E000
8000
ENDCHAR
STARTCHAR 25B7
ENCODING 9655
SWIDTH 624 0
DWIDTH 13 0
BBX 9 9 2 1
BITMAP
8000
E000
F800
CE00
C380
CE00
F800
E000
8000
ENDCHAR
STARTCHAR 25BC
ENCODING 9660
SWIDTH 624 0
DWIDTH 13 0
BBX 8 8 2 1
BITMAP
FF
7F
7E
3E
3C
1C
18
08
ENDCHAR
STARTCHAR 25BD
ENCODING 9661
SWIDTH 624 0
DWIDTH 13 0
BBX 8 8 2 1
BITMAP
FF
43
62
26
34
1C
18
08
ENDCHAR
STARTCHAR 25C0
ENCODING 9664
SWIDTH 624 0
DWIDTH 13 0
BBX 9 9 1 1
BITMAP
0080
0380
0F80
3F80
FF80
3F80
0F80
0380
0080
ENDCHAR
STARTCHAR 25C1
ENCODING 9665
SWIDTH 624 0
DWIDTH 13 0
BBX 9 9 1 1
BITMAP
0080
0380
0E80
3880
E080
3880
0E80
0380
0080
ENDCHAR
STARTCHAR 25C6
ENCODING 9670
SWIDTH 624 0
DWIDTH 13 0
BBX 11 11 1 0
BITMAP
0400
0E00
1F00
3F80
7FC0
FFE0
7FC0
3F80
1F00
0E00
0400
ENDCHAR
STARTCHAR 25C7
ENCODING 9671
SWIDTH 624 0
DWIDTH 13 0
BBX 11 11 1 0
BITMAP
0400
0E00
1F00
3380
61C0
C060
60C0
3380
1F00
0E00
0400
ENDCHAR
STARTCHAR 25CA
ENCODING 9674
SWIDTH 480 0
DWIDTH 10 0
BBX 8 13 1 1
BITMAP
18
1C
3C
76
67
C3
C3
63
66
3C
3C
18
10
ENDCHAR
STARTCHAR 27E8
ENCODING 10216
SWIDTH 384 0
DWIDTH 8 0
BBX 6 20 1 -4
BITMAP
1C
38
38
38
70
70
70
E0
E0
E0
E0
E0
E0
70
70
70
38
38
38
1C
ENDCHAR
STARTCHAR 27E9
ENCODING 10217
SWIDTH 384 0
DWIDTH 8 0
BBX 6 20 1 -4
BITMAP
E0
E0
E0
70
70
78
38
38
3C
1C
1C
3C
38
38
78
70
70
E0
E0
E0
ENDCHAR
STARTCHAR A78B
ENCODING 42891
SWIDTH 288 0
DWIDTH 6 0
BBX 4 8 1 7
BITMAP
F0
F0
F0
F0
F0
E0
E0
E0
ENDCHAR
STARTCHAR A78C
ENCODING 42892
SWIDTH 288 0
DWIDTH 6 0
BBX 4 8 1 6
BITMAP
F0
F0
F0
E0
E0
E0
E0
E0
ENDCHAR
STARTCHAR FB01
ENCODING 64257
SWIDTH 768 0
DWIDTH 16 0
BBX 15 17 0 0
BITMAP
000C
0F9E
1F1E
3F1C
3800
3800
FF1C
FF1C
3F1C
381C
381C
381C
381C
381C
381C
381C
381C
ENDCHAR
STARTCHAR FB02
ENCODING 64258
SWIDTH 672 0
DWIDTH 14 0
BBX 13 16 0 0
BITMAP
0FB8
1F38
3F38
3838
3838
FF38
FF38
3F38
3838
3838
3838
3838
3838
3838
3838
3838
ENDCHAR
ENDFONT
